<svg width="34" height="52" viewBox="0 0 34 52" fill="none" xmlns="http://www.w3.org/2000/svg">
<g clip-path="url(#clip0_185_1389)">
<path d="M8.49969 51.4991C13.1915 51.4991 16.9994 47.6913 16.9994 42.9995V34.4998H8.49969C3.80786 34.4998 0 38.3076 0 42.9995C0 47.6913 3.80786 51.4991 8.49969 51.4991Z" fill="#0ACF83"/>
<path d="M0 26.0001C0 21.3082 3.80786 17.5004 8.49969 17.5004H16.9994V34.4998H8.49969C3.80786 34.4998 0 30.6919 0 26.0001Z" fill="#A259FF"/>
<path d="M0 9.00067C0 4.30884 3.80786 0.500977 8.49969 0.500977H16.9994V17.5004H8.49969C3.80786 17.5004 0 13.6925 0 9.00067Z" fill="#F24E1E"/>
<path d="M16.9961 0.500977H25.4958C30.1876 0.500977 33.9955 4.30884 33.9955 9.00067C33.9955 13.6925 30.1876 17.5004 25.4958 17.5004H16.9961V0.500977Z" fill="#FF7262"/>
<path d="M33.9955 26.0001C33.9955 30.6919 30.1876 34.4998 25.4958 34.4998C20.804 34.4998 16.9961 30.6919 16.9961 26.0001C16.9961 21.3082 20.804 17.5004 25.4958 17.5004C30.1876 17.5004 33.9955 21.3082 33.9955 26.0001Z" fill="#1ABCFE"/>
</g>
<defs>
<clipPath id="clip0_185_1389">
<rect width="33.9988" height="50.9982" fill="white" transform="translate(0 0.500977)"/>
</clipPath>
</defs>
</svg>
