<svg width="20" height="20" viewBox="0 0 20 20" fill="none" xmlns="http://www.w3.org/2000/svg">
<g filter="url(#filter0_d_202_3641)">
<g clip-path="url(#clip0_202_3641)">
<path d="M14.5977 8.29885C14.5977 5.92466 12.673 4 10.2988 4C7.92462 4 5.99996 5.92466 5.99996 8.29885C5.99996 10.673 7.92462 12.5977 10.2988 12.5977C12.673 12.5977 14.5977 10.673 14.5977 8.29885Z" fill="black" fill-opacity="0.2" shape-rendering="crispEdges"/>
<g clip-path="url(#clip1_202_3641)">
<path d="M16.174 4H4.17578V12.3988H16.174V4Z" fill="#009B3A"/>
<path d="M5.19531 8.19907L10.1746 11.3786L15.1539 8.19907L10.1746 5.01953L5.19531 8.19907Z" fill="#FEDF00"/>
<path d="M10.1739 10.299C11.3335 10.299 12.2736 9.35893 12.2736 8.1993C12.2736 7.03967 11.3335 6.09961 10.1739 6.09961C9.01428 6.09961 8.07422 7.03967 8.07422 8.1993C8.07422 9.35893 9.01428 10.299 10.1739 10.299Z" fill="#002776"/>
<mask id="mask0_202_3641" style="mask-type:luminance" maskUnits="userSpaceOnUse" x="8" y="6" width="5" height="5">
<path d="M10.1739 10.299C11.3335 10.299 12.2736 9.35893 12.2736 8.1993C12.2736 7.03967 11.3335 6.09961 10.1739 6.09961C9.01428 6.09961 8.07422 7.03967 8.07422 8.1993C8.07422 9.35893 9.01428 10.299 10.1739 10.299Z" fill="white"/>
</mask>
<g mask="url(#mask0_202_3641)">
<path d="M3.875 12.3981C3.875 11.0457 4.41224 9.74866 5.36854 8.79237C6.32483 7.83607 7.62185 7.29883 8.97425 7.29883C10.3267 7.29883 11.6237 7.83607 12.58 8.79237C13.5363 9.74866 14.0735 11.0457 14.0735 12.3981H13.7736C13.7736 11.1252 13.2679 9.90451 12.3679 9.00447C11.4678 8.10442 10.2471 7.59878 8.97425 7.59878C7.7014 7.59878 6.48068 8.10442 5.58064 9.00447C4.68059 9.90451 4.17496 11.1252 4.17496 12.3981H3.875Z" fill="white"/>
</g>
<path fill-rule="evenodd" clip-rule="evenodd" d="M8.38322 7.58497C8.40691 7.58207 8.42834 7.56882 8.4428 7.54815C8.45727 7.52749 8.46358 7.50109 8.46035 7.47477C8.45712 7.44845 8.44461 7.42436 8.42557 7.40781C8.40654 7.39125 8.38254 7.38359 8.35885 7.38649C8.33516 7.3894 8.31373 7.40265 8.29926 7.42332C8.2848 7.44398 8.27848 7.47038 8.28172 7.4967C8.28495 7.52302 8.29746 7.54711 8.31649 7.56366C8.33553 7.58022 8.35953 7.58788 8.38322 7.58497ZM8.37869 7.54811C8.3926 7.54641 8.40514 7.5382 8.41354 7.52529C8.42194 7.51238 8.42552 7.49584 8.42349 7.47929C8.42146 7.46275 8.41398 7.44756 8.40271 7.43707C8.39143 7.42658 8.37729 7.42165 8.36337 7.42335C8.34946 7.42506 8.33693 7.43327 8.32852 7.44618C8.32012 7.45909 8.31655 7.47563 8.31858 7.49218C8.32061 7.50872 8.32808 7.52391 8.33936 7.5344C8.35063 7.54489 8.36478 7.54982 8.37869 7.54811Z" fill="#009B3A"/>
<path fill-rule="evenodd" clip-rule="evenodd" d="M8.54715 7.56765L8.5842 7.56506L8.57902 7.49096L8.65881 7.48538C8.67544 7.48422 8.69092 7.4765 8.70186 7.46392C8.71279 7.45134 8.71829 7.43493 8.71712 7.4183C8.71596 7.40168 8.70824 7.38619 8.69566 7.37526C8.68308 7.36432 8.66667 7.35883 8.65004 7.35999L8.53605 7.36796L8.54715 7.56765ZM8.57643 7.45392L8.65337 7.44854C8.66017 7.44806 8.66651 7.4449 8.67098 7.43976C8.67546 7.43461 8.6777 7.4279 8.67723 7.42109C8.67675 7.41429 8.67359 7.40796 8.66845 7.40348C8.6633 7.39901 8.65659 7.39676 8.64978 7.39724L8.57284 7.40262L8.57643 7.45392Z" fill="#009B3A"/>
<path d="M8.71655 7.5561C8.71456 7.5276 8.71017 7.4649 8.66743 7.46789L8.61328 7.47168C8.67598 7.4673 8.68036 7.52999 8.68235 7.55849" fill="#009B3A"/>
<path fill-rule="evenodd" clip-rule="evenodd" d="M8.80036 7.5515L8.89462 7.54986C8.90588 7.54966 8.91698 7.54725 8.9273 7.54276C8.93762 7.53827 8.94696 7.5318 8.95478 7.5237C8.96259 7.51561 8.96874 7.50605 8.97287 7.49558C8.97699 7.48511 8.97901 7.47393 8.97882 7.46267L8.97832 7.43411C8.97812 7.42286 8.97571 7.41175 8.97122 7.40143C8.96673 7.39111 8.96026 7.38178 8.95216 7.37396C8.94407 7.36614 8.93451 7.35999 8.92404 7.35587C8.91357 7.35174 8.90239 7.34972 8.89113 7.34992L8.79688 7.35156L8.80036 7.5515ZM8.83685 7.51372L8.89112 7.51278C8.90551 7.51252 8.91922 7.50657 8.92922 7.49621C8.93921 7.48586 8.94469 7.47195 8.94444 7.45756L8.94414 7.44042C8.94389 7.42603 8.93793 7.41232 8.92758 7.40232C8.91722 7.39232 8.90332 7.38685 8.88892 7.3871L8.83465 7.38805L8.83685 7.51372Z" fill="#009B3A"/>
<path d="M9.05357 7.54946L9.23343 7.55574L9.23473 7.51862L9.08912 7.51354L9.09092 7.46215L9.20512 7.46614L9.20631 7.43188L9.09211 7.42789L9.09351 7.38792L9.23055 7.39271L9.23185 7.35559L9.06055 7.34961L9.05357 7.54946Z" fill="#009B3A"/>
<path d="M9.30679 7.55956L9.34094 7.56255L9.35289 7.42595L9.38078 7.56603L9.41209 7.56877L9.46388 7.43566L9.45193 7.57226L9.48608 7.57525L9.50351 7.37604L9.45371 7.37168L9.40191 7.5048L9.37402 7.36471L9.32422 7.36035L9.30679 7.55956Z" fill="#009B3A"/>
<path d="M9.72147 7.60706L9.86929 7.63246L9.87509 7.59867L9.76107 7.57908L9.76881 7.53403L9.86172 7.55L9.86752 7.51621L9.77461 7.50025L9.77993 7.46928L9.89044 7.48827L9.89625 7.45448L9.75195 7.42969L9.72147 7.60706Z" fill="#009B3A"/>
<path fill-rule="evenodd" clip-rule="evenodd" d="M10.1023 7.68091L10.1382 7.6902L10.1568 7.6183L10.2343 7.63832C10.2504 7.6425 10.2675 7.64009 10.2819 7.63163C10.2963 7.62317 10.3067 7.60935 10.3108 7.59321C10.315 7.57708 10.3126 7.55994 10.3042 7.54558C10.2957 7.53122 10.2819 7.5208 10.2657 7.51663L10.1551 7.48802L10.1023 7.68091ZM10.1661 7.58234L10.2408 7.60165C10.2474 7.60336 10.2544 7.60238 10.2603 7.59891C10.2662 7.59545 10.2704 7.5898 10.2721 7.5832C10.2738 7.5766 10.2729 7.56959 10.2694 7.56371C10.2659 7.55784 10.2603 7.55358 10.2537 7.55187L10.179 7.53256L10.1661 7.58234Z" fill="#009B3A"/>
<path fill-rule="evenodd" clip-rule="evenodd" d="M10.3481 7.74638L10.3835 7.75755L10.4058 7.68671L10.4821 7.71076C10.498 7.71578 10.5152 7.71427 10.53 7.70657C10.5448 7.69887 10.5559 7.68562 10.5609 7.66972C10.566 7.65383 10.5645 7.63659 10.5568 7.6218C10.5491 7.60702 10.5358 7.5959 10.5199 7.59088L10.4109 7.55652L10.3481 7.74638ZM10.417 7.65129L10.4906 7.67449C10.4971 7.67654 10.5041 7.67592 10.5102 7.67277C10.5162 7.66962 10.5208 7.6642 10.5228 7.6577C10.5249 7.65119 10.5242 7.64414 10.5211 7.63809C10.5179 7.63204 10.5125 7.62749 10.506 7.62544L10.4325 7.60225L10.417 7.65129Z" fill="#009B3A"/>
<path d="M10.5085 7.79706C10.5171 7.76981 10.536 7.70987 10.4951 7.69699L10.4434 7.68066C10.5033 7.69956 10.4844 7.7595 10.4758 7.78675" fill="#009B3A"/>
<path fill-rule="evenodd" clip-rule="evenodd" d="M10.6725 7.85652C10.6948 7.86487 10.7199 7.86302 10.7423 7.85137C10.7647 7.83972 10.7825 7.81922 10.7918 7.79438C10.8011 7.76954 10.8011 7.7424 10.7918 7.71892C10.7826 7.69545 10.7648 7.67757 10.7425 7.66921C10.7201 7.66085 10.695 7.6627 10.6726 7.67436C10.6503 7.68601 10.6325 7.70651 10.6232 7.73135C10.6139 7.75619 10.6139 7.78333 10.6231 7.8068C10.6324 7.83028 10.6501 7.84816 10.6725 7.85652ZM10.6855 7.82173C10.6986 7.82664 10.7135 7.82515 10.7269 7.81758C10.7403 7.81001 10.7511 7.79698 10.757 7.78137C10.7628 7.76576 10.7632 7.74884 10.758 7.73432C10.7529 7.71981 10.7426 7.7089 10.7295 7.70399C10.7164 7.69909 10.7014 7.70058 10.688 7.70815C10.6746 7.71572 10.6638 7.72874 10.658 7.74435C10.6521 7.75997 10.6518 7.77689 10.6569 7.7914C10.6621 7.80591 10.6723 7.81682 10.6855 7.82173Z" fill="#009B3A"/>
<mask id="mask1_202_3641" style="mask-type:luminance" maskUnits="userSpaceOnUse" x="10" y="7" width="2" height="1">
<path d="M10.8265 7.91581L10.9062 7.73242L11.0713 7.80419L10.9916 7.98757L10.8265 7.91581ZM10.9626 7.82856L10.9489 7.86L11.0314 7.89588L11.0451 7.86444L10.9626 7.82856Z" fill="white"/>
</mask>
<g mask="url(#mask1_202_3641)">
<path fill-rule="evenodd" clip-rule="evenodd" d="M10.909 7.95169C10.9309 7.96121 10.9561 7.96067 10.9791 7.95021C11.002 7.93974 11.0209 7.9202 11.0314 7.89588C11.042 7.87156 11.0434 7.84446 11.0354 7.82053C11.0274 7.79661 11.0107 7.77782 10.9888 7.7683C10.9669 7.75879 10.9417 7.75932 10.9187 7.76979C10.8958 7.78025 10.877 7.7998 10.8664 7.82411C10.8558 7.84843 10.8544 7.87554 10.8624 7.89946C10.8704 7.92339 10.8871 7.94217 10.909 7.95169ZM10.9238 7.91763C10.9367 7.92322 10.9517 7.92251 10.9655 7.91565C10.9792 7.9088 10.9907 7.89636 10.9974 7.88107C11.004 7.86578 11.0053 7.8489 11.0009 7.83414C10.9965 7.81938 10.9868 7.80795 10.974 7.80236C10.9611 7.79677 10.9461 7.79748 10.9324 7.80434C10.9186 7.8112 10.9071 7.82364 10.9004 7.83892C10.8938 7.85421 10.8925 7.87109 10.8969 7.88585C10.9013 7.90061 10.911 7.91204 10.9238 7.91763Z" fill="#009B3A"/>
</g>
<path d="M11.0304 7.89542L10.9609 7.86523L10.9495 7.89143L11.019 7.92162L11.0304 7.89542Z" fill="#009B3A"/>
<path d="M11.0301 7.89518L11.0039 7.88379L10.964 7.97548L10.9902 7.98687L11.0301 7.89518Z" fill="#009B3A"/>
<path fill-rule="evenodd" clip-rule="evenodd" d="M11.0573 8.0188L11.0905 8.03538L11.1236 7.9689L11.1952 8.00459C11.2101 8.01203 11.2274 8.01324 11.2432 8.00795C11.259 8.00266 11.2721 7.99131 11.2795 7.97639C11.2869 7.96148 11.2882 7.94421 11.2829 7.92841C11.2776 7.9126 11.2662 7.89954 11.2513 7.89211L11.149 7.84112L11.0573 8.0188ZM11.1402 7.93567L11.2092 7.97008C11.2153 7.97313 11.2224 7.97362 11.2289 7.97146C11.2353 7.96929 11.2407 7.96465 11.2437 7.95855C11.2468 7.95244 11.2473 7.94538 11.2451 7.93892C11.2429 7.93245 11.2383 7.92711 11.2322 7.92407L11.1631 7.88965L11.1402 7.93567Z" fill="#009B3A"/>
<path d="M11.2102 8.09488C11.2229 8.06931 11.251 8.01307 11.2126 7.99395L11.1641 7.96973C11.2203 7.99777 11.1923 8.05401 11.1795 8.07958" fill="#009B3A"/>
<path d="M11.2843 8.13401L11.441 8.22263L11.4593 8.19031L11.3325 8.11856L11.3578 8.07381L11.4572 8.13008L11.4741 8.10024L11.3747 8.04397L11.3944 8.00916L11.5137 8.07669L11.532 8.04436L11.3828 7.95996L11.2843 8.13401Z" fill="#009B3A"/>
<path d="M11.5756 8.23164C11.5648 8.2485 11.5757 8.2673 11.5998 8.28265C11.6239 8.29799 11.6403 8.29744 11.6473 8.28661C11.6691 8.25228 11.5427 8.20221 11.5817 8.14236C11.6153 8.09094 11.6728 8.13095 11.6944 8.14477C11.7161 8.15858 11.7509 8.19431 11.7239 8.23549L11.6871 8.21208C11.6986 8.19401 11.686 8.17664 11.6667 8.16436C11.648 8.15247 11.6329 8.14704 11.6217 8.16451C11.6031 8.19243 11.727 8.24513 11.689 8.30476C11.661 8.34874 11.6123 8.32954 11.5798 8.30882C11.5521 8.29117 11.5107 8.24955 11.5376 8.20746L11.5756 8.23164Z" fill="#009B3A"/>
<path d="M11.791 8.37313C11.7794 8.38941 11.7893 8.40875 11.8125 8.42534C11.8358 8.44193 11.8522 8.44223 11.8597 8.43178C11.8833 8.39864 11.7597 8.34202 11.8017 8.28429C11.838 8.2347 11.8933 8.27767 11.9142 8.2926C11.9351 8.30753 11.968 8.34504 11.9388 8.38474L11.9034 8.35944C11.9158 8.342 11.9041 8.32399 11.8855 8.31072C11.8675 8.29786 11.8526 8.29165 11.8406 8.30851C11.8205 8.33542 11.9415 8.39453 11.9004 8.4521C11.8702 8.49454 11.8225 8.47282 11.7911 8.45042C11.7644 8.43135 11.7252 8.38762 11.7543 8.347L11.791 8.37313Z" fill="#009B3A"/>
<path fill-rule="evenodd" clip-rule="evenodd" d="M11.9928 8.60314C12.0115 8.618 12.036 8.624 12.0608 8.61983C12.0857 8.61566 12.109 8.60166 12.1255 8.58091C12.142 8.56016 12.1504 8.53435 12.1489 8.50917C12.1473 8.48399 12.136 8.4615 12.1173 8.44664C12.0986 8.43179 12.0742 8.42578 12.0493 8.42995C12.0244 8.43412 12.0011 8.44812 11.9846 8.46887C11.9681 8.48963 11.9597 8.51543 11.9612 8.54061C11.9628 8.56579 11.9741 8.58828 11.9928 8.60314ZM12.0159 8.57408C12.0269 8.5828 12.0415 8.58599 12.0566 8.58294C12.0717 8.57988 12.086 8.57084 12.0964 8.55779C12.1068 8.54475 12.1124 8.52877 12.112 8.51338C12.1115 8.49798 12.1052 8.48443 12.0942 8.47571C12.0832 8.46698 12.0686 8.4638 12.0535 8.46685C12.0384 8.4699 12.0241 8.47895 12.0137 8.49199C12.0033 8.50504 11.9977 8.52101 11.9981 8.53641C11.9986 8.5518 12.005 8.56535 12.0159 8.57408Z" fill="#009B3A"/>
<path d="M8.46094 7.73242L8.43313 7.818L8.47592 7.83191" fill="white"/>
<path d="M8.46094 7.73242L8.48874 7.818L8.44595 7.83191" fill="white"/>
<path d="M8.54492 7.79492H8.45494V7.83992" fill="white"/>
<path d="M8.54492 7.79492L8.47212 7.84781L8.44567 7.81141" fill="white"/>
<path d="M8.375 7.79492L8.4478 7.84781L8.47425 7.81141" fill="white"/>
<path d="M8.375 7.79492H8.46499V7.83992" fill="white"/>
<path d="M8.51367 7.89551L8.48586 7.80993L8.44307 7.82383" fill="white"/>
<path d="M8.51367 7.89551L8.44087 7.84261L8.46732 7.80621" fill="white"/>
<path d="M8.4082 7.89453L8.481 7.84164L8.45456 7.80524" fill="white"/>
<path d="M8.4082 7.89453L8.43601 7.80895L8.4788 7.82285" fill="white"/>
<path d="M8.64648 8.61523L8.61868 8.70082L8.66147 8.71472" fill="white"/>
<path d="M8.64648 8.61523L8.67429 8.70082L8.6315 8.71472" fill="white"/>
<path d="M8.73047 8.67871H8.64048V8.7237" fill="white"/>
<path d="M8.73047 8.67871L8.65767 8.7316L8.63122 8.6952" fill="white"/>
<path d="M8.56055 8.67773L8.63335 8.73063L8.65979 8.69423" fill="white"/>
<path d="M8.56055 8.67773H8.65053V8.72273" fill="white"/>
<path d="M8.69727 8.77832L8.66946 8.69274L8.62667 8.70664" fill="white"/>
<path d="M8.69727 8.77832L8.62446 8.72543L8.65091 8.68903" fill="white"/>
<path d="M8.5918 8.77734L8.6646 8.72445L8.63815 8.68805" fill="white"/>
<path d="M8.5918 8.77734L8.6196 8.69176L8.6624 8.70566" fill="white"/>
<path d="M8.38867 8.81836L8.3655 8.88968L8.40116 8.90126" fill="white"/>
<path d="M8.38867 8.81836L8.41184 8.88968L8.37619 8.90126" fill="white"/>
<path d="M8.46289 8.87012H8.3879V8.90761" fill="white"/>
<path d="M8.46289 8.87012L8.40222 8.91419L8.38018 8.88386" fill="white"/>
<path d="M8.31641 8.87012L8.37707 8.91419L8.39911 8.88386" fill="white"/>
<path d="M8.31641 8.87012H8.3914V8.90761" fill="white"/>
<path d="M8.43359 8.95312L8.41042 8.88181L8.37476 8.89339" fill="white"/>
<path d="M8.43359 8.95312L8.37293 8.90905L8.39497 8.87871" fill="white"/>
<path d="M8.34375 8.95312L8.40442 8.90905L8.38238 8.87871" fill="white"/>
<path d="M8.34375 8.95312L8.36692 8.88181L8.40258 8.89339" fill="white"/>
<path d="M8.85156 8.5332L8.83832 8.57396L8.8587 8.58058" fill="white"/>
<path d="M8.85156 8.5332L8.8648 8.57396L8.84443 8.58058" fill="white"/>
<path d="M8.89258 8.56348H8.84973V8.5849" fill="white"/>
<path d="M8.89258 8.56348L8.85791 8.58866L8.84532 8.57133" fill="white"/>
<path d="M8.81055 8.5625L8.84521 8.58769L8.85781 8.57035" fill="white"/>
<path d="M8.81055 8.5625H8.8534V8.58393" fill="white"/>
<path d="M8.87695 8.61035L8.86371 8.5696L8.84333 8.57622" fill="white"/>
<path d="M8.87695 8.61035L8.84229 8.58516L8.85488 8.56783" fill="white"/>
<path d="M8.82617 8.61133L8.86084 8.58614L8.84825 8.56881" fill="white"/>
<path d="M8.82617 8.61133L8.83941 8.57057L8.85979 8.5772" fill="white"/>
<path d="M9.08398 8.83887L9.06081 8.91019L9.09647 8.92177" fill="white"/>
<path d="M9.08398 8.83887L9.10716 8.91019L9.0715 8.92177" fill="white"/>
<path d="M9.15625 8.89062H9.08126V8.92812" fill="white"/>
<path d="M9.15625 8.89062L9.09558 8.9347L9.07354 8.90437" fill="white"/>
<path d="M9.01367 8.89062L9.07434 8.9347L9.09638 8.90437" fill="white"/>
<path d="M9.01367 8.89062H9.08866V8.92812" fill="white"/>
<path d="M9.12695 8.97559L9.10378 8.90427L9.06812 8.91585" fill="white"/>
<path d="M9.12695 8.97559L9.06629 8.93151L9.08832 8.90117" fill="white"/>
<path d="M9.03711 8.97363L9.09778 8.92956L9.07574 8.89922" fill="white"/>
<path d="M9.03711 8.97363L9.06028 8.90231L9.09594 8.9139" fill="white"/>
<path d="M9.01953 9.06152L9.00099 9.11858L9.02952 9.12785" fill="white"/>
<path d="M9.01953 9.06152L9.03807 9.11858L9.00954 9.12785" fill="white"/>
<path d="M9.07812 9.10352H9.01813V9.13351" fill="white"/>
<path d="M9.07812 9.10352L9.02959 9.13878L9.01196 9.11451" fill="white"/>
<path d="M8.96289 9.10254L9.01142 9.1378L9.02906 9.11353" fill="white"/>
<path d="M8.96289 9.10254H9.02288V9.13253" fill="white"/>
<path d="M9.05664 9.16992L9.0381 9.11287L9.00957 9.12214" fill="white"/>
<path d="M9.05664 9.16992L9.00811 9.13466L9.02574 9.11039" fill="white"/>
<path d="M8.98633 9.16992L9.03486 9.13466L9.01723 9.11039" fill="white"/>
<path d="M8.98633 9.16992L9.00487 9.11287L9.03339 9.12214" fill="white"/>
<path d="M10.8262 7.45801L10.7984 7.54359L10.8412 7.55749" fill="white"/>
<path d="M10.8262 7.45801L10.854 7.54359L10.8112 7.55749" fill="white"/>
<path d="M10.9102 7.52051H10.8202V7.5655" fill="white"/>
<path d="M10.9102 7.52051L10.8374 7.5734L10.8109 7.537" fill="white"/>
<path d="M10.7422 7.51953L10.815 7.57242L10.8414 7.53602" fill="white"/>
<path d="M10.7422 7.51953H10.8322V7.56452" fill="white"/>
<path d="M10.877 7.62109L10.8491 7.53551L10.8064 7.54941" fill="white"/>
<path d="M10.877 7.62109L10.8042 7.5682L10.8306 7.5318" fill="white"/>
<path d="M10.7715 7.62012L10.8443 7.56722L10.8178 7.53082" fill="white"/>
<path d="M10.7715 7.62012L10.7993 7.53453L10.8421 7.54844" fill="white"/>
<path d="M11.6445 8.8457L11.6167 8.93129L11.6595 8.94519" fill="white"/>
<path d="M11.6445 8.8457L11.6723 8.93129L11.6295 8.94519" fill="white"/>
<path d="M11.7305 8.9082H11.6405V8.9532" fill="white"/>
<path d="M11.7305 8.9082L11.6577 8.9611L11.6312 8.9247" fill="white"/>
<path d="M11.5586 8.90723L11.6314 8.96012L11.6578 8.92372" fill="white"/>
<path d="M11.5586 8.90723H11.6486V8.95222" fill="white"/>
<path d="M11.6992 9.00879L11.6714 8.92321L11.6286 8.93711" fill="white"/>
<path d="M11.6992 9.00879L11.6264 8.9559L11.6529 8.9195" fill="white"/>
<path d="M11.5938 9.00781L11.6666 8.95492L11.6401 8.91852" fill="white"/>
<path d="M11.5938 9.00781L11.6216 8.92223L11.6643 8.93613" fill="white"/>
<path d="M11.9395 8.89648L11.9209 8.95354L11.9494 8.96281" fill="white"/>
<path d="M11.9395 8.89648L11.958 8.95354L11.9295 8.96281" fill="white"/>
<path d="M11.9961 8.93848H11.9361V8.96847" fill="white"/>
<path d="M11.9961 8.93848L11.9476 8.97374L11.9299 8.94947" fill="white"/>
<path d="M11.8809 8.9375L11.9294 8.97276L11.947 8.9485" fill="white"/>
<path d="M11.8809 8.9375H11.9409V8.9675" fill="white"/>
<path d="M11.9727 9.00586L11.9541 8.9488L11.9256 8.95807" fill="white"/>
<path d="M11.9727 9.00586L11.9241 8.9706L11.9418 8.94633" fill="white"/>
<path d="M11.9004 9.00488L11.9489 8.96962L11.9313 8.94535" fill="white"/>
<path d="M11.9004 9.00488L11.9189 8.94783L11.9475 8.9571" fill="white"/>
<path d="M11.7324 9.04688L11.7092 9.11819L11.7449 9.12978" fill="white"/>
<path d="M11.7324 9.04688L11.7556 9.11819L11.7199 9.12978" fill="white"/>
<path d="M11.8027 9.09863H11.7277V9.13613" fill="white"/>
<path d="M11.8027 9.09863L11.7421 9.14271L11.72 9.11238" fill="white"/>
<path d="M11.6621 9.09863L11.7228 9.14271L11.7448 9.11238" fill="white"/>
<path d="M11.6621 9.09863H11.7371V9.13613" fill="white"/>
<path d="M11.7773 9.18359L11.7542 9.11227L11.7185 9.12386" fill="white"/>
<path d="M11.7773 9.18359L11.7167 9.13952L11.7387 9.10918" fill="white"/>
<path d="M11.6875 9.18164L11.7482 9.13756L11.7261 9.10723" fill="white"/>
<path d="M11.6875 9.18164L11.7107 9.11032L11.7463 9.12191" fill="white"/>
<path d="M11.2246 9.4873L11.2014 9.55862L11.2371 9.57021" fill="white"/>
<path d="M11.2246 9.4873L11.2478 9.55862L11.2121 9.57021" fill="white"/>
<path d="M11.2988 9.53906H11.2238V9.57656" fill="white"/>
<path d="M11.2988 9.53906L11.2382 9.58314L11.2161 9.55281" fill="white"/>
<path d="M11.1562 9.53906L11.2169 9.58314L11.239 9.55281" fill="white"/>
<path d="M11.1562 9.53906H11.2312V9.57656" fill="white"/>
<path d="M11.2676 9.62402L11.2444 9.5527L11.2087 9.56429" fill="white"/>
<path d="M11.2676 9.62402L11.2069 9.57995L11.2289 9.54961" fill="white"/>
<path d="M11.1797 9.62207L11.2404 9.57799L11.2183 9.54766" fill="white"/>
<path d="M11.1797 9.62207L11.2029 9.55075L11.2385 9.56234" fill="white"/>
<path d="M11.2246 9.71289L11.2061 9.76995L11.2346 9.77921" fill="white"/>
<path d="M11.2246 9.71289L11.2431 9.76995L11.2146 9.77921" fill="white"/>
<path d="M11.2812 9.75488H11.2213V9.78488" fill="white"/>
<path d="M11.2812 9.75488L11.2327 9.79014L11.2151 9.76588" fill="white"/>
<path d="M11.166 9.75391L11.2145 9.78917L11.2322 9.7649" fill="white"/>
<path d="M11.166 9.75391H11.226V9.7839" fill="white"/>
<path d="M11.2578 9.82129L11.2393 9.76423L11.2107 9.7735" fill="white"/>
<path d="M11.2578 9.82129L11.2093 9.78603L11.2269 9.76176" fill="white"/>
<path d="M11.1875 9.82129L11.236 9.78603L11.2184 9.76176" fill="white"/>
<path d="M11.1875 9.82129L11.206 9.76423L11.2346 9.7735" fill="white"/>
<path d="M11.4355 9.33594L11.417 9.39299L11.4455 9.40226" fill="white"/>
<path d="M11.4355 9.33594L11.4541 9.39299L11.4256 9.40226" fill="white"/>
<path d="M11.4922 9.37793H11.4322V9.40793" fill="white"/>
<path d="M11.4922 9.37793L11.4437 9.41319L11.426 9.38892" fill="white"/>
<path d="M11.377 9.37695L11.4255 9.41222L11.4431 9.38795" fill="white"/>
<path d="M11.377 9.37695H11.4369V9.40695" fill="white"/>
<path d="M11.4707 9.44531L11.4522 9.38826L11.4236 9.39753" fill="white"/>
<path d="M11.4707 9.44531L11.4222 9.41005L11.4398 9.38578" fill="white"/>
<path d="M11.3984 9.44434L11.447 9.40907L11.4293 9.38481" fill="white"/>
<path d="M11.3984 9.44434L11.417 9.38728L11.4455 9.39655" fill="white"/>
<path d="M11.6035 9.21582L11.5803 9.28714L11.616 9.29873" fill="white"/>
<path d="M11.6035 9.21582L11.6267 9.28714L11.591 9.29873" fill="white"/>
<path d="M11.6758 9.26758H11.6008V9.30507" fill="white"/>
<path d="M11.6758 9.26758L11.6151 9.31166L11.5931 9.28132" fill="white"/>
<path d="M11.5332 9.26758L11.5939 9.31166L11.6159 9.28132" fill="white"/>
<path d="M11.5332 9.26758H11.6082V9.30507" fill="white"/>
<path d="M11.6465 9.35254L11.6233 9.28122L11.5877 9.29281" fill="white"/>
<path d="M11.6465 9.35254L11.5858 9.30846L11.6079 9.27813" fill="white"/>
<path d="M11.5566 9.35059L11.6173 9.30651L11.5953 9.27617" fill="white"/>
<path d="M11.5566 9.35059L11.5798 9.27927L11.6155 9.29085" fill="white"/>
<path d="M11.2168 9.2959L11.1983 9.35295L11.2268 9.36222" fill="white"/>
<path d="M11.2168 9.2959L11.2353 9.35295L11.2068 9.36222" fill="white"/>
<path d="M11.2734 9.33789H11.2134V9.36789" fill="white"/>
<path d="M11.2734 9.33789L11.2249 9.37315L11.2073 9.34889" fill="white"/>
<path d="M11.1621 9.33691L11.2106 9.37218L11.2283 9.34791" fill="white"/>
<path d="M11.1621 9.33691H11.2221V9.36691" fill="white"/>
<path d="M11.2539 9.4043L11.2354 9.34724L11.2068 9.35651" fill="white"/>
<path d="M11.2539 9.4043L11.2054 9.36903L11.223 9.34477" fill="white"/>
<path d="M11.1816 9.4043L11.2302 9.36903L11.2125 9.34477" fill="white"/>
<path d="M11.1816 9.4043L11.2002 9.34724L11.2287 9.35651" fill="white"/>
<path d="M9.37305 8.20996L9.34987 8.28128L9.38553 8.29287" fill="white"/>
<path d="M9.37305 8.20996L9.39622 8.28128L9.36056 8.29287" fill="white"/>
<path d="M9.44727 8.26172H9.37228V8.29921" fill="white"/>
<path d="M9.44727 8.26172L9.3866 8.3058L9.36456 8.27546" fill="white"/>
<path d="M9.30273 8.26074L9.3634 8.30482L9.38544 8.27449" fill="white"/>
<path d="M9.30273 8.26074H9.37772V8.29824" fill="white"/>
<path d="M9.41992 8.3457L9.39675 8.27438L9.36109 8.28597" fill="white"/>
<path d="M9.41992 8.3457L9.35925 8.30163L9.38129 8.27129" fill="white"/>
<path d="M9.33008 8.34473L9.39075 8.30065L9.36871 8.27032" fill="white"/>
<path d="M9.33008 8.34473L9.35325 8.27341L9.38891 8.28499" fill="white"/>
<path d="M10.7441 8.0332L10.7256 8.09026L10.7541 8.09953" fill="white"/>
<path d="M10.7441 8.0332L10.7627 8.09026L10.7342 8.09953" fill="white"/>
<path d="M10.8027 8.07422H10.7427V8.10421" fill="white"/>
<path d="M10.8027 8.07422L10.7542 8.10948L10.7366 8.08521" fill="white"/>
<path d="M10.6895 8.07422L10.738 8.10948L10.7556 8.08521" fill="white"/>
<path d="M10.6895 8.07422H10.7494V8.10421" fill="white"/>
<path d="M10.7812 8.1416L10.7627 8.08455L10.7342 8.09382" fill="white"/>
<path d="M10.7812 8.1416L10.7327 8.10634L10.7503 8.08207" fill="white"/>
<path d="M10.709 8.1416L10.7575 8.10634L10.7399 8.08207" fill="white"/>
<path d="M10.709 8.1416L10.7275 8.08455L10.7561 8.09382" fill="white"/>
<path d="M10.1738 9.05176L10.146 9.13734L10.1888 9.15124" fill="white"/>
<path d="M10.1738 9.05176L10.2016 9.13734L10.1588 9.15124" fill="white"/>
<path d="M10.2598 9.11426H10.1698V9.15925" fill="white"/>
<path d="M10.2598 9.11426L10.187 9.16715L10.1605 9.13075" fill="white"/>
<path d="M10.0879 9.11328L10.1607 9.16617L10.1871 9.12977" fill="white"/>
<path d="M10.0879 9.11328H10.1779V9.15827" fill="white"/>
<path d="M10.2285 9.21484L10.2007 9.12926L10.1579 9.14316" fill="white"/>
<path d="M10.2285 9.21484L10.1557 9.16195L10.1822 9.12555" fill="white"/>
<path d="M10.1211 9.21387L10.1939 9.16097L10.1674 9.12457" fill="white"/>
<path d="M10.1211 9.21387L10.1489 9.12828L10.1917 9.14219" fill="white"/>
<path d="M10.418 8.64941L10.3948 8.72073L10.4305 8.73232" fill="white"/>
<path d="M10.418 8.64941L10.4411 8.72073L10.4055 8.73232" fill="white"/>
<path d="M10.4883 8.70215H10.4133V8.73964" fill="white"/>
<path d="M10.4883 8.70215L10.4276 8.74623L10.4056 8.71589" fill="white"/>
<path d="M10.3457 8.70117L10.4064 8.74525L10.4284 8.71492" fill="white"/>
<path d="M10.3457 8.70117H10.4207V8.73867" fill="white"/>
<path d="M10.4629 8.78516L10.4397 8.71384L10.4041 8.72542" fill="white"/>
<path d="M10.4629 8.78516L10.4022 8.74108L10.4243 8.71075" fill="white"/>
<path d="M10.375 8.78418L10.4357 8.7401L10.4136 8.70977" fill="white"/>
<path d="M10.375 8.78418L10.3982 8.71286L10.4338 8.72445" fill="white"/>
<path d="M10.1758 8.46094L10.1526 8.53226L10.1883 8.54384" fill="white"/>
<path d="M10.1758 8.46094L10.199 8.53226L10.1633 8.54384" fill="white"/>
<path d="M10.2461 8.5127H10.1711V8.55019" fill="white"/>
<path d="M10.2461 8.5127L10.1854 8.55677L10.1634 8.52644" fill="white"/>
<path d="M10.1055 8.5127L10.1661 8.55677L10.1882 8.52644" fill="white"/>
<path d="M10.1055 8.5127H10.1805V8.55019" fill="white"/>
<path d="M10.2188 8.5957L10.1956 8.52438L10.1599 8.53597" fill="white"/>
<path d="M10.2188 8.5957L10.1581 8.55163L10.1801 8.52129" fill="white"/>
<path d="M10.1309 8.59668L10.1915 8.5526L10.1695 8.52227" fill="white"/>
<path d="M10.1309 8.59668L10.154 8.52536L10.1897 8.53695" fill="white"/>
<path d="M9.96289 8.66504L9.94435 8.72209L9.97288 8.73136" fill="white"/>
<path d="M9.96289 8.66504L9.98143 8.72209L9.9529 8.73136" fill="white"/>
<path d="M10.0195 8.70703H9.95954V8.73703" fill="white"/>
<path d="M10.0195 8.70703L9.971 8.74229L9.95337 8.71803" fill="white"/>
<path d="M9.9082 8.70605L9.95674 8.74132L9.97437 8.71705" fill="white"/>
<path d="M9.9082 8.70605H9.96819V8.73605" fill="white"/>
<path d="M9.99805 8.77441L9.97951 8.71736L9.95098 8.72663" fill="white"/>
<path d="M9.99805 8.77441L9.94951 8.73915L9.96714 8.71489" fill="white"/>
<path d="M9.92773 8.77344L9.97627 8.73818L9.95864 8.71391" fill="white"/>
<path d="M9.92773 8.77344L9.94627 8.71638L9.9748 8.72565" fill="white"/>
<path d="M10.0684 8.82715L10.0551 8.8679L10.0755 8.87452" fill="white"/>
<path d="M10.0684 8.82715L10.0816 8.8679L10.0612 8.87452" fill="white"/>
<path d="M10.1094 8.85645H10.0665V8.87787" fill="white"/>
<path d="M10.1094 8.85645L10.0747 8.88163L10.0621 8.8643" fill="white"/>
<path d="M10.0293 8.85645L10.064 8.88163L10.0766 8.8643" fill="white"/>
<path d="M10.0293 8.85645H10.0721V8.87787" fill="white"/>
<path d="M10.0957 8.9043L10.0825 8.86354L10.0621 8.87016" fill="white"/>
<path d="M10.0957 8.9043L10.061 8.87911L10.0736 8.86178" fill="white"/>
<path d="M10.043 8.90527L10.0776 8.88009L10.065 8.86275" fill="white"/>
<path d="M10.043 8.90527L10.0562 8.86452L10.0766 8.87114" fill="white"/>
<path d="M10.8027 9.53809L10.7796 9.6094L10.8152 9.62099" fill="white"/>
<path d="M10.8027 9.53809L10.8259 9.6094L10.7902 9.62099" fill="white"/>
<path d="M10.877 9.58984H10.802V9.62734" fill="white"/>
<path d="M10.877 9.58984L10.8163 9.63392L10.7942 9.60359" fill="white"/>
<path d="M10.7305 9.59082L10.7911 9.6349L10.8132 9.60456" fill="white"/>
<path d="M10.7305 9.59082H10.8055V9.62831" fill="white"/>
<path d="M10.8457 9.6748L10.8225 9.60349L10.7869 9.61507" fill="white"/>
<path d="M10.8457 9.6748L10.785 9.63073L10.8071 9.60039" fill="white"/>
<path d="M10.7578 9.67383L10.8185 9.62975L10.7964 9.59942" fill="white"/>
<path d="M10.7578 9.67383L10.781 9.60251L10.8166 9.6141" fill="white"/>
<path d="M10.9844 9.36719L10.9658 9.42424L10.9944 9.43351" fill="white"/>
<path d="M10.9844 9.36719L11.0029 9.42424L10.9744 9.43351" fill="white"/>
<path d="M11.041 9.40918H10.981V9.43918" fill="white"/>
<path d="M11.041 9.40918L10.9925 9.44444L10.9749 9.42017" fill="white"/>
<path d="M10.9277 9.4082L10.9763 9.44347L10.9939 9.4192" fill="white"/>
<path d="M10.9277 9.4082H10.9877V9.4382" fill="white"/>
<path d="M11.0195 9.47559L11.001 9.41853L10.9725 9.4278" fill="white"/>
<path d="M11.0195 9.47559L10.971 9.44032L10.9886 9.41606" fill="white"/>
<path d="M10.9473 9.47559L10.9958 9.44032L10.9782 9.41606" fill="white"/>
<path d="M10.9473 9.47559L10.9658 9.41853L10.9943 9.4278" fill="white"/>
<path d="M10.6387 9.31641L10.6201 9.37346L10.6487 9.38273" fill="white"/>
<path d="M10.6387 9.31641L10.6572 9.37346L10.6287 9.38273" fill="white"/>
<path d="M10.6953 9.3584H10.6353V9.38839" fill="white"/>
<path d="M10.6953 9.3584L10.6468 9.39366L10.6291 9.36939" fill="white"/>
<path d="M10.582 9.35742L10.6306 9.39268L10.6482 9.36842" fill="white"/>
<path d="M10.582 9.35742H10.642V9.38742" fill="white"/>
<path d="M10.6738 9.4248L10.6553 9.36775L10.6268 9.37702" fill="white"/>
<path d="M10.6738 9.4248L10.6253 9.38954L10.6429 9.36528" fill="white"/>
<path d="M10.6016 9.42578L10.6501 9.39052L10.6325 9.36625" fill="white"/>
<path d="M10.6016 9.42578L10.6201 9.36873L10.6486 9.378" fill="white"/>
<path d="M9.33203 9.22363L9.30422 9.30922L9.34702 9.32312" fill="white"/>
<path d="M9.33203 9.22363L9.35984 9.30922L9.31705 9.32312" fill="white"/>
<path d="M9.41797 9.28613H9.32798V9.33113" fill="white"/>
<path d="M9.41797 9.28613L9.34517 9.33903L9.31872 9.30263" fill="white"/>
<path d="M9.24609 9.28613L9.31889 9.33903L9.34534 9.30263" fill="white"/>
<path d="M9.24609 9.28613H9.33608V9.33113" fill="white"/>
<path d="M9.38477 9.38672L9.35696 9.30114L9.31417 9.31504" fill="white"/>
<path d="M9.38477 9.38672L9.31196 9.33383L9.33841 9.29743" fill="white"/>
<path d="M9.27734 9.38574L9.35014 9.33285L9.3237 9.29645" fill="white"/>
<path d="M9.27734 9.38574L9.30515 9.30016L9.34794 9.31406" fill="white"/>
<path d="M10.1758 9.81152L10.1665 9.84005L10.1808 9.84469" fill="white"/>
<path d="M10.1758 9.81152L10.1851 9.84005L10.1708 9.84469" fill="white"/>
<path d="M10.2031 9.83203H10.1731V9.84703" fill="white"/>
<path d="M10.2031 9.83203L10.1789 9.84966L10.17 9.83753" fill="white"/>
<path d="M10.1445 9.83203L10.1688 9.84966L10.1776 9.83753" fill="white"/>
<path d="M10.1445 9.83203H10.1745V9.84703" fill="white"/>
<path d="M10.1914 9.86523L10.1821 9.83671L10.1679 9.84134" fill="white"/>
<path d="M10.1914 9.86523L10.1671 9.8476L10.176 9.83547" fill="white"/>
<path d="M10.1562 9.86523L10.1805 9.8476L10.1717 9.83547" fill="white"/>
<path d="M10.1562 9.86523L10.1655 9.83671L10.1798 9.84134" fill="white"/>
</g>
</g>
</g>
<defs>
<filter id="filter0_d_202_3641" x="0.626437" y="0.0593873" width="19.3448" height="19.3448" filterUnits="userSpaceOnUse" color-interpolation-filters="sRGB">
<feFlood flood-opacity="0" result="BackgroundImageFix"/>
<feColorMatrix in="SourceAlpha" type="matrix" values="0 0 0 0 0 0 0 0 0 0 0 0 0 0 0 0 0 0 127 0" result="hardAlpha"/>
<feOffset dy="1.43295"/>
<feGaussianBlur stdDeviation="2.68678"/>
<feComposite in2="hardAlpha" operator="out"/>
<feColorMatrix type="matrix" values="0 0 0 0 0 0 0 0 0 0 0 0 0 0 0 0 0 0 0.05 0"/>
<feBlend mode="normal" in2="BackgroundImageFix" result="effect1_dropShadow_202_3641"/>
<feBlend mode="normal" in="SourceGraphic" in2="effect1_dropShadow_202_3641" result="shape"/>
</filter>
<clipPath id="clip0_202_3641">
<path d="M14.5977 8.29885C14.5977 5.92466 12.673 4 10.2988 4C7.92462 4 5.99996 5.92466 5.99996 8.29885C5.99996 10.673 7.92462 12.5977 10.2988 12.5977C12.673 12.5977 14.5977 10.673 14.5977 8.29885Z" fill="white"/>
</clipPath>
<clipPath id="clip1_202_3641">
<rect width="11.9982" height="8.39877" fill="white" transform="translate(4.17578 4)"/>
</clipPath>
</defs>
</svg>
