<svg width="178" height="97" viewBox="0 0 178 97" fill="none" xmlns="http://www.w3.org/2000/svg">
<g filter="url(#filter0_d_3497_2196)">
<path d="M30.5 47C30.5 37.0589 38.5589 29 48.5 29H129.5C139.441 29 147.5 37.0589 147.5 47C147.5 56.9411 139.441 65 129.5 65H48.5C38.5589 65 30.5 56.9411 30.5 47Z" fill="white" shape-rendering="crispEdges"/>
<g filter="url(#filter1_d_3497_2196)">
<g clip-path="url(#clip0_3497_2196)">
<path d="M62.5 47C62.5 40.3726 57.1274 35 50.5 35C43.8726 35 38.5 40.3726 38.5 47C38.5 53.6274 43.8726 59 50.5 59C57.1274 59 62.5 53.6274 62.5 47Z" fill="black" fill-opacity="0.2" shape-rendering="crispEdges"/>
<g clip-path="url(#clip1_3497_2196)">
<path fill-rule="evenodd" clip-rule="evenodd" d="M31.1797 35H70.8171V58.9673H31.1797V35Z" fill="#CC2229"/>
<path fill-rule="evenodd" clip-rule="evenodd" d="M31.1797 35H70.8171V43.0332H31.1797V35Z" fill="#03040A"/>
<path fill-rule="evenodd" clip-rule="evenodd" d="M31.1797 51.0796H70.8171V58.9543H31.1797V51.0796Z" fill="#F2CA30" stroke="#F2CA30" stroke-width="0.0915702" stroke-miterlimit="2.613"/>
</g>
</g>
</g>
<path d="M73.748 45.08C73.46 44.5253 73.06 44.1093 72.548 43.832C72.036 43.544 71.444 43.4 70.772 43.4C70.036 43.4 69.38 43.5653 68.804 43.896C68.228 44.2267 67.7747 44.696 67.444 45.304C67.124 45.912 66.964 46.616 66.964 47.416C66.964 48.216 67.124 48.9253 67.444 49.544C67.7747 50.152 68.228 50.6213 68.804 50.952C69.38 51.2827 70.036 51.448 70.772 51.448C71.764 51.448 72.5693 51.1707 73.188 50.616C73.8067 50.0613 74.1853 49.3093 74.324 48.36H70.148V46.904H76.276V48.328C76.1587 49.192 75.8493 49.9867 75.348 50.712C74.8573 51.4373 74.212 52.0187 73.412 52.456C72.6227 52.8827 71.7427 53.096 70.772 53.096C69.7267 53.096 68.772 52.856 67.908 52.376C67.044 51.8853 66.356 51.208 65.844 50.344C65.3427 49.48 65.092 48.504 65.092 47.416C65.092 46.328 65.3427 45.352 65.844 44.488C66.356 43.624 67.044 42.952 67.908 42.472C68.7827 41.9813 69.7373 41.736 70.772 41.736C71.956 41.736 73.0067 42.0293 73.924 42.616C74.852 43.192 75.524 44.0133 75.94 45.08H73.748ZM86.027 48.376C86.027 48.7067 86.0057 49.0053 85.963 49.272H79.227C79.2803 49.976 79.5417 50.5413 80.011 50.968C80.4803 51.3947 81.0563 51.608 81.739 51.608C82.7203 51.608 83.4137 51.1973 83.819 50.376H85.787C85.5203 51.1867 85.035 51.8533 84.331 52.376C83.6377 52.888 82.7737 53.144 81.739 53.144C80.8963 53.144 80.139 52.9573 79.467 52.584C78.8057 52.2 78.283 51.6667 77.899 50.984C77.5257 50.2907 77.339 49.4907 77.339 48.584C77.339 47.6773 77.5203 46.8827 77.883 46.2C78.2563 45.5067 78.7737 44.9733 79.435 44.6C80.107 44.2267 80.875 44.04 81.739 44.04C82.571 44.04 83.3123 44.2213 83.963 44.584C84.6137 44.9467 85.1203 45.4587 85.483 46.12C85.8457 46.7707 86.027 47.5227 86.027 48.376ZM84.123 47.8C84.1123 47.128 83.8723 46.5893 83.403 46.184C82.9337 45.7787 82.3523 45.576 81.659 45.576C81.0297 45.576 80.491 45.7787 80.043 46.184C79.595 46.5787 79.3283 47.1173 79.243 47.8H84.123ZM89.518 45.464C89.7847 45.016 90.1367 44.6693 90.574 44.424C91.022 44.168 91.55 44.04 92.158 44.04V45.928H91.694C90.9793 45.928 90.4353 46.1093 90.062 46.472C89.6993 46.8347 89.518 47.464 89.518 48.36V53H87.694V44.184H89.518V45.464ZM104.379 44.04C105.072 44.04 105.691 44.184 106.235 44.472C106.789 44.76 107.221 45.1867 107.531 45.752C107.851 46.3173 108.011 47 108.011 47.8V53H106.203V48.072C106.203 47.2827 106.005 46.68 105.611 46.264C105.216 45.8373 104.677 45.624 103.995 45.624C103.312 45.624 102.768 45.8373 102.363 46.264C101.968 46.68 101.771 47.2827 101.771 48.072V53H99.9626V48.072C99.9626 47.2827 99.7653 46.68 99.3706 46.264C98.976 45.8373 98.4373 45.624 97.7546 45.624C97.072 45.624 96.528 45.8373 96.1226 46.264C95.728 46.68 95.5306 47.2827 95.5306 48.072V53H93.7066V44.184H95.5306V45.192C95.8293 44.8293 96.208 44.5467 96.6666 44.344C97.1253 44.1413 97.616 44.04 98.1386 44.04C98.8426 44.04 99.472 44.1893 100.027 44.488C100.581 44.7867 101.008 45.2187 101.307 45.784C101.573 45.2507 101.989 44.8293 102.555 44.52C103.12 44.2 103.728 44.04 104.379 44.04ZM109.596 48.552C109.596 47.6667 109.777 46.8827 110.14 46.2C110.513 45.5173 111.014 44.9893 111.644 44.616C112.284 44.232 112.988 44.04 113.756 44.04C114.449 44.04 115.052 44.1787 115.564 44.456C116.086 44.7227 116.502 45.0587 116.812 45.464V44.184H118.652V53H116.812V51.688C116.502 52.104 116.081 52.4507 115.548 52.728C115.014 53.0053 114.406 53.144 113.724 53.144C112.966 53.144 112.273 52.952 111.644 52.568C111.014 52.1733 110.513 51.6293 110.14 50.936C109.777 50.232 109.596 49.4373 109.596 48.552ZM116.812 48.584C116.812 47.976 116.684 47.448 116.428 47C116.182 46.552 115.857 46.2107 115.452 45.976C115.046 45.7413 114.609 45.624 114.14 45.624C113.67 45.624 113.233 45.7413 112.828 45.976C112.422 46.2 112.092 46.536 111.836 46.984C111.59 47.4213 111.468 47.944 111.468 48.552C111.468 49.16 111.59 49.6933 111.836 50.152C112.092 50.6107 112.422 50.9627 112.828 51.208C113.244 51.4427 113.681 51.56 114.14 51.56C114.609 51.56 115.046 51.4427 115.452 51.208C115.857 50.9733 116.182 50.632 116.428 50.184C116.684 49.7253 116.812 49.192 116.812 48.584ZM125.367 44.04C126.061 44.04 126.679 44.184 127.223 44.472C127.778 44.76 128.21 45.1867 128.519 45.752C128.829 46.3173 128.983 47 128.983 47.8V53H127.175V48.072C127.175 47.2827 126.978 46.68 126.583 46.264C126.189 45.8373 125.65 45.624 124.967 45.624C124.285 45.624 123.741 45.8373 123.335 46.264C122.941 46.68 122.743 47.2827 122.743 48.072V53H120.919V44.184H122.743V45.192C123.042 44.8293 123.421 44.5467 123.879 44.344C124.349 44.1413 124.845 44.04 125.367 44.04ZM139.118 44.184L133.71 57.144H131.822L133.614 52.856L130.142 44.184H132.174L134.654 50.904L137.23 44.184H139.118Z" fill="#050810"/>
</g>
<circle cx="89" cy="77.5" r="4.5" fill="#A9FF97"/>
<defs>
<filter id="filter0_d_3497_2196" x="0.5" y="0.632791" width="177" height="96" filterUnits="userSpaceOnUse" color-interpolation-filters="sRGB">
<feFlood flood-opacity="0" result="BackgroundImageFix"/>
<feColorMatrix in="SourceAlpha" type="matrix" values="0 0 0 0 0 0 0 0 0 0 0 0 0 0 0 0 0 0 127 0" result="hardAlpha"/>
<feOffset dy="1.63279"/>
<feGaussianBlur stdDeviation="15"/>
<feComposite in2="hardAlpha" operator="out"/>
<feColorMatrix type="matrix" values="0 0 0 0 0 0 0 0 0 0 0 0 0 0 0 0 0 0 0.06 0"/>
<feBlend mode="normal" in2="BackgroundImageFix" result="effect1_dropShadow_3497_2196"/>
<feBlend mode="normal" in="SourceGraphic" in2="effect1_dropShadow_3497_2196" result="shape"/>
</filter>
<filter id="filter1_d_3497_2196" x="23.5" y="24" width="54" height="54" filterUnits="userSpaceOnUse" color-interpolation-filters="sRGB">
<feFlood flood-opacity="0" result="BackgroundImageFix"/>
<feColorMatrix in="SourceAlpha" type="matrix" values="0 0 0 0 0 0 0 0 0 0 0 0 0 0 0 0 0 0 127 0" result="hardAlpha"/>
<feOffset dy="4"/>
<feGaussianBlur stdDeviation="7.5"/>
<feComposite in2="hardAlpha" operator="out"/>
<feColorMatrix type="matrix" values="0 0 0 0 0 0 0 0 0 0 0 0 0 0 0 0 0 0 0.05 0"/>
<feBlend mode="normal" in2="BackgroundImageFix" result="effect1_dropShadow_3497_2196"/>
<feBlend mode="normal" in="SourceGraphic" in2="effect1_dropShadow_3497_2196" result="shape"/>
</filter>
<clipPath id="clip0_3497_2196">
<path d="M62.5 47C62.5 40.3726 57.1274 35 50.5 35C43.8726 35 38.5 40.3726 38.5 47C38.5 53.6274 43.8726 59 50.5 59C57.1274 59 62.5 53.6274 62.5 47Z" fill="white"/>
</clipPath>
<clipPath id="clip1_3497_2196">
<rect width="39.7351" height="24" fill="white" transform="translate(31.1328 35)"/>
</clipPath>
</defs>
</svg>
