<svg width="50" height="30" viewBox="0 0 50 30" fill="none" xmlns="http://www.w3.org/2000/svg">
<g filter="url(#filter0_d_202_3516)">
<path d="M11.6152 11.8223C11.6152 8.26102 14.5022 5.37402 18.0635 5.37402H32.393C35.9543 5.37402 38.8413 8.26102 38.8413 11.8223C38.8413 15.3836 35.9543 18.2706 32.393 18.2706H18.0635C14.5022 18.2706 11.6152 15.3836 11.6152 11.8223Z" fill="white" shape-rendering="crispEdges"/>
<g filter="url(#filter1_d_202_3516)">
<g clip-path="url(#clip0_202_3516)">
<path d="M23.0781 11.8223C23.0781 9.4481 21.1535 7.52344 18.7793 7.52344C16.4051 7.52344 14.4804 9.4481 14.4804 11.8223C14.4804 14.1965 16.4051 16.1211 18.7793 16.1211C21.1535 16.1211 23.0781 14.1965 23.0781 11.8223Z" fill="black" fill-opacity="0.2" shape-rendering="crispEdges"/>
<g clip-path="url(#clip1_202_3516)">
<path fill-rule="evenodd" clip-rule="evenodd" d="M12.0801 7.52832H25.485V15.76H12.0801V7.52832Z" fill="white"/>
<path fill-rule="evenodd" clip-rule="evenodd" d="M12.0801 15.1608H25.4805V15.76H12.0801V15.1608ZM12.0801 13.9402H25.4805V14.5392H12.0801V13.9402ZM12.0801 12.6569H25.4805V13.2605H12.0801V12.6569ZM12.0801 11.3826H25.4805V11.9773H12.0801V11.3826ZM12.0801 10.1038H25.4805V10.7029H12.0801V10.1038ZM12.0801 8.825H25.4805V9.42415H12.0801V8.825ZM12.0801 7.52832H25.4805V8.14536H12.0801V7.52832Z" fill="#CC2229"/>
<path fill-rule="evenodd" clip-rule="evenodd" d="M12.0703 7.52344H17.2257V11.9813H12.0703V7.52344Z" fill="#33348E"/>
<path d="M12.0801 7.52832H25.485V15.76H12.0801V7.52832Z" stroke="black" stroke-width="0.00670694" stroke-miterlimit="2.613"/>
<path fill-rule="evenodd" clip-rule="evenodd" d="M12.4421 8.10508L12.6031 8.23475L12.5271 8.04248L12.7059 7.93517H12.4958L12.4376 7.72949L12.3795 7.9307H12.1738L12.3482 8.03801L12.2811 8.23475L12.4421 8.10508ZM12.8848 8.54774L13.0457 8.67741L12.9742 8.48514L13.1486 8.37783H12.9384L12.8848 8.17662L12.8266 8.37336H12.6165L12.7953 8.48067L12.7238 8.67741L12.8848 8.54774ZM12.4421 8.9904L12.6031 9.12006L12.5271 8.9278L12.7059 8.82049H12.4958L12.4376 8.61928L12.3795 8.81602H12.1738L12.3482 8.92333L12.2811 9.12006L12.4421 8.9904ZM12.8848 9.43753L13.0457 9.56272L12.9742 9.37046L13.1486 9.26315H12.9384L12.8848 9.06194L12.8266 9.25867H12.6165L12.7953 9.37046L12.7238 9.56272L12.8848 9.43753ZM12.4421 9.88018L12.6031 10.0054L12.5271 9.81311L12.7059 9.7058H12.4958L12.4376 9.5046L12.3795 9.70133H12.1738L12.3482 9.80871L12.2811 10.0054L12.4421 9.88018ZM12.8848 10.3228L13.0457 10.448L12.9742 10.2558L13.1486 10.1485H12.9384L12.8848 9.94725L12.8266 10.1485H12.6165L12.7953 10.2558L12.7238 10.448L12.8848 10.3228ZM12.4421 10.7655L12.6031 10.8907L12.5271 10.6984L12.7059 10.5911H12.4958L12.4376 10.3899L12.3795 10.5866H12.1738L12.3482 10.6984L12.2811 10.8907L12.4421 10.7655ZM12.8848 11.2082L13.0457 11.3378L12.9742 11.1456L13.1486 11.0338H12.9384L12.8848 10.8326L12.8266 11.0338H12.6165L12.7953 11.1412L12.7238 11.3379L12.8848 11.2082ZM12.4421 11.6463L12.6031 11.7715L12.5271 11.5882L12.7059 11.4764H12.4958L12.4376 11.2752L12.3795 11.4764H12.1738L12.3482 11.5838L12.2811 11.7715L12.4421 11.6463ZM13.3274 8.10508L13.4884 8.23475L13.4168 8.04248L13.5912 7.93517H13.3811L13.323 7.72949L13.2693 7.9307H13.0591L13.238 8.03801L13.1665 8.23475L13.3274 8.10508ZM13.7701 8.54774L13.931 8.67741L13.8595 8.48508L14.0339 8.37777H13.8237L13.7701 8.17656L13.712 8.3733H13.5018L13.6807 8.48061L13.6091 8.67734L13.7701 8.54774ZM13.3274 8.9904L13.4884 9.12006L13.4168 8.9278L13.5912 8.82049H13.3811L13.323 8.61928L13.2693 8.81602H13.0591L13.238 8.92333L13.1665 9.12006L13.3274 8.9904ZM13.7701 9.43753L13.931 9.56272L13.8595 9.37046L14.0339 9.26315H13.8237L13.7701 9.06194L13.712 9.25867H13.5018L13.6807 9.37046L13.6091 9.56272L13.7701 9.43753ZM13.3274 9.88018L13.4884 10.0054L13.4168 9.81311L13.5912 9.7058H13.3811L13.323 9.5046L13.2693 9.70133H13.0591L13.238 9.80871L13.1665 10.0054L13.3274 9.88018ZM13.7701 10.3228L13.931 10.448L13.8595 10.2558L14.0339 10.1485H13.8237L13.7701 9.94725L13.712 10.1485H13.5018L13.6807 10.2558L13.6091 10.448L13.7701 10.3228ZM13.3274 10.7655L13.4884 10.8907L13.4168 10.6984L13.5912 10.5911H13.3811L13.323 10.3899L13.2693 10.5866H13.0591L13.238 10.6984L13.1665 10.8907L13.3274 10.7655ZM13.7701 11.2082L13.931 11.3378L13.8595 11.1456L14.0339 11.0338H13.8237L13.7701 10.8326L13.712 11.0338H13.5018L13.6807 11.1412L13.6091 11.3379L13.7701 11.2082ZM13.3274 11.6463L13.4884 11.7715L13.4168 11.5882L13.5912 11.4764H13.3811L13.323 11.2752L13.2693 11.4764H13.0591L13.238 11.5838L13.1665 11.7715L13.3274 11.6463ZM14.2127 8.10508L14.3737 8.23475L14.3022 8.04248L14.4765 7.93517H14.2664L14.2127 7.72949L14.1546 7.9307H13.9445L14.1233 8.03801L14.0518 8.23475L14.2127 8.10508ZM14.6554 8.54774L14.8164 8.67741L14.7448 8.48514L14.9192 8.37783H14.7091L14.6554 8.17662L14.5973 8.37336H14.3871L14.566 8.48067L14.4989 8.67741L14.6554 8.54774ZM14.2127 8.9904L14.3737 9.12006L14.3022 8.9278L14.4765 8.82049H14.2664L14.2127 8.61928L14.1546 8.81602H13.9445L14.1233 8.92333L14.0518 9.12006L14.2127 8.9904ZM14.6554 9.43753L14.8164 9.56272L14.7448 9.37046L14.9192 9.26315H14.7091L14.6554 9.06194L14.5973 9.25867H14.3871L14.566 9.37046L14.4989 9.56272L14.6554 9.43753ZM14.2127 9.88018L14.3737 10.0054L14.3022 9.81311L14.4765 9.7058H14.2664L14.2127 9.5046L14.1546 9.70133H13.9445L14.1233 9.80871L14.0518 10.0054L14.2127 9.88018ZM14.6554 10.3228L14.8164 10.448L14.7448 10.2558L14.9192 10.1485H14.7091L14.6554 9.94725L14.5973 10.1485H14.3871L14.566 10.2558L14.4989 10.448L14.6554 10.3228ZM14.2127 10.7655L14.3737 10.8907L14.3022 10.6984L14.4765 10.5911H14.2664L14.2127 10.3899L14.1546 10.5866H13.9445L14.1233 10.6984L14.0518 10.8907L14.2127 10.7655ZM14.6554 11.2082L14.8164 11.3378L14.7448 11.1456L14.9192 11.0338H14.7091L14.6554 10.8326L14.5973 11.0338H14.3871L14.566 11.1412L14.4989 11.3379L14.6554 11.2082ZM14.2127 11.6463L14.3737 11.7715L14.3022 11.5882L14.4765 11.4764H14.2664L14.2127 11.2752L14.1546 11.4764H13.9445L14.1233 11.5838L14.0518 11.7715L14.2127 11.6463ZM15.0981 8.10508L15.259 8.23475L15.1875 8.04248L15.3619 7.93517H15.1517L15.0981 7.72949L15.0399 7.9307H14.8298L15.0086 8.03801L14.9416 8.23475L15.0981 8.10508ZM15.5407 8.54774L15.7061 8.67741L15.6301 8.48514L15.8045 8.37783H15.5988L15.5407 8.17662L15.4826 8.37336H15.2769L15.4513 8.48067L15.3842 8.67741L15.5407 8.54774ZM15.0981 8.9904L15.259 9.12006L15.1875 8.9278L15.3619 8.82049H15.1517L15.0981 8.61928L15.0399 8.81602H14.8298L15.0086 8.92333L14.9416 9.12006L15.0981 8.9904ZM15.5407 9.43753L15.7061 9.56272L15.6301 9.37046L15.8045 9.26315H15.5988L15.5407 9.06194L15.4826 9.25867H15.2769L15.4513 9.37046L15.3842 9.56272L15.5407 9.43753ZM15.0981 9.88018L15.259 10.0054L15.1875 9.81311L15.3619 9.7058H15.1517L15.0981 9.5046L15.0399 9.70133H14.8298L15.0086 9.80871L14.9416 10.0054L15.0981 9.88018ZM15.5407 10.3228L15.7061 10.448L15.6301 10.2558L15.8045 10.1485H15.5988L15.5407 9.94725L15.4826 10.1485H15.2769L15.4513 10.2558L15.3842 10.448L15.5407 10.3228ZM15.0981 10.7655L15.259 10.8907L15.1875 10.6984L15.3619 10.5911H15.1517L15.0981 10.3899L15.0399 10.5866H14.8298L15.0086 10.6984L14.9416 10.8907L15.0981 10.7655ZM15.5407 11.2082L15.7061 11.3378L15.6301 11.1456L15.8045 11.0338H15.5988L15.5407 10.8326L15.4826 11.0338H15.2769L15.4513 11.1412L15.3842 11.3379L15.5407 11.2082ZM15.0981 11.6463L15.259 11.7715L15.1875 11.5882L15.3619 11.4764H15.1517L15.0981 11.2752L15.0399 11.4764H14.8298L15.0086 11.5838L14.9416 11.7715L15.0981 11.6463ZM15.9834 8.10508L16.1488 8.23475L16.0728 8.04248L16.2472 7.93517H16.0415L15.9834 7.72949L15.9252 7.9307H15.7196L15.8939 8.03801L15.8269 8.23475L15.9834 8.10508ZM16.426 8.54774L16.587 8.67741L16.5155 8.48514L16.6898 8.37783H16.4842L16.426 8.17662L16.3679 8.37336H16.1622L16.3366 8.48067L16.2695 8.67741L16.426 8.54774ZM15.9834 8.9904L16.1488 9.12006L16.0728 8.9278L16.2472 8.82049H16.0415L15.9834 8.61928L15.9252 8.81602H15.7196L15.8939 8.92333L15.8269 9.12006L15.9834 8.9904ZM16.426 9.43753L16.587 9.56272L16.5155 9.37046L16.6898 9.26315H16.4842L16.426 9.06194L16.3679 9.25867H16.1622L16.3366 9.37046L16.2695 9.56272L16.426 9.43753ZM15.9834 9.88018L16.1488 10.0054L16.0728 9.81311L16.2472 9.7058H16.0415L15.9834 9.5046L15.9252 9.70133H15.7196L15.8939 9.80871L15.8269 10.0054L15.9834 9.88018ZM16.426 10.3228L16.587 10.448L16.5155 10.2558L16.6898 10.1485H16.4842L16.426 9.94725L16.3679 10.1485H16.1622L16.3366 10.2558L16.2695 10.448L16.426 10.3228ZM15.9834 10.7655L16.1488 10.8907L16.0728 10.6984L16.2472 10.5911H16.0415L15.9834 10.3899L15.9252 10.5866H15.7196L15.8939 10.6984L15.8269 10.8907L15.9834 10.7655ZM16.426 11.2082L16.587 11.3378L16.5155 11.1456L16.6898 11.0338H16.4842L16.426 10.8326L16.3679 11.0338H16.1622L16.3366 11.1412L16.2695 11.3379L16.426 11.2082ZM15.9834 11.6463L16.1488 11.7715L16.0728 11.5882L16.2472 11.4764H16.0415L15.9834 11.2752L15.9252 11.4764H15.7196L15.8939 11.5838L15.8269 11.7715L15.9834 11.6463ZM16.8687 8.10508L17.0297 8.23475L16.9581 8.04248L17.1325 7.93517H16.9223L16.8687 7.72949L16.8106 7.9307H16.6004L16.7793 8.03801L16.7077 8.23475L16.8687 8.10508ZM16.8687 8.9904L17.0297 9.12006L16.9581 8.9278L17.1325 8.82049H16.9223L16.8687 8.61928L16.8106 8.81602H16.6004L16.7793 8.92333L16.7077 9.12006L16.8687 8.9904ZM16.8687 9.88018L17.0297 10.0054L16.9581 9.81311L17.1325 9.7058H16.9223L16.8687 9.5046L16.8106 9.70133H16.6004L16.7793 9.80871L16.7077 10.0054L16.8687 9.88018ZM16.8687 10.7655L17.0297 10.8907L16.9581 10.6984L17.1325 10.5911H16.9223L16.8687 10.3899L16.8106 10.5866H16.6004L16.7793 10.6984L16.7077 10.8907L16.8687 10.7655ZM16.8687 11.6463L17.0297 11.7715L16.9581 11.5882L17.1325 11.4764H16.9223L16.8687 11.2752L16.8106 11.4764H16.6004L16.7793 11.5838L16.7077 11.7715L16.8687 11.6463Z" fill="white"/>
</g>
</g>
</g>
<path d="M26.9336 10.1537H27.5646V12.8954C27.5646 13.1872 27.496 13.4457 27.359 13.6709C27.2219 13.8948 27.0292 14.0712 26.7809 14.2001C26.5326 14.3277 26.2415 14.3915 25.9077 14.3915C25.5753 14.3915 25.2849 14.3277 25.0365 14.2001C24.7882 14.0712 24.5955 13.8948 24.4585 13.6709C24.3214 13.4457 24.2529 13.1872 24.2529 12.8954V10.1537H24.8818V12.8445C24.8818 13.0332 24.9232 13.2007 25.006 13.3473C25.0901 13.4938 25.2089 13.6092 25.3622 13.6933C25.5155 13.7761 25.6974 13.8175 25.9077 13.8175C26.1194 13.8175 26.3019 13.7761 26.4552 13.6933C26.6099 13.6092 26.728 13.4938 26.8094 13.3473C26.8922 13.2007 26.9336 13.0332 26.9336 12.8445V10.1537ZM30.7182 11.2488C30.6965 11.0561 30.6069 10.9068 30.4495 10.801C30.2921 10.6938 30.094 10.6402 29.8551 10.6402C29.6842 10.6402 29.5363 10.6673 29.4114 10.7216C29.2866 10.7745 29.1896 10.8478 29.1204 10.9414C29.0525 11.0337 29.0186 11.1388 29.0186 11.2569C29.0186 11.356 29.0417 11.4414 29.0878 11.5134C29.1353 11.5853 29.197 11.6457 29.273 11.6945C29.3504 11.742 29.4331 11.782 29.5213 11.8146C29.6095 11.8458 29.6943 11.8716 29.7758 11.8919L30.1829 11.9978C30.3158 12.0304 30.4522 12.0745 30.592 12.1301C30.7317 12.1857 30.8613 12.259 30.9807 12.3499C31.1002 12.4408 31.1965 12.5535 31.2698 12.6878C31.3444 12.8221 31.3817 12.9829 31.3817 13.1702C31.3817 13.4063 31.3207 13.616 31.1985 13.7992C31.0778 13.9823 30.902 14.1269 30.6714 14.2327C30.442 14.3385 30.1645 14.3915 29.8389 14.3915C29.5268 14.3915 29.2567 14.3419 29.0288 14.2429C28.8008 14.1438 28.6224 14.0034 28.4934 13.8215C28.3645 13.6384 28.2933 13.4212 28.2797 13.1702H28.9107C28.9229 13.3208 28.9718 13.4463 29.0573 13.5468C29.1441 13.6458 29.2547 13.7198 29.389 13.7686C29.5247 13.8161 29.6733 13.8399 29.8348 13.8399C30.0126 13.8399 30.1706 13.812 30.3091 13.7564C30.4488 13.6994 30.5587 13.6207 30.6388 13.5203C30.7189 13.4185 30.7589 13.2998 30.7589 13.1641C30.7589 13.0406 30.7236 12.9395 30.653 12.8608C30.5838 12.7821 30.4895 12.717 30.3701 12.6654C30.2521 12.6139 30.1184 12.5684 29.9691 12.529L29.4766 12.3947C29.1427 12.3038 28.8781 12.1701 28.6827 11.9937C28.4887 11.8173 28.3917 11.5839 28.3917 11.2935C28.3917 11.0533 28.4568 10.8437 28.5871 10.6646C28.7173 10.4855 28.8937 10.3464 29.1163 10.2473C29.3388 10.1469 29.5899 10.0967 29.8694 10.0967C30.1516 10.0967 30.4006 10.1462 30.6164 10.2453C30.8335 10.3443 31.0045 10.4807 31.1293 10.6544C31.2542 10.8267 31.3193 11.0249 31.3247 11.2488H30.7182ZM32.4175 14.3223H31.7498L33.25 10.1537H33.9766L35.4767 14.3223H34.8091L33.6306 10.9109H33.598L32.4175 14.3223ZM32.5294 12.6898H34.6951V13.2191H32.5294V12.6898Z" fill="#050810"/>
</g>
<defs>
<filter id="filter0_d_202_3516" x="0.868109" y="-4.78818" width="48.7208" height="34.3907" filterUnits="userSpaceOnUse" color-interpolation-filters="sRGB">
<feFlood flood-opacity="0" result="BackgroundImageFix"/>
<feColorMatrix in="SourceAlpha" type="matrix" values="0 0 0 0 0 0 0 0 0 0 0 0 0 0 0 0 0 0 127 0" result="hardAlpha"/>
<feOffset dy="0.584927"/>
<feGaussianBlur stdDeviation="5.37356"/>
<feComposite in2="hardAlpha" operator="out"/>
<feColorMatrix type="matrix" values="0 0 0 0 0 0 0 0 0 0 0 0 0 0 0 0 0 0 0.06 0"/>
<feBlend mode="normal" in2="BackgroundImageFix" result="effect1_dropShadow_202_3516"/>
<feBlend mode="normal" in="SourceGraphic" in2="effect1_dropShadow_202_3516" result="shape"/>
</filter>
<filter id="filter1_d_202_3516" x="9.10691" y="3.58282" width="19.3448" height="19.3448" filterUnits="userSpaceOnUse" color-interpolation-filters="sRGB">
<feFlood flood-opacity="0" result="BackgroundImageFix"/>
<feColorMatrix in="SourceAlpha" type="matrix" values="0 0 0 0 0 0 0 0 0 0 0 0 0 0 0 0 0 0 127 0" result="hardAlpha"/>
<feOffset dy="1.43295"/>
<feGaussianBlur stdDeviation="2.68678"/>
<feComposite in2="hardAlpha" operator="out"/>
<feColorMatrix type="matrix" values="0 0 0 0 0 0 0 0 0 0 0 0 0 0 0 0 0 0 0.05 0"/>
<feBlend mode="normal" in2="BackgroundImageFix" result="effect1_dropShadow_202_3516"/>
<feBlend mode="normal" in="SourceGraphic" in2="effect1_dropShadow_202_3516" result="shape"/>
</filter>
<clipPath id="clip0_202_3516">
<path d="M23.0781 11.8223C23.0781 9.4481 21.1535 7.52344 18.7793 7.52344C16.4051 7.52344 14.4804 9.4481 14.4804 11.8223C14.4804 14.1965 16.4051 16.1211 18.7793 16.1211C21.1535 16.1211 23.0781 14.1965 23.0781 11.8223Z" fill="white"/>
</clipPath>
<clipPath id="clip1_202_3516">
<rect width="13.4193" height="8.23947" fill="white" transform="translate(12.0703 7.52344)"/>
</clipPath>
</defs>
</svg>
