<svg width="63" height="36" viewBox="0 0 63 36" fill="none" xmlns="http://www.w3.org/2000/svg">
<g filter="url(#filter0_d_202_3506)">
<path d="M11.5254 17.2608C11.5254 13.6995 14.4124 10.8125 17.9737 10.8125H45.1231C48.6844 10.8125 51.5714 13.6995 51.5714 17.2608C51.5714 20.8221 48.6844 23.7091 45.1231 23.7091H17.9737C14.4124 23.7091 11.5254 20.8221 11.5254 17.2608Z" fill="white" shape-rendering="crispEdges"/>
<g filter="url(#filter1_d_202_3506)">
<g clip-path="url(#clip0_202_3506)">
<path d="M22.9883 17.2608C22.9883 14.8866 21.0636 12.9619 18.6894 12.9619C16.3152 12.9619 14.3906 14.8866 14.3906 17.2608C14.3906 19.635 16.3152 21.5596 18.6894 21.5596C21.0636 21.5596 22.9883 19.635 22.9883 17.2608Z" fill="black" fill-opacity="0.2" shape-rendering="crispEdges"/>
<g clip-path="url(#clip1_202_3506)">
<path fill-rule="evenodd" clip-rule="evenodd" d="M11.7695 12.9619H25.9691V21.5479H11.7695V12.9619Z" fill="#CC2229"/>
<path fill-rule="evenodd" clip-rule="evenodd" d="M11.7695 12.9619H25.9691V15.8397H11.7695V12.9619Z" fill="black"/>
<path fill-rule="evenodd" clip-rule="evenodd" d="M11.7695 18.7217H25.9691V21.5427H11.7695V18.7217Z" fill="#F2CA30" stroke="#F2CA30" stroke-width="0.0328039" stroke-miterlimit="2.613"/>
</g>
</g>
</g>
<path d="M26.9842 16.9091C26.9448 16.7856 26.8919 16.675 26.8254 16.5773C26.7603 16.4783 26.6822 16.3941 26.5913 16.3249C26.5004 16.2544 26.3966 16.2008 26.2799 16.1641C26.1646 16.1275 26.0377 16.1092 25.8993 16.1092C25.6645 16.1092 25.4528 16.1695 25.2642 16.2903C25.0756 16.4111 24.9263 16.5882 24.8164 16.8216C24.7079 17.0536 24.6536 17.3379 24.6536 17.6744C24.6536 18.0123 24.7086 18.2979 24.8185 18.5313C24.9284 18.7647 25.079 18.9418 25.2703 19.0626C25.4617 19.1834 25.6795 19.2437 25.9237 19.2437C26.1503 19.2437 26.3478 19.1976 26.516 19.1053C26.6856 19.0131 26.8166 18.8828 26.9089 18.7145C27.0025 18.5449 27.0493 18.3454 27.0493 18.1161L27.2121 18.1466H26.0194V17.6276H27.6579V18.1019C27.6579 18.452 27.5833 18.7559 27.434 19.0137C27.2861 19.2702 27.0812 19.4683 26.8193 19.6081C26.5588 19.7479 26.2602 19.8177 25.9237 19.8177C25.5465 19.8177 25.2154 19.7309 24.9304 19.5572C24.6468 19.3835 24.4256 19.1372 24.2669 18.8183C24.1081 18.4981 24.0287 18.1181 24.0287 17.6785C24.0287 17.346 24.0748 17.0475 24.1671 16.7829C24.2594 16.5183 24.389 16.2937 24.5559 16.1092C24.7242 15.9233 24.9216 15.7815 25.1482 15.6838C25.3762 15.5847 25.6252 15.5352 25.8952 15.5352C26.1205 15.5352 26.3301 15.5684 26.5242 15.6349C26.7196 15.7014 26.8933 15.7957 27.0452 15.9178C27.1986 16.04 27.3254 16.1852 27.4259 16.3534C27.5263 16.5203 27.5941 16.7055 27.6294 16.9091H26.9842ZM29.7205 19.8238C29.4125 19.8238 29.1472 19.758 28.9247 19.6264C28.7035 19.4934 28.5325 19.3068 28.4117 19.0667C28.2923 18.8251 28.2326 18.5422 28.2326 18.2179C28.2326 17.8976 28.2923 17.6154 28.4117 17.3711C28.5325 17.1269 28.7008 16.9362 28.9165 16.7992C29.1336 16.6621 29.3874 16.5936 29.6778 16.5936C29.8542 16.5936 30.0252 16.6228 30.1907 16.6811C30.3563 16.7395 30.5048 16.8311 30.6365 16.9559C30.7681 17.0807 30.8719 17.2429 30.9479 17.4424C31.0239 17.6405 31.0619 17.8814 31.0619 18.165V18.3807H28.5766V17.9248H30.4655C30.4655 17.7647 30.4329 17.6229 30.3678 17.4994C30.3027 17.3745 30.2111 17.2761 30.093 17.2042C29.9763 17.1323 29.8393 17.0964 29.6819 17.0964C29.5109 17.0964 29.3616 17.1384 29.2341 17.2225C29.1079 17.3053 29.0102 17.4139 28.941 17.5482C28.8731 17.6812 28.8392 17.8257 28.8392 17.9818V18.338C28.8392 18.5469 28.8758 18.7247 28.9491 18.8713C29.0237 19.0178 29.1275 19.1298 29.2605 19.2071C29.3935 19.2831 29.5489 19.3211 29.7266 19.3211C29.842 19.3211 29.9471 19.3048 30.0421 19.2722C30.1371 19.2383 30.2192 19.1881 30.2884 19.1216C30.3576 19.0551 30.4105 18.973 30.4472 18.8753L31.0232 18.9791C30.9771 19.1488 30.8943 19.2973 30.7749 19.4249C30.6568 19.5511 30.5082 19.6495 30.3291 19.72C30.1514 19.7892 29.9485 19.8238 29.7205 19.8238ZM31.7027 19.7607V16.6343H32.291V17.131H32.3236C32.3805 16.9627 32.481 16.8304 32.6248 16.734C32.77 16.6363 32.9342 16.5875 33.1174 16.5875C33.1554 16.5875 33.2002 16.5888 33.2517 16.5916C33.3046 16.5943 33.346 16.5977 33.3759 16.6017V17.1839C33.3515 17.1771 33.308 17.1696 33.2456 17.1615C33.1832 17.152 33.1208 17.1472 33.0584 17.1472C32.9145 17.1472 32.7863 17.1778 32.6737 17.2388C32.5624 17.2985 32.4742 17.382 32.409 17.4892C32.3439 17.595 32.3113 17.7158 32.3113 17.8515V19.7607H31.7027ZM33.8682 19.7607V16.6343H34.4523V17.1432H34.491C34.5561 16.9708 34.6627 16.8365 34.8106 16.7401C34.9585 16.6424 35.1356 16.5936 35.3418 16.5936C35.5508 16.5936 35.7258 16.6424 35.867 16.7401C36.0094 16.8378 36.1146 16.9722 36.1825 17.1432H36.215C36.2897 16.9763 36.4084 16.8433 36.5712 16.7442C36.7341 16.6438 36.9281 16.5936 37.1534 16.5936C37.437 16.5936 37.6683 16.6825 37.8474 16.8602C38.0279 17.038 38.1182 17.306 38.1182 17.6642V19.7607H37.5096V17.7212C37.5096 17.5095 37.4519 17.3562 37.3366 17.2612C37.2212 17.1662 37.0835 17.1187 36.9234 17.1187C36.7252 17.1187 36.5712 17.1798 36.4613 17.3019C36.3514 17.4227 36.2964 17.5781 36.2964 17.768V19.7607H35.6899V17.6826C35.6899 17.5129 35.637 17.3766 35.5311 17.2734C35.4253 17.1703 35.2875 17.1187 35.1179 17.1187C35.0026 17.1187 34.8961 17.1493 34.7984 17.2103C34.702 17.27 34.624 17.3535 34.5643 17.4607C34.5059 17.5679 34.4768 17.6921 34.4768 17.8332V19.7607H33.8682ZM39.8093 19.8299C39.6112 19.8299 39.4321 19.7933 39.272 19.72C39.1118 19.6454 38.985 19.5375 38.8913 19.3964C38.7991 19.2553 38.7529 19.0823 38.7529 18.8774C38.7529 18.701 38.7868 18.5558 38.8547 18.4418C38.9225 18.3278 39.0141 18.2376 39.1295 18.1711C39.2448 18.1046 39.3737 18.0544 39.5162 18.0204C39.6587 17.9865 39.8039 17.9607 39.9518 17.9431C40.1391 17.9214 40.291 17.9037 40.4077 17.8902C40.5244 17.8752 40.6092 17.8515 40.6622 17.8189C40.7151 17.7864 40.7415 17.7334 40.7415 17.6602V17.6459C40.7415 17.4682 40.6913 17.3304 40.5909 17.2327C40.4919 17.135 40.344 17.0862 40.1472 17.0862C39.9423 17.0862 39.7808 17.1316 39.6628 17.2225C39.5461 17.3121 39.4653 17.4118 39.4205 17.5218L38.8486 17.3915C38.9164 17.2015 39.0155 17.0482 39.1458 16.9315C39.2774 16.8134 39.4287 16.7279 39.5997 16.675C39.7706 16.6207 39.9504 16.5936 40.1391 16.5936C40.2639 16.5936 40.3962 16.6085 40.536 16.6384C40.6771 16.6669 40.8087 16.7198 40.9308 16.7971C41.0543 16.8745 41.1554 16.9851 41.2341 17.1289C41.3128 17.2714 41.3522 17.4566 41.3522 17.6846V19.7607H40.7578V19.3333H40.7334C40.6941 19.412 40.635 19.4894 40.5563 19.5653C40.4776 19.6413 40.3765 19.7044 40.253 19.7546C40.1296 19.8048 39.9816 19.8299 39.8093 19.8299ZM39.9416 19.3414C40.1099 19.3414 40.2537 19.3082 40.3731 19.2417C40.4939 19.1752 40.5855 19.0884 40.6479 18.9812C40.7117 18.8726 40.7436 18.7566 40.7436 18.6331V18.2301C40.7219 18.2518 40.6798 18.2722 40.6174 18.2912C40.5563 18.3088 40.4864 18.3244 40.4077 18.338C40.329 18.3502 40.2524 18.3617 40.1777 18.3726C40.1031 18.3821 40.0407 18.3902 39.9905 18.397C39.8724 18.4119 39.7645 18.437 39.6668 18.4723C39.5705 18.5076 39.4931 18.5585 39.4348 18.625C39.3778 18.6901 39.3493 18.7769 39.3493 18.8855C39.3493 19.0361 39.4049 19.1501 39.5162 19.2275C39.6275 19.3034 39.7693 19.3414 39.9416 19.3414ZM42.737 17.9044V19.7607H42.1284V16.6343H42.7126V17.1432H42.7512C42.8232 16.9776 42.9358 16.8446 43.0891 16.7442C43.2438 16.6438 43.4385 16.5936 43.6733 16.5936C43.8863 16.5936 44.0729 16.6384 44.233 16.7279C44.3932 16.8161 44.5173 16.9478 44.6055 17.1228C44.6937 17.2979 44.7378 17.5143 44.7378 17.7721V19.7607H44.1292V17.8454C44.1292 17.6188 44.0702 17.4417 43.9522 17.3141C43.8341 17.1852 43.6719 17.1208 43.4657 17.1208C43.3246 17.1208 43.199 17.1513 43.0891 17.2124C42.9806 17.2734 42.8944 17.363 42.8306 17.481C42.7682 17.5977 42.737 17.7389 42.737 17.9044ZM45.7924 20.9332C45.7015 20.9332 45.6187 20.9257 45.5441 20.9108C45.4694 20.8972 45.4138 20.8823 45.3772 20.866L45.5237 20.3673C45.635 20.3972 45.7341 20.41 45.8209 20.406C45.9077 20.4019 45.9844 20.3693 46.0509 20.3083C46.1188 20.2472 46.1785 20.1475 46.23 20.0091L46.3053 19.8015L45.1614 16.6343H45.8128L46.6045 19.0606H46.6371L47.4289 16.6343H48.0823L46.7938 20.178C46.7341 20.3408 46.6581 20.4786 46.5659 20.5912C46.4736 20.7052 46.3637 20.7907 46.2361 20.8477C46.1086 20.9047 45.9607 20.9332 45.7924 20.9332Z" fill="#050810"/>
</g>
<defs>
<filter id="filter0_d_202_3506" x="0.778265" y="0.650302" width="61.5411" height="34.3907" filterUnits="userSpaceOnUse" color-interpolation-filters="sRGB">
<feFlood flood-opacity="0" result="BackgroundImageFix"/>
<feColorMatrix in="SourceAlpha" type="matrix" values="0 0 0 0 0 0 0 0 0 0 0 0 0 0 0 0 0 0 127 0" result="hardAlpha"/>
<feOffset dy="0.584927"/>
<feGaussianBlur stdDeviation="5.37356"/>
<feComposite in2="hardAlpha" operator="out"/>
<feColorMatrix type="matrix" values="0 0 0 0 0 0 0 0 0 0 0 0 0 0 0 0 0 0 0.06 0"/>
<feBlend mode="normal" in2="BackgroundImageFix" result="effect1_dropShadow_202_3506"/>
<feBlend mode="normal" in="SourceGraphic" in2="effect1_dropShadow_202_3506" result="shape"/>
</filter>
<filter id="filter1_d_202_3506" x="9.01706" y="9.0213" width="19.3448" height="19.3448" filterUnits="userSpaceOnUse" color-interpolation-filters="sRGB">
<feFlood flood-opacity="0" result="BackgroundImageFix"/>
<feColorMatrix in="SourceAlpha" type="matrix" values="0 0 0 0 0 0 0 0 0 0 0 0 0 0 0 0 0 0 127 0" result="hardAlpha"/>
<feOffset dy="1.43295"/>
<feGaussianBlur stdDeviation="2.68678"/>
<feComposite in2="hardAlpha" operator="out"/>
<feColorMatrix type="matrix" values="0 0 0 0 0 0 0 0 0 0 0 0 0 0 0 0 0 0 0.05 0"/>
<feBlend mode="normal" in2="BackgroundImageFix" result="effect1_dropShadow_202_3506"/>
<feBlend mode="normal" in="SourceGraphic" in2="effect1_dropShadow_202_3506" result="shape"/>
</filter>
<clipPath id="clip0_202_3506">
<path d="M22.9883 17.2608C22.9883 14.8866 21.0636 12.9619 18.6894 12.9619C16.3152 12.9619 14.3906 14.8866 14.3906 17.2608C14.3906 19.635 16.3152 21.5596 18.6894 21.5596C21.0636 21.5596 22.9883 19.635 22.9883 17.2608Z" fill="white"/>
</clipPath>
<clipPath id="clip1_202_3506">
<rect width="14.2346" height="8.5977" fill="white" transform="translate(11.752 12.9619)"/>
</clipPath>
</defs>
</svg>
