<svg width="148" height="97" viewBox="0 0 148 97" fill="none" xmlns="http://www.w3.org/2000/svg">
<g filter="url(#filter0_d_198_1725)">
<path d="M30.5 47C30.5 37.0589 38.5589 29 48.5 29H121.5C131.441 29 139.5 37.0589 139.5 47V47C139.5 56.9411 131.441 65 121.5 65H48.5C38.5589 65 30.5 56.9411 30.5 47V47Z" fill="white" shape-rendering="crispEdges"/>
<g filter="url(#filter1_d_198_1725)">
<g clip-path="url(#clip0_198_1725)">
<path d="M62.5 47C62.5 40.3726 57.1274 35 50.5 35V35C43.8726 35 38.5 40.3726 38.5 47V47C38.5 53.6274 43.8726 59 50.5 59V59C57.1274 59 62.5 53.6274 62.5 47V47Z" fill="black" fill-opacity="0.2" shape-rendering="crispEdges"/>
<g clip-path="url(#clip1_198_1725)">
<path d="M68.5 35H32.5V59H68.5V35Z" fill="#CE1126"/>
<path d="M68.5 47H32.5V59H68.5V47Z" fill="white"/>
</g>
</g>
</g>
<path d="M67.044 41.544V53H65.892V41.544H67.044ZM70.5655 53H69.4615V45.256H70.4215L70.5815 46.6C71.0935 45.608 72.1175 45.048 73.2375 45.048C75.3655 45.048 76.2455 46.312 76.2455 48.264V53H75.1415V48.504C75.1415 46.696 74.3255 46.056 73.0455 46.056C71.4615 46.056 70.5655 47.208 70.5655 48.952V53ZM81.3579 53.192C79.1019 53.192 77.7739 51.464 77.7739 49.144C77.7739 46.808 79.1019 45.048 81.4059 45.048C82.6859 45.048 83.7099 45.608 84.2539 46.728V41.336H85.3579V53H84.3979L84.2859 51.416C83.7419 52.616 82.6539 53.192 81.3579 53.192ZM81.5499 52.184C83.2459 52.184 84.2379 50.904 84.2379 49.112C84.2379 47.336 83.2459 46.04 81.5499 46.04C79.8699 46.04 78.8939 47.336 78.8939 49.112C78.8939 50.904 79.8699 52.184 81.5499 52.184ZM86.9896 49.128C86.9896 46.76 88.6536 45.048 90.9256 45.048C93.1976 45.048 94.8616 46.76 94.8616 49.128C94.8616 51.48 93.1976 53.192 90.9256 53.192C88.6536 53.192 86.9896 51.48 86.9896 49.128ZM88.1096 49.112C88.1096 50.936 89.2616 52.2 90.9256 52.2C92.5736 52.2 93.7416 50.936 93.7416 49.112C93.7416 47.32 92.5736 46.04 90.9256 46.04C89.2616 46.04 88.1096 47.32 88.1096 49.112ZM97.6034 53H96.4994V45.256H97.4594L97.6194 46.6C98.1314 45.608 99.1554 45.048 100.275 45.048C102.403 45.048 103.283 46.312 103.283 48.264V53H102.179V48.504C102.179 46.696 101.363 46.056 100.083 46.056C98.4994 46.056 97.6034 47.208 97.6034 48.952V53ZM108.604 53.192C106.332 53.192 104.812 51.56 104.812 49.128C104.812 46.712 106.316 45.048 108.524 45.048C110.62 45.048 112.044 46.536 112.044 48.728V49.272H105.884C105.964 51.16 106.956 52.248 108.62 52.248C109.884 52.248 110.7 51.704 110.988 50.68H112.044C111.628 52.312 110.428 53.192 108.604 53.192ZM108.524 45.992C107.068 45.992 106.108 46.952 105.916 48.472H110.94C110.94 46.984 109.98 45.992 108.524 45.992ZM113.025 50.824H114.081C114.081 51.72 114.753 52.28 115.841 52.28C117.041 52.28 117.745 51.768 117.745 50.936C117.745 50.296 117.425 49.928 116.513 49.704L115.185 49.368C113.841 49.032 113.185 48.328 113.185 47.272C113.185 45.912 114.321 45.048 115.985 45.048C117.617 45.048 118.673 45.944 118.721 47.384H117.649C117.617 46.488 116.993 45.96 115.953 45.96C114.865 45.96 114.257 46.424 114.257 47.256C114.257 47.848 114.673 48.264 115.521 48.472L116.849 48.808C118.193 49.144 118.801 49.768 118.801 50.888C118.801 52.28 117.617 53.192 115.857 53.192C114.113 53.192 113.025 52.264 113.025 50.824ZM121.034 43.128C120.586 43.128 120.218 42.76 120.218 42.312C120.218 41.864 120.586 41.48 121.034 41.48C121.482 41.48 121.866 41.864 121.866 42.312C121.866 42.76 121.482 43.128 121.034 43.128ZM120.49 53V45.256H121.594V53H120.49ZM125.993 53.192C124.345 53.192 123.369 52.264 123.369 50.904C123.369 49.48 124.457 48.584 126.265 48.44L128.825 48.232V47.976C128.825 46.456 127.913 45.976 126.777 45.976C125.433 45.976 124.633 46.584 124.633 47.624H123.625C123.625 46.056 124.905 45.048 126.809 45.048C128.601 45.048 129.913 45.944 129.913 47.992V53H128.985L128.841 51.64C128.361 52.616 127.305 53.192 125.993 53.192ZM126.249 52.296C127.881 52.296 128.825 51.16 128.825 49.48V49.064L126.537 49.24C125.081 49.368 124.489 50.008 124.489 50.872C124.489 51.816 125.193 52.296 126.249 52.296Z" fill="#050810"/>
</g>
<defs>
<filter id="filter0_d_198_1725" x="0.5" y="0.632791" width="169" height="96" filterUnits="userSpaceOnUse" color-interpolation-filters="sRGB">
<feFlood flood-opacity="0" result="BackgroundImageFix"/>
<feColorMatrix in="SourceAlpha" type="matrix" values="0 0 0 0 0 0 0 0 0 0 0 0 0 0 0 0 0 0 127 0" result="hardAlpha"/>
<feOffset dy="1.63279"/>
<feGaussianBlur stdDeviation="15"/>
<feComposite in2="hardAlpha" operator="out"/>
<feColorMatrix type="matrix" values="0 0 0 0 0 0 0 0 0 0 0 0 0 0 0 0 0 0 0.06 0"/>
<feBlend mode="normal" in2="BackgroundImageFix" result="effect1_dropShadow_198_1725"/>
<feBlend mode="normal" in="SourceGraphic" in2="effect1_dropShadow_198_1725" result="shape"/>
</filter>
<filter id="filter1_d_198_1725" x="23.5" y="24" width="54" height="54" filterUnits="userSpaceOnUse" color-interpolation-filters="sRGB">
<feFlood flood-opacity="0" result="BackgroundImageFix"/>
<feColorMatrix in="SourceAlpha" type="matrix" values="0 0 0 0 0 0 0 0 0 0 0 0 0 0 0 0 0 0 127 0" result="hardAlpha"/>
<feOffset dy="4"/>
<feGaussianBlur stdDeviation="7.5"/>
<feComposite in2="hardAlpha" operator="out"/>
<feColorMatrix type="matrix" values="0 0 0 0 0 0 0 0 0 0 0 0 0 0 0 0 0 0 0.05 0"/>
<feBlend mode="normal" in2="BackgroundImageFix" result="effect1_dropShadow_198_1725"/>
<feBlend mode="normal" in="SourceGraphic" in2="effect1_dropShadow_198_1725" result="shape"/>
</filter>
<clipPath id="clip0_198_1725">
<path d="M62.5 47C62.5 40.3726 57.1274 35 50.5 35V35C43.8726 35 38.5 40.3726 38.5 47V47C38.5 53.6274 43.8726 59 50.5 59V59C57.1274 59 62.5 53.6274 62.5 47V47Z" fill="white"/>
</clipPath>
<clipPath id="clip1_198_1725">
<rect width="36" height="24" fill="white" transform="translate(32.5 35)"/>
</clipPath>
</defs>
</svg>
