<svg width="53" height="36" viewBox="0 0 53 36" fill="none" xmlns="http://www.w3.org/2000/svg">
<g filter="url(#filter0_d_202_3640)">
<path d="M10.8828 17.5137C10.8828 13.9524 13.7698 11.0654 17.3311 11.0654H35.4805C39.0418 11.0654 41.9288 13.9524 41.9288 17.5137V17.5137C41.9288 21.075 39.0418 23.962 35.4805 23.962H17.3311C13.7698 23.962 10.8828 21.075 10.8828 17.5137V17.5137Z" fill="white" shape-rendering="crispEdges"/>
<g filter="url(#filter1_d_202_3640)">
<g clip-path="url(#clip0_202_3640)">
<path d="M22.3457 17.5137C22.3457 15.1395 20.421 13.2148 18.0469 13.2148C15.6727 13.2148 13.748 15.1395 13.748 17.5137C13.748 19.8879 15.6727 21.8125 18.0469 21.8125C20.421 21.8125 22.3457 19.8879 22.3457 17.5137Z" fill="black" fill-opacity="0.2" shape-rendering="crispEdges"/>
<g clip-path="url(#clip1_202_3640)">
<path d="M23.9221 13.2148H11.9238V21.6136H23.9221V13.2148Z" fill="#009B3A"/>
<path d="M12.9434 17.4139L17.9226 20.5934L22.9019 17.4139L17.9226 14.2344L12.9434 17.4139Z" fill="#FEDF00"/>
<path d="M17.922 19.5138C19.0816 19.5138 20.0217 18.5738 20.0217 17.4141C20.0217 16.2545 19.0816 15.3145 17.922 15.3145C16.7623 15.3145 15.8223 16.2545 15.8223 17.4141C15.8223 18.5738 16.7623 19.5138 17.922 19.5138Z" fill="#002776"/>
<mask id="mask0_202_3640" style="mask-type:luminance" maskUnits="userSpaceOnUse" x="15" y="15" width="6" height="5">
<path d="M17.922 19.5138C19.0816 19.5138 20.0217 18.5738 20.0217 17.4141C20.0217 16.2545 19.0816 15.3145 17.922 15.3145C16.7623 15.3145 15.8223 16.2545 15.8223 17.4141C15.8223 18.5738 16.7623 19.5138 17.922 19.5138Z" fill="white"/>
</mask>
<g mask="url(#mask0_202_3640)">
<path d="M11.623 21.6129C11.623 20.2605 12.1603 18.9635 13.1166 18.0072C14.0729 17.0509 15.3699 16.5137 16.7223 16.5137C18.0747 16.5137 19.3717 17.0509 20.328 18.0072C21.2843 18.9635 21.8216 20.2605 21.8216 21.6129H21.5216C21.5216 20.3401 21.016 19.1194 20.1159 18.2193C19.2159 17.3193 17.9952 16.8136 16.7223 16.8136C15.4494 16.8136 14.2287 17.3193 13.3287 18.2193C12.4286 19.1194 11.923 20.3401 11.923 21.6129H11.623Z" fill="white"/>
</g>
<path fill-rule="evenodd" clip-rule="evenodd" d="M16.1313 16.7998C16.155 16.7969 16.1764 16.7837 16.1909 16.763C16.2053 16.7423 16.2116 16.7159 16.2084 16.6896C16.2052 16.6633 16.1927 16.6392 16.1736 16.6227C16.1546 16.6061 16.1306 16.5984 16.1069 16.6013C16.0832 16.6042 16.0618 16.6175 16.0473 16.6382C16.0328 16.6588 16.0265 16.6852 16.0298 16.7115C16.033 16.7379 16.0455 16.762 16.0645 16.7785C16.0836 16.7951 16.1076 16.8027 16.1313 16.7998ZM16.1267 16.763C16.1407 16.7612 16.1532 16.753 16.1616 16.7401C16.17 16.7272 16.1736 16.7107 16.1715 16.6941C16.1695 16.6776 16.162 16.6624 16.1508 16.6519C16.1395 16.6414 16.1253 16.6365 16.1114 16.6382C16.0975 16.6399 16.085 16.6481 16.0766 16.661C16.0682 16.6739 16.0646 16.6905 16.0666 16.707C16.0687 16.7236 16.0761 16.7388 16.0874 16.7492C16.0987 16.7597 16.1128 16.7647 16.1267 16.763Z" fill="#009B3A"/>
<path fill-rule="evenodd" clip-rule="evenodd" d="M16.2952 16.7825L16.3322 16.7799L16.3271 16.7058L16.4069 16.7002C16.4235 16.6991 16.439 16.6913 16.4499 16.6788C16.4608 16.6662 16.4663 16.6498 16.4652 16.6331C16.464 16.6165 16.4563 16.601 16.4437 16.5901C16.4311 16.5792 16.4147 16.5737 16.3981 16.5748L16.2841 16.5828L16.2952 16.7825ZM16.3245 16.6688L16.4014 16.6634C16.4082 16.6629 16.4146 16.6597 16.419 16.6546C16.4235 16.6495 16.4257 16.6427 16.4253 16.6359C16.4248 16.6291 16.4216 16.6228 16.4165 16.6183C16.4113 16.6139 16.4046 16.6116 16.3978 16.6121L16.3209 16.6175L16.3245 16.6688Z" fill="#009B3A"/>
<path d="M16.4646 16.7709C16.4626 16.7424 16.4582 16.6797 16.4155 16.6827L16.3613 16.6865C16.424 16.6821 16.4284 16.7448 16.4304 16.7733" fill="#009B3A"/>
<path fill-rule="evenodd" clip-rule="evenodd" d="M16.5484 16.7663L16.6427 16.7647C16.6539 16.7645 16.665 16.7621 16.6753 16.7576C16.6857 16.7531 16.695 16.7466 16.7028 16.7385C16.7106 16.7305 16.7168 16.7209 16.7209 16.7104C16.725 16.7 16.7271 16.6888 16.7269 16.6775L16.7264 16.649C16.7262 16.6377 16.7238 16.6266 16.7193 16.6163C16.7148 16.606 16.7083 16.5966 16.7002 16.5888C16.6921 16.581 16.6826 16.5748 16.6721 16.5707C16.6616 16.5666 16.6504 16.5646 16.6392 16.5648L16.5449 16.5664L16.5484 16.7663ZM16.5849 16.7286L16.6392 16.7276C16.6536 16.7274 16.6673 16.7214 16.6773 16.7111C16.6873 16.7007 16.6927 16.6868 16.6925 16.6724L16.6922 16.6553C16.6919 16.6409 16.686 16.6272 16.6756 16.6172C16.6653 16.6072 16.6514 16.6017 16.637 16.6019L16.5827 16.6029L16.5849 16.7286Z" fill="#009B3A"/>
<path d="M16.8016 16.7643L16.9815 16.7706L16.9828 16.7335L16.8372 16.7284L16.839 16.677L16.9532 16.681L16.9544 16.6467L16.8402 16.6427L16.8416 16.6028L16.9786 16.6075L16.9799 16.5704L16.8086 16.5645L16.8016 16.7643Z" fill="#009B3A"/>
<path d="M17.0548 16.7744L17.089 16.7774L17.1009 16.6408L17.1288 16.7809L17.1601 16.7836L17.2119 16.6505L17.2 16.7871L17.2341 16.7901L17.2516 16.5909L17.2018 16.5865L17.15 16.7196L17.1221 16.5796L17.0723 16.5752L17.0548 16.7744Z" fill="#009B3A"/>
<path d="M17.4695 16.8219L17.6173 16.8473L17.6231 16.8135L17.5091 16.7939L17.5169 16.7489L17.6098 16.7648L17.6156 16.7311L17.5227 16.7151L17.528 16.6841L17.6385 16.7031L17.6443 16.6693L17.5 16.6445L17.4695 16.8219Z" fill="#009B3A"/>
<path fill-rule="evenodd" clip-rule="evenodd" d="M17.8503 16.8957L17.8863 16.905L17.9049 16.8331L17.9823 16.8532C17.9985 16.8573 18.0156 16.8549 18.0299 16.8465C18.0443 16.838 18.0547 16.8242 18.0589 16.8081C18.0631 16.7919 18.0607 16.7748 18.0522 16.7604C18.0437 16.7461 18.0299 16.7356 18.0138 16.7315L17.9032 16.7029L17.8503 16.8957ZM17.9142 16.7972L17.9888 16.8165C17.9954 16.8182 18.0025 16.8172 18.0083 16.8138C18.0142 16.8103 18.0185 16.8046 18.0202 16.798C18.0219 16.7914 18.0209 16.7844 18.0174 16.7786C18.014 16.7727 18.0083 16.7684 18.0017 16.7667L17.927 16.7474L17.9142 16.7972Z" fill="#009B3A"/>
<path fill-rule="evenodd" clip-rule="evenodd" d="M18.0961 16.9612L18.1315 16.9724L18.1539 16.9016L18.2302 16.9256C18.2461 16.9306 18.2633 16.9291 18.2781 16.9214C18.2929 16.9137 18.304 16.9005 18.309 16.8846C18.314 16.8687 18.3125 16.8514 18.3048 16.8366C18.2971 16.8219 18.2839 16.8107 18.268 16.8057L18.159 16.7714L18.0961 16.9612ZM18.165 16.8661L18.2386 16.8893C18.2451 16.8914 18.2522 16.8908 18.2582 16.8876C18.2643 16.8845 18.2688 16.879 18.2709 16.8725C18.2729 16.866 18.2723 16.859 18.2691 16.8529C18.266 16.8469 18.2606 16.8423 18.2541 16.8403L18.1805 16.8171L18.165 16.8661Z" fill="#009B3A"/>
<path d="M18.2566 17.0119C18.2651 16.9847 18.284 16.9247 18.2432 16.9118L18.1914 16.8955C18.2513 16.9144 18.2324 16.9743 18.2239 17.0016" fill="#009B3A"/>
<path fill-rule="evenodd" clip-rule="evenodd" d="M18.4205 17.0714C18.4429 17.0797 18.468 17.0779 18.4904 17.0662C18.5127 17.0546 18.5305 17.0341 18.5398 17.0092C18.5491 16.9844 18.5491 16.9572 18.5399 16.9338C18.5306 16.9103 18.5129 16.8924 18.4905 16.8841C18.4682 16.8757 18.4431 16.8775 18.4207 16.8892C18.3983 16.9009 18.3805 16.9214 18.3712 16.9462C18.3619 16.971 18.3619 16.9982 18.3712 17.0216C18.3804 17.0451 18.3982 17.063 18.4205 17.0714ZM18.4335 17.0366C18.4466 17.0415 18.4616 17.04 18.475 17.0324C18.4884 17.0249 18.4992 17.0118 18.505 16.9962C18.5109 16.9806 18.5112 16.9637 18.5061 16.9492C18.5009 16.9347 18.4907 16.9237 18.4775 16.9188C18.4644 16.9139 18.4495 16.9154 18.4361 16.923C18.4227 16.9306 18.4119 16.9436 18.406 16.9592C18.4002 16.9748 18.3998 16.9917 18.405 17.0062C18.4101 17.0208 18.4204 17.0317 18.4335 17.0366Z" fill="#009B3A"/>
<mask id="mask1_202_3640" style="mask-type:luminance" maskUnits="userSpaceOnUse" x="18" y="16" width="1" height="2">
<path d="M18.5746 17.1307L18.6543 16.9473L18.8193 17.019L18.7396 17.2024L18.5746 17.1307ZM18.7106 17.0434L18.697 17.0748L18.7795 17.1107L18.7931 17.0793L18.7106 17.0434Z" fill="white"/>
</mask>
<g mask="url(#mask1_202_3640)">
<path fill-rule="evenodd" clip-rule="evenodd" d="M18.6571 17.1665C18.679 17.176 18.7042 17.1755 18.7271 17.165C18.7501 17.1546 18.7689 17.135 18.7795 17.1107C18.79 17.0864 18.7915 17.0593 18.7835 17.0354C18.7755 17.0115 18.7587 16.9927 18.7368 16.9831C18.7149 16.9736 18.6897 16.9742 18.6668 16.9846C18.6438 16.9951 18.625 17.0146 18.6144 17.039C18.6039 17.0633 18.6024 17.0904 18.6104 17.1143C18.6184 17.1382 18.6352 17.157 18.6571 17.1665ZM18.6719 17.1325C18.6847 17.1381 18.6997 17.1374 18.7135 17.1305C18.7273 17.1236 18.7388 17.1112 18.7454 17.0959C18.7521 17.0806 18.7533 17.0637 18.7489 17.049C18.7446 17.0342 18.7349 17.0228 18.722 17.0172C18.7092 17.0116 18.6942 17.0123 18.6804 17.0192C18.6666 17.026 18.6551 17.0385 18.6485 17.0538C18.6418 17.0691 18.6406 17.0859 18.645 17.1007C18.6493 17.1155 18.659 17.1269 18.6719 17.1325Z" fill="#009B3A"/>
</g>
<path d="M18.7784 17.1103L18.709 17.0801L18.6976 17.1063L18.767 17.1365L18.7784 17.1103Z" fill="#009B3A"/>
<path d="M18.7782 17.11L18.752 17.0986L18.7121 17.1903L18.7383 17.2017L18.7782 17.11Z" fill="#009B3A"/>
<path fill-rule="evenodd" clip-rule="evenodd" d="M18.8053 17.2336L18.8385 17.2502L18.8717 17.1837L18.9433 17.2194C18.9582 17.2269 18.9754 17.2281 18.9913 17.2228C19.0071 17.2175 19.0201 17.2062 19.0276 17.1912C19.035 17.1763 19.0362 17.1591 19.0309 17.1433C19.0256 17.1274 19.0143 17.1144 18.9994 17.1069L18.8971 17.056L18.8053 17.2336ZM18.8883 17.1505L18.9573 17.1849C18.9634 17.188 18.9704 17.1885 18.9769 17.1863C18.9834 17.1841 18.9887 17.1795 18.9918 17.1734C18.9948 17.1673 18.9953 17.1602 18.9931 17.1538C18.991 17.1473 18.9863 17.142 18.9802 17.1389L18.9112 17.1045L18.8883 17.1505Z" fill="#009B3A"/>
<path d="M18.9582 17.3097C18.971 17.2842 18.999 17.2279 18.9607 17.2088L18.9121 17.1846C18.9684 17.2126 18.9403 17.2689 18.9276 17.2944" fill="#009B3A"/>
<path d="M19.0324 17.3489L19.189 17.4375L19.2073 17.4052L19.0805 17.3334L19.1058 17.2887L19.2053 17.3449L19.2222 17.3151L19.1227 17.2588L19.1424 17.224L19.2618 17.2915L19.28 17.2592L19.1309 17.1748L19.0324 17.3489Z" fill="#009B3A"/>
<path d="M19.3236 17.4465C19.3129 17.4633 19.3238 17.4821 19.3479 17.4975C19.372 17.5128 19.3884 17.5123 19.3953 17.5015C19.4172 17.4671 19.2907 17.4171 19.3297 17.3572C19.3633 17.3058 19.4208 17.3458 19.4425 17.3596C19.4642 17.3734 19.499 17.4092 19.4719 17.4503L19.4352 17.4269C19.4467 17.4089 19.434 17.3915 19.4148 17.3792C19.3961 17.3673 19.3809 17.3619 19.3698 17.3794C19.3512 17.4073 19.4751 17.46 19.4371 17.5196C19.4091 17.5636 19.3603 17.5444 19.3278 17.5237C19.3001 17.506 19.2587 17.4644 19.2857 17.4223L19.3236 17.4465Z" fill="#009B3A"/>
<path d="M19.539 17.588C19.5274 17.6043 19.5373 17.6236 19.5606 17.6402C19.5838 17.6568 19.6002 17.6571 19.6077 17.6466C19.6314 17.6135 19.5077 17.5569 19.5498 17.4991C19.586 17.4495 19.6413 17.4925 19.6623 17.5074C19.6832 17.5224 19.7161 17.5599 19.6869 17.5996L19.6514 17.5743C19.6639 17.5568 19.6521 17.5388 19.6335 17.5256C19.6155 17.5127 19.6007 17.5065 19.5886 17.5234C19.5686 17.5503 19.6896 17.6094 19.6485 17.6669C19.6182 17.7094 19.5706 17.6877 19.5392 17.6653C19.5124 17.6462 19.4732 17.6025 19.5024 17.5618L19.539 17.588Z" fill="#009B3A"/>
<path fill-rule="evenodd" clip-rule="evenodd" d="M19.7409 17.818C19.7595 17.8328 19.784 17.8388 19.8089 17.8347C19.8338 17.8305 19.857 17.8165 19.8735 17.7958C19.89 17.775 19.8984 17.7492 19.8969 17.724C19.8954 17.6988 19.884 17.6763 19.8653 17.6615C19.8467 17.6466 19.8222 17.6406 19.7973 17.6448C19.7724 17.649 19.7492 17.663 19.7327 17.6837C19.7162 17.7045 19.7078 17.7303 19.7093 17.7555C19.7108 17.7806 19.7222 17.8031 19.7409 17.818ZM19.764 17.7889C19.7749 17.7976 19.7896 17.8008 19.8047 17.7978C19.8198 17.7947 19.8341 17.7857 19.8445 17.7726C19.8548 17.7596 19.8604 17.7436 19.86 17.7282C19.8596 17.7128 19.8532 17.6993 19.8422 17.6906C19.8313 17.6818 19.8166 17.6786 19.8015 17.6817C19.7864 17.6847 19.7721 17.6938 19.7617 17.7068C19.7514 17.7199 19.7458 17.7359 19.7462 17.7513C19.7466 17.7666 19.753 17.7802 19.764 17.7889Z" fill="#009B3A"/>
<path d="M16.209 16.9473L16.1812 17.0328L16.224 17.0468" fill="white"/>
<path d="M16.209 16.9473L16.2368 17.0328L16.194 17.0468" fill="white"/>
<path d="M16.293 17.0098H16.203V17.0548" fill="white"/>
<path d="M16.293 17.0098L16.2202 17.0627L16.1937 17.0263" fill="white"/>
<path d="M16.123 17.0098L16.1958 17.0627L16.2223 17.0263" fill="white"/>
<path d="M16.123 17.0098H16.213V17.0548" fill="white"/>
<path d="M16.2617 17.1104L16.2339 17.0248L16.1911 17.0387" fill="white"/>
<path d="M16.2617 17.1104L16.1889 17.0575L16.2154 17.0211" fill="white"/>
<path d="M16.1562 17.1094L16.2291 17.0565L16.2026 17.0201" fill="white"/>
<path d="M16.1562 17.1094L16.1841 17.0238L16.2268 17.0377" fill="white"/>
<path d="M16.3945 17.8301L16.3667 17.9157L16.4095 17.9296" fill="white"/>
<path d="M16.3945 17.8301L16.4223 17.9157L16.3795 17.9296" fill="white"/>
<path d="M16.4785 17.8936H16.3885V17.9385" fill="white"/>
<path d="M16.4785 17.8936L16.4057 17.9464L16.3793 17.91" fill="white"/>
<path d="M16.3086 17.8926L16.3814 17.9455L16.4078 17.9091" fill="white"/>
<path d="M16.3086 17.8926H16.3986V17.9376" fill="white"/>
<path d="M16.4453 17.9932L16.4175 17.9076L16.3747 17.9215" fill="white"/>
<path d="M16.4453 17.9932L16.3725 17.9403L16.399 17.9039" fill="white"/>
<path d="M16.3398 17.9922L16.4126 17.9393L16.3862 17.9029" fill="white"/>
<path d="M16.3398 17.9922L16.3677 17.9066L16.4104 17.9205" fill="white"/>
<path d="M16.1367 18.0332L16.1135 18.1045L16.1492 18.1161" fill="white"/>
<path d="M16.1367 18.0332L16.1599 18.1045L16.1242 18.1161" fill="white"/>
<path d="M16.2109 18.085H16.1359V18.1225" fill="white"/>
<path d="M16.2109 18.085L16.1503 18.129L16.1282 18.0987" fill="white"/>
<path d="M16.0645 18.085L16.1251 18.129L16.1472 18.0987" fill="white"/>
<path d="M16.0645 18.085H16.1394V18.1225" fill="white"/>
<path d="M16.1816 18.168L16.1585 18.0966L16.1228 18.1082" fill="white"/>
<path d="M16.1816 18.168L16.121 18.1239L16.143 18.0936" fill="white"/>
<path d="M16.0918 18.168L16.1525 18.1239L16.1304 18.0936" fill="white"/>
<path d="M16.0918 18.168L16.115 18.0966L16.1506 18.1082" fill="white"/>
<path d="M16.5996 17.748L16.5864 17.7888L16.6067 17.7954" fill="white"/>
<path d="M16.5996 17.748L16.6129 17.7888L16.5925 17.7954" fill="white"/>
<path d="M16.6406 17.7783H16.5978V17.7997" fill="white"/>
<path d="M16.6406 17.7783L16.606 17.8035L16.5934 17.7862" fill="white"/>
<path d="M16.5586 17.7773L16.5933 17.8025L16.6059 17.7852" fill="white"/>
<path d="M16.5586 17.7773H16.6014V17.7988" fill="white"/>
<path d="M16.625 17.8252L16.6118 17.7844L16.5914 17.7911" fill="white"/>
<path d="M16.625 17.8252L16.5903 17.8L16.6029 17.7827" fill="white"/>
<path d="M16.5742 17.8262L16.6089 17.801L16.5963 17.7837" fill="white"/>
<path d="M16.5742 17.8262L16.5875 17.7854L16.6078 17.792" fill="white"/>
<path d="M16.832 18.0537L16.8089 18.125L16.8445 18.1366" fill="white"/>
<path d="M16.832 18.0537L16.8552 18.125L16.8195 18.1366" fill="white"/>
<path d="M16.9043 18.1055H16.8293V18.143" fill="white"/>
<path d="M16.9043 18.1055L16.8436 18.1495L16.8216 18.1192" fill="white"/>
<path d="M16.7617 18.1055L16.8224 18.1495L16.8444 18.1192" fill="white"/>
<path d="M16.7617 18.1055H16.8367V18.143" fill="white"/>
<path d="M16.875 18.1904L16.8518 18.1191L16.8162 18.1307" fill="white"/>
<path d="M16.875 18.1904L16.8143 18.1464L16.8364 18.116" fill="white"/>
<path d="M16.7852 18.1885L16.8458 18.1444L16.8238 18.1141" fill="white"/>
<path d="M16.7852 18.1885L16.8083 18.1172L16.844 18.1287" fill="white"/>
<path d="M16.7676 18.2764L16.749 18.3334L16.7776 18.3427" fill="white"/>
<path d="M16.7676 18.2764L16.7861 18.3334L16.7576 18.3427" fill="white"/>
<path d="M16.8262 18.3184H16.7662V18.3484" fill="white"/>
<path d="M16.8262 18.3184L16.7776 18.3536L16.76 18.3294" fill="white"/>
<path d="M16.7109 18.3174L16.7595 18.3526L16.7771 18.3284" fill="white"/>
<path d="M16.7109 18.3174H16.7709V18.3474" fill="white"/>
<path d="M16.8047 18.3848L16.7861 18.3277L16.7576 18.337" fill="white"/>
<path d="M16.8047 18.3848L16.7562 18.3495L16.7738 18.3252" fill="white"/>
<path d="M16.7344 18.3848L16.7829 18.3495L16.7653 18.3252" fill="white"/>
<path d="M16.7344 18.3848L16.7529 18.3277L16.7814 18.337" fill="white"/>
<path d="M18.5742 16.6729L18.5464 16.7584L18.5892 16.7723" fill="white"/>
<path d="M18.5742 16.6729L18.602 16.7584L18.5592 16.7723" fill="white"/>
<path d="M18.6582 16.7354H18.5682V16.7803" fill="white"/>
<path d="M18.6582 16.7354L18.5854 16.7882L18.559 16.7518" fill="white"/>
<path d="M18.4902 16.7344L18.563 16.7873L18.5895 16.7509" fill="white"/>
<path d="M18.4902 16.7344H18.5802V16.7794" fill="white"/>
<path d="M18.625 16.8359L18.5972 16.7504L18.5544 16.7643" fill="white"/>
<path d="M18.625 16.8359L18.5522 16.783L18.5786 16.7466" fill="white"/>
<path d="M18.5195 16.835L18.5923 16.7821L18.5659 16.7457" fill="white"/>
<path d="M18.5195 16.835L18.5473 16.7494L18.5901 16.7633" fill="white"/>
<path d="M19.3926 18.0605L19.3648 18.1461L19.4076 18.16" fill="white"/>
<path d="M19.3926 18.0605L19.4204 18.1461L19.3776 18.16" fill="white"/>
<path d="M19.4785 18.123H19.3885V18.168" fill="white"/>
<path d="M19.4785 18.123L19.4057 18.1759L19.3793 18.1395" fill="white"/>
<path d="M19.3066 18.1221L19.3794 18.175L19.4059 18.1386" fill="white"/>
<path d="M19.3066 18.1221H19.3966V18.1671" fill="white"/>
<path d="M19.4473 18.2236L19.4195 18.1381L19.3767 18.152" fill="white"/>
<path d="M19.4473 18.2236L19.3745 18.1707L19.4009 18.1343" fill="white"/>
<path d="M19.3418 18.2227L19.4146 18.1698L19.3882 18.1334" fill="white"/>
<path d="M19.3418 18.2227L19.3696 18.1371L19.4124 18.151" fill="white"/>
<path d="M19.6875 18.1113L19.669 18.1684L19.6975 18.1777" fill="white"/>
<path d="M19.6875 18.1113L19.706 18.1684L19.6775 18.1777" fill="white"/>
<path d="M19.7441 18.1533H19.6841V18.1833" fill="white"/>
<path d="M19.7441 18.1533L19.6956 18.1886L19.678 18.1643" fill="white"/>
<path d="M19.6289 18.1523L19.6774 18.1876L19.6951 18.1633" fill="white"/>
<path d="M19.6289 18.1523H19.6889V18.1823" fill="white"/>
<path d="M19.7207 18.2207L19.7022 18.1636L19.6736 18.1729" fill="white"/>
<path d="M19.7207 18.2207L19.6722 18.1854L19.6898 18.1612" fill="white"/>
<path d="M19.6484 18.2197L19.697 18.1845L19.6793 18.1602" fill="white"/>
<path d="M19.6484 18.2197L19.667 18.1627L19.6955 18.1719" fill="white"/>
<path d="M19.4805 18.2617L19.4573 18.333L19.493 18.3446" fill="white"/>
<path d="M19.4805 18.2617L19.5036 18.333L19.468 18.3446" fill="white"/>
<path d="M19.5508 18.3135H19.4758V18.351" fill="white"/>
<path d="M19.5508 18.3135L19.4901 18.3576L19.4681 18.3272" fill="white"/>
<path d="M19.4102 18.3135L19.4708 18.3576L19.4929 18.3272" fill="white"/>
<path d="M19.4102 18.3135H19.4851V18.351" fill="white"/>
<path d="M19.5254 18.3984L19.5022 18.3271L19.4666 18.3387" fill="white"/>
<path d="M19.5254 18.3984L19.4647 18.3544L19.4868 18.324" fill="white"/>
<path d="M19.4355 18.3965L19.4962 18.3524L19.4742 18.3221" fill="white"/>
<path d="M19.4355 18.3965L19.4587 18.3252L19.4944 18.3368" fill="white"/>
<path d="M18.9727 18.7021L18.9495 18.7735L18.9851 18.7851" fill="white"/>
<path d="M18.9727 18.7021L18.9958 18.7735L18.9602 18.7851" fill="white"/>
<path d="M19.0469 18.7539H18.9719V18.7914" fill="white"/>
<path d="M19.0469 18.7539L18.9862 18.798L18.9642 18.7677" fill="white"/>
<path d="M18.9043 18.7539L18.965 18.798L18.987 18.7677" fill="white"/>
<path d="M18.9043 18.7539H18.9793V18.7914" fill="white"/>
<path d="M19.0156 18.8389L18.9925 18.7675L18.9568 18.7791" fill="white"/>
<path d="M19.0156 18.8389L18.955 18.7948L18.977 18.7645" fill="white"/>
<path d="M18.9277 18.8369L18.9884 18.7928L18.9664 18.7625" fill="white"/>
<path d="M18.9277 18.8369L18.9509 18.7656L18.9866 18.7772" fill="white"/>
<path d="M18.9727 18.9277L18.9541 18.9848L18.9826 18.9941" fill="white"/>
<path d="M18.9727 18.9277L18.9912 18.9848L18.9627 18.9941" fill="white"/>
<path d="M19.0293 18.9697H18.9693V18.9997" fill="white"/>
<path d="M19.0293 18.9697L18.9808 19.005L18.9631 18.9807" fill="white"/>
<path d="M18.9141 18.9688L18.9626 19.004L18.9802 18.9797" fill="white"/>
<path d="M18.9141 18.9688H18.9741V18.9987" fill="white"/>
<path d="M19.0059 19.0361L18.9873 18.9791L18.9588 18.9883" fill="white"/>
<path d="M19.0059 19.0361L18.9573 19.0009L18.975 18.9766" fill="white"/>
<path d="M18.9355 19.0361L18.9841 19.0009L18.9664 18.9766" fill="white"/>
<path d="M18.9355 19.0361L18.9541 18.9791L18.9826 18.9883" fill="white"/>
<path d="M19.1836 18.5508L19.1651 18.6078L19.1936 18.6171" fill="white"/>
<path d="M19.1836 18.5508L19.2021 18.6078L19.1736 18.6171" fill="white"/>
<path d="M19.2402 18.5928H19.1802V18.6228" fill="white"/>
<path d="M19.2402 18.5928L19.1917 18.628L19.1741 18.6038" fill="white"/>
<path d="M19.125 18.5918L19.1735 18.6271L19.1912 18.6028" fill="white"/>
<path d="M19.125 18.5918H19.185V18.6218" fill="white"/>
<path d="M19.2188 18.6602L19.2002 18.6031L19.1717 18.6124" fill="white"/>
<path d="M19.2188 18.6602L19.1702 18.6249L19.1878 18.6006" fill="white"/>
<path d="M19.1465 18.6592L19.195 18.6239L19.1774 18.5997" fill="white"/>
<path d="M19.1465 18.6592L19.165 18.6021L19.1936 18.6114" fill="white"/>
<path d="M19.3516 18.4307L19.3284 18.502L19.364 18.5136" fill="white"/>
<path d="M19.3516 18.4307L19.3747 18.502L19.3391 18.5136" fill="white"/>
<path d="M19.4238 18.4824H19.3488V18.5199" fill="white"/>
<path d="M19.4238 18.4824L19.3632 18.5265L19.3411 18.4962" fill="white"/>
<path d="M19.2812 18.4824L19.3419 18.5265L19.364 18.4962" fill="white"/>
<path d="M19.2812 18.4824H19.3562V18.5199" fill="white"/>
<path d="M19.3945 18.5674L19.3714 18.4961L19.3357 18.5077" fill="white"/>
<path d="M19.3945 18.5674L19.3339 18.5233L19.3559 18.493" fill="white"/>
<path d="M19.3047 18.5654L19.3654 18.5214L19.3433 18.491" fill="white"/>
<path d="M19.3047 18.5654L19.3279 18.4941L19.3635 18.5057" fill="white"/>
<path d="M18.9648 18.5107L18.9463 18.5678L18.9748 18.5771" fill="white"/>
<path d="M18.9648 18.5107L18.9834 18.5678L18.9549 18.5771" fill="white"/>
<path d="M19.0215 18.5527H18.9615V18.5827" fill="white"/>
<path d="M19.0215 18.5527L18.973 18.588L18.9553 18.5637" fill="white"/>
<path d="M18.9102 18.5518L18.9587 18.587L18.9763 18.5628" fill="white"/>
<path d="M18.9102 18.5518H18.9701V18.5818" fill="white"/>
<path d="M19.002 18.6191L18.9834 18.5621L18.9549 18.5714" fill="white"/>
<path d="M19.002 18.6191L18.9534 18.5839L18.9711 18.5596" fill="white"/>
<path d="M18.9297 18.6191L18.9782 18.5839L18.9606 18.5596" fill="white"/>
<path d="M18.9297 18.6191L18.9482 18.5621L18.9768 18.5714" fill="white"/>
<path d="M17.1211 17.4248L17.0979 17.4961L17.1336 17.5077" fill="white"/>
<path d="M17.1211 17.4248L17.1443 17.4961L17.1086 17.5077" fill="white"/>
<path d="M17.1953 17.4766H17.1203V17.5141" fill="white"/>
<path d="M17.1953 17.4766L17.1346 17.5206L17.1126 17.4903" fill="white"/>
<path d="M17.0508 17.4756L17.1114 17.5197L17.1335 17.4893" fill="white"/>
<path d="M17.0508 17.4756H17.1258V17.5131" fill="white"/>
<path d="M17.168 17.5605L17.1448 17.4892L17.1091 17.5008" fill="white"/>
<path d="M17.168 17.5605L17.1073 17.5165L17.1293 17.4861" fill="white"/>
<path d="M17.0781 17.5596L17.1388 17.5155L17.1168 17.4852" fill="white"/>
<path d="M17.0781 17.5596L17.1013 17.4883L17.137 17.4998" fill="white"/>
<path d="M18.4922 17.248L18.4736 17.3051L18.5022 17.3144" fill="white"/>
<path d="M18.4922 17.248L18.5107 17.3051L18.4822 17.3144" fill="white"/>
<path d="M18.5508 17.2891H18.4908V17.3191" fill="white"/>
<path d="M18.5508 17.2891L18.5022 17.3243L18.4846 17.3001" fill="white"/>
<path d="M18.4375 17.2891L18.486 17.3243L18.5037 17.3001" fill="white"/>
<path d="M18.4375 17.2891H18.4975V17.3191" fill="white"/>
<path d="M18.5293 17.3564L18.5108 17.2994L18.4822 17.3087" fill="white"/>
<path d="M18.5293 17.3564L18.4808 17.3212L18.4984 17.2969" fill="white"/>
<path d="M18.457 17.3564L18.5056 17.3212L18.4879 17.2969" fill="white"/>
<path d="M18.457 17.3564L18.4756 17.2994L18.5041 17.3087" fill="white"/>
<path d="M17.9219 18.2666L17.8941 18.3522L17.9369 18.3661" fill="white"/>
<path d="M17.9219 18.2666L17.9497 18.3522L17.9069 18.3661" fill="white"/>
<path d="M18.0078 18.3291H17.9178V18.3741" fill="white"/>
<path d="M18.0078 18.3291L17.935 18.382L17.9086 18.3456" fill="white"/>
<path d="M17.8359 18.3281L17.9087 18.381L17.9352 18.3446" fill="white"/>
<path d="M17.8359 18.3281H17.9259V18.3731" fill="white"/>
<path d="M17.9766 18.4297L17.9488 18.3441L17.906 18.358" fill="white"/>
<path d="M17.9766 18.4297L17.9038 18.3768L17.9302 18.3404" fill="white"/>
<path d="M17.8691 18.4287L17.9419 18.3758L17.9155 18.3394" fill="white"/>
<path d="M17.8691 18.4287L17.8969 18.3431L17.9397 18.357" fill="white"/>
<path d="M18.166 17.8643L18.1428 17.9356L18.1785 17.9472" fill="white"/>
<path d="M18.166 17.8643L18.1892 17.9356L18.1535 17.9472" fill="white"/>
<path d="M18.2363 17.917H18.1613V17.9545" fill="white"/>
<path d="M18.2363 17.917L18.1757 17.9611L18.1536 17.9307" fill="white"/>
<path d="M18.0938 17.916L18.1544 17.9601L18.1765 17.9298" fill="white"/>
<path d="M18.0938 17.916H18.1687V17.9535" fill="white"/>
<path d="M18.2109 18L18.1878 17.9287L18.1521 17.9403" fill="white"/>
<path d="M18.2109 18L18.1503 17.9559L18.1723 17.9256" fill="white"/>
<path d="M18.123 17.999L18.1837 17.9549L18.1617 17.9246" fill="white"/>
<path d="M18.123 17.999L18.1462 17.9277L18.1819 17.9393" fill="white"/>
<path d="M17.9238 17.6758L17.9007 17.7471L17.9363 17.7587" fill="white"/>
<path d="M17.9238 17.6758L17.947 17.7471L17.9113 17.7587" fill="white"/>
<path d="M17.9941 17.7275H17.9192V17.765" fill="white"/>
<path d="M17.9941 17.7275L17.9335 17.7716L17.9114 17.7413" fill="white"/>
<path d="M17.8535 17.7275L17.9142 17.7716L17.9362 17.7413" fill="white"/>
<path d="M17.8535 17.7275H17.9285V17.765" fill="white"/>
<path d="M17.9668 17.8105L17.9436 17.7392L17.908 17.7508" fill="white"/>
<path d="M17.9668 17.8105L17.9061 17.7665L17.9282 17.7361" fill="white"/>
<path d="M17.8789 17.8115L17.9396 17.7674L17.9175 17.7371" fill="white"/>
<path d="M17.8789 17.8115L17.9021 17.7402L17.9377 17.7518" fill="white"/>
<path d="M17.7109 17.8799L17.6924 17.9369L17.7209 17.9462" fill="white"/>
<path d="M17.7109 17.8799L17.7295 17.9369L17.7009 17.9462" fill="white"/>
<path d="M17.7676 17.9219H17.7076V17.9519" fill="white"/>
<path d="M17.7676 17.9219L17.719 17.9571L17.7014 17.9329" fill="white"/>
<path d="M17.6562 17.9209L17.7048 17.9562L17.7224 17.9319" fill="white"/>
<path d="M17.6562 17.9209H17.7162V17.9509" fill="white"/>
<path d="M17.7461 17.9893L17.7276 17.9322L17.699 17.9415" fill="white"/>
<path d="M17.7461 17.9893L17.6976 17.954L17.7152 17.9297" fill="white"/>
<path d="M17.6758 17.9883L17.7243 17.953L17.7067 17.9288" fill="white"/>
<path d="M17.6758 17.9883L17.6943 17.9312L17.7228 17.9405" fill="white"/>
<path d="M17.8164 18.042L17.8032 18.0827L17.8235 18.0894" fill="white"/>
<path d="M17.8164 18.042L17.8296 18.0827L17.8093 18.0894" fill="white"/>
<path d="M17.8574 18.0713H17.8146V18.0927" fill="white"/>
<path d="M17.8574 18.0713L17.8228 18.0965L17.8102 18.0791" fill="white"/>
<path d="M17.7773 18.0713L17.812 18.0965L17.8246 18.0791" fill="white"/>
<path d="M17.7773 18.0713H17.8202V18.0927" fill="white"/>
<path d="M17.8438 18.1191L17.8305 18.0784L17.8101 18.085" fill="white"/>
<path d="M17.8438 18.1191L17.8091 18.094L17.8217 18.0766" fill="white"/>
<path d="M17.791 18.1201L17.8257 18.0949L17.8131 18.0776" fill="white"/>
<path d="M17.791 18.1201L17.8043 18.0794L17.8246 18.086" fill="white"/>
<path d="M18.5508 18.7529L18.5276 18.8242L18.5633 18.8358" fill="white"/>
<path d="M18.5508 18.7529L18.574 18.8242L18.5383 18.8358" fill="white"/>
<path d="M18.625 18.8047H18.55V18.8422" fill="white"/>
<path d="M18.625 18.8047L18.5643 18.8488L18.5423 18.8184" fill="white"/>
<path d="M18.4785 18.8057L18.5392 18.8497L18.5612 18.8194" fill="white"/>
<path d="M18.4785 18.8057H18.5535V18.8432" fill="white"/>
<path d="M18.5938 18.8896L18.5706 18.8183L18.5349 18.8299" fill="white"/>
<path d="M18.5938 18.8896L18.5331 18.8456L18.5551 18.8152" fill="white"/>
<path d="M18.5059 18.8887L18.5665 18.8446L18.5445 18.8143" fill="white"/>
<path d="M18.5059 18.8887L18.529 18.8174L18.5647 18.8289" fill="white"/>
<path d="M18.7324 18.582L18.7139 18.6391L18.7424 18.6484" fill="white"/>
<path d="M18.7324 18.582L18.751 18.6391L18.7224 18.6484" fill="white"/>
<path d="M18.7891 18.624H18.7291V18.654" fill="white"/>
<path d="M18.7891 18.624L18.7405 18.6593L18.7229 18.635" fill="white"/>
<path d="M18.6758 18.623L18.7243 18.6583L18.7419 18.634" fill="white"/>
<path d="M18.6758 18.623H18.7358V18.653" fill="white"/>
<path d="M18.7676 18.6904L18.749 18.6334L18.7205 18.6426" fill="white"/>
<path d="M18.7676 18.6904L18.719 18.6552L18.7367 18.6309" fill="white"/>
<path d="M18.6953 18.6904L18.7438 18.6552L18.7262 18.6309" fill="white"/>
<path d="M18.6953 18.6904L18.7139 18.6334L18.7424 18.6426" fill="white"/>
<path d="M18.3867 18.5312L18.3682 18.5883L18.3967 18.5976" fill="white"/>
<path d="M18.3867 18.5312L18.4053 18.5883L18.3767 18.5976" fill="white"/>
<path d="M18.4434 18.5732H18.3834V18.6032" fill="white"/>
<path d="M18.4434 18.5732L18.3948 18.6085L18.3772 18.5842" fill="white"/>
<path d="M18.3301 18.5723L18.3786 18.6075L18.3962 18.5833" fill="white"/>
<path d="M18.3301 18.5723H18.3901V18.6023" fill="white"/>
<path d="M18.4219 18.6396L18.4033 18.5826L18.3748 18.5919" fill="white"/>
<path d="M18.4219 18.6396L18.3733 18.6044L18.391 18.5801" fill="white"/>
<path d="M18.3496 18.6406L18.3981 18.6054L18.3805 18.5811" fill="white"/>
<path d="M18.3496 18.6406L18.3681 18.5836L18.3967 18.5928" fill="white"/>
<path d="M17.0801 18.4385L17.0523 18.5241L17.0951 18.538" fill="white"/>
<path d="M17.0801 18.4385L17.1079 18.5241L17.0651 18.538" fill="white"/>
<path d="M17.166 18.501H17.076V18.546" fill="white"/>
<path d="M17.166 18.501L17.0932 18.5539L17.0668 18.5175" fill="white"/>
<path d="M16.9941 18.501L17.0669 18.5539L17.0934 18.5175" fill="white"/>
<path d="M16.9941 18.501H17.0841V18.546" fill="white"/>
<path d="M17.1328 18.6016L17.105 18.516L17.0622 18.5299" fill="white"/>
<path d="M17.1328 18.6016L17.06 18.5487L17.0865 18.5123" fill="white"/>
<path d="M17.0254 18.6006L17.0982 18.5477L17.0717 18.5113" fill="white"/>
<path d="M17.0254 18.6006L17.0532 18.515L17.096 18.5289" fill="white"/>
<path d="M17.9238 19.0264L17.9146 19.0549L17.9288 19.0595" fill="white"/>
<path d="M17.9238 19.0264L17.9331 19.0549L17.9188 19.0595" fill="white"/>
<path d="M17.9512 19.0469H17.9212V19.0619" fill="white"/>
<path d="M17.9512 19.0469L17.9269 19.0645L17.9181 19.0524" fill="white"/>
<path d="M17.8926 19.0469L17.9168 19.0645L17.9257 19.0524" fill="white"/>
<path d="M17.8926 19.0469H17.9226V19.0619" fill="white"/>
<path d="M17.9395 19.0801L17.9302 19.0516L17.9159 19.0562" fill="white"/>
<path d="M17.9395 19.0801L17.9152 19.0624L17.924 19.0503" fill="white"/>
<path d="M17.9043 19.0801L17.9286 19.0624L17.9197 19.0503" fill="white"/>
<path d="M17.9043 19.0801L17.9136 19.0516L17.9278 19.0562" fill="white"/>
</g>
</g>
</g>
<path d="M23.5205 20.0137V15.8451H25.0471C25.3429 15.8451 25.5878 15.8939 25.7818 15.9916C25.9759 16.088 26.1211 16.2189 26.2174 16.3845C26.3138 16.5487 26.3619 16.7339 26.3619 16.9402C26.3619 17.1138 26.3301 17.2604 26.2663 17.3798C26.2025 17.4979 26.117 17.5929 26.0098 17.6648C25.904 17.7353 25.7873 17.7869 25.6597 17.8195V17.8602C25.7981 17.867 25.9331 17.9117 26.0648 17.9945C26.1978 18.0759 26.3077 18.192 26.3945 18.3426C26.4814 18.4932 26.5248 18.6764 26.5248 18.8921C26.5248 19.1052 26.4746 19.2965 26.3742 19.4661C26.2751 19.6344 26.1218 19.7681 25.9142 19.8671C25.7065 19.9648 25.4413 20.0137 25.1183 20.0137H23.5205ZM24.1494 19.4743H25.0572C25.3585 19.4743 25.5742 19.4159 25.7045 19.2992C25.8348 19.1825 25.8999 19.0367 25.8999 18.8616C25.8999 18.73 25.8667 18.6092 25.8002 18.4993C25.7337 18.3894 25.6387 18.3019 25.5152 18.2367C25.3931 18.1716 25.2479 18.139 25.0796 18.139H24.1494V19.4743ZM24.1494 17.6485H24.9921C25.1332 17.6485 25.2601 17.6214 25.3727 17.5671C25.4867 17.5128 25.5769 17.4368 25.6434 17.3391C25.7113 17.24 25.7452 17.1233 25.7452 16.989C25.7452 16.8167 25.6848 16.6722 25.5641 16.5555C25.4433 16.4388 25.2581 16.3804 25.0084 16.3804H24.1494V17.6485ZM27.1875 20.0137V16.8872H27.7758V17.3839H27.8083C27.8653 17.2156 27.9657 17.0833 28.1096 16.987C28.2548 16.8893 28.419 16.8404 28.6022 16.8404C28.6402 16.8404 28.6849 16.8418 28.7365 16.8445C28.7894 16.8472 28.8308 16.8506 28.8607 16.8547V17.4368C28.8362 17.43 28.7928 17.4226 28.7304 17.4144C28.668 17.4049 28.6056 17.4002 28.5431 17.4002C28.3993 17.4002 28.2711 17.4307 28.1584 17.4918C28.0472 17.5515 27.959 17.6349 27.8938 17.7421C27.8287 17.848 27.7961 17.9687 27.7961 18.1044V20.0137H27.1875ZM30.2348 20.0829C30.0367 20.0829 29.8576 20.0462 29.6974 19.973C29.5373 19.8983 29.4104 19.7905 29.3168 19.6493C29.2245 19.5082 29.1784 19.3352 29.1784 19.1303C29.1784 18.9539 29.2123 18.8087 29.2802 18.6947C29.348 18.5807 29.4396 18.4905 29.555 18.424C29.6703 18.3575 29.7992 18.3073 29.9417 18.2734C30.0842 18.2394 30.2294 18.2137 30.3773 18.196C30.5645 18.1743 30.7165 18.1567 30.8332 18.1431C30.9499 18.1282 31.0347 18.1044 31.0876 18.0719C31.1406 18.0393 31.167 17.9864 31.167 17.9131V17.8988C31.167 17.7211 31.1168 17.5834 31.0164 17.4857C30.9173 17.388 30.7694 17.3391 30.5727 17.3391C30.3678 17.3391 30.2063 17.3846 30.0882 17.4755C29.9715 17.565 29.8908 17.6648 29.846 17.7747L29.2741 17.6444C29.3419 17.4544 29.441 17.3011 29.5712 17.1844C29.7029 17.0664 29.8542 16.9809 30.0251 16.9279C30.1961 16.8737 30.3759 16.8465 30.5645 16.8465C30.6894 16.8465 30.8217 16.8615 30.9615 16.8913C31.1026 16.9198 31.2342 16.9727 31.3563 17.0501C31.4798 17.1274 31.5809 17.238 31.6596 17.3818C31.7383 17.5243 31.7777 17.7096 31.7777 17.9375V20.0137H31.1833V19.5862H31.1589C31.1195 19.6649 31.0605 19.7423 30.9818 19.8183C30.9031 19.8943 30.802 19.9574 30.6785 20.0076C30.555 20.0578 30.4071 20.0829 30.2348 20.0829ZM30.3671 19.5944C30.5354 19.5944 30.6792 19.5611 30.7986 19.4946C30.9194 19.4281 31.011 19.3413 31.0734 19.2341C31.1372 19.1255 31.1691 19.0095 31.1691 18.886V18.483C31.1474 18.5047 31.1053 18.5251 31.0429 18.5441C30.9818 18.5617 30.9119 18.5773 30.8332 18.5909C30.7545 18.6031 30.6778 18.6146 30.6032 18.6255C30.5286 18.635 30.4662 18.6431 30.416 18.6499C30.2979 18.6649 30.19 18.69 30.0923 18.7252C29.996 18.7605 29.9186 18.8114 29.8603 18.8779C29.8033 18.943 29.7748 19.0299 29.7748 19.1384C29.7748 19.2891 29.8304 19.403 29.9417 19.4804C30.053 19.5564 30.1948 19.5944 30.3671 19.5944ZM32.4888 20.0137V19.5964L34.1822 17.4449V17.4164H32.5437V16.8872H34.9415V17.331L33.3131 19.456V19.4845H34.9984V20.0137H32.4888ZM35.6821 20.0137V16.8872H36.2907V20.0137H35.6821ZM35.9894 16.4048C35.8836 16.4048 35.7927 16.3696 35.7167 16.299C35.642 16.2271 35.6047 16.1416 35.6047 16.0425C35.6047 15.9421 35.642 15.8566 35.7167 15.7861C35.7927 15.7141 35.8836 15.6782 35.9894 15.6782C36.0953 15.6782 36.1855 15.7141 36.2601 15.7861C36.3361 15.8566 36.3741 15.9421 36.3741 16.0425C36.3741 16.1416 36.3361 16.2271 36.2601 16.299C36.1855 16.3696 36.0953 16.4048 35.9894 16.4048ZM37.6836 15.8451V20.0137H37.075V15.8451H37.6836Z" fill="#050810"/>
</g>
<defs>
<filter id="filter0_d_202_3640" x="0.135687" y="0.903231" width="52.5411" height="34.3907" filterUnits="userSpaceOnUse" color-interpolation-filters="sRGB">
<feFlood flood-opacity="0" result="BackgroundImageFix"/>
<feColorMatrix in="SourceAlpha" type="matrix" values="0 0 0 0 0 0 0 0 0 0 0 0 0 0 0 0 0 0 127 0" result="hardAlpha"/>
<feOffset dy="0.584927"/>
<feGaussianBlur stdDeviation="5.37356"/>
<feComposite in2="hardAlpha" operator="out"/>
<feColorMatrix type="matrix" values="0 0 0 0 0 0 0 0 0 0 0 0 0 0 0 0 0 0 0.06 0"/>
<feBlend mode="normal" in2="BackgroundImageFix" result="effect1_dropShadow_202_3640"/>
<feBlend mode="normal" in="SourceGraphic" in2="effect1_dropShadow_202_3640" result="shape"/>
</filter>
<filter id="filter1_d_202_3640" x="8.37448" y="9.27423" width="19.3448" height="19.3448" filterUnits="userSpaceOnUse" color-interpolation-filters="sRGB">
<feFlood flood-opacity="0" result="BackgroundImageFix"/>
<feColorMatrix in="SourceAlpha" type="matrix" values="0 0 0 0 0 0 0 0 0 0 0 0 0 0 0 0 0 0 127 0" result="hardAlpha"/>
<feOffset dy="1.43295"/>
<feGaussianBlur stdDeviation="2.68678"/>
<feComposite in2="hardAlpha" operator="out"/>
<feColorMatrix type="matrix" values="0 0 0 0 0 0 0 0 0 0 0 0 0 0 0 0 0 0 0.05 0"/>
<feBlend mode="normal" in2="BackgroundImageFix" result="effect1_dropShadow_202_3640"/>
<feBlend mode="normal" in="SourceGraphic" in2="effect1_dropShadow_202_3640" result="shape"/>
</filter>
<clipPath id="clip0_202_3640">
<path d="M22.3457 17.5137C22.3457 15.1395 20.421 13.2148 18.0469 13.2148C15.6727 13.2148 13.748 15.1395 13.748 17.5137C13.748 19.8879 15.6727 21.8125 18.0469 21.8125C20.421 21.8125 22.3457 19.8879 22.3457 17.5137Z" fill="white"/>
</clipPath>
<clipPath id="clip1_202_3640">
<rect width="11.9982" height="8.39877" fill="white" transform="translate(11.9238 13.2148)"/>
</clipPath>
</defs>
</svg>
