<svg width="55" height="35" viewBox="0 0 55 35" fill="none" xmlns="http://www.w3.org/2000/svg">
<g filter="url(#filter0_d_202_4113)">
<path d="M11.4082 17.1319C11.4082 13.5706 14.2952 10.6836 17.8565 10.6836H47.0059C50.5672 10.6836 53.4542 13.5706 53.4542 17.1319C53.4542 20.6932 50.5672 23.5801 47.0059 23.5801H17.8565C14.2952 23.5801 11.4082 20.6932 11.4082 17.1319Z" fill="white" shape-rendering="crispEdges"/>
<g filter="url(#filter1_d_202_4113)">
<g clip-path="url(#clip0_202_4113)">
<path d="M22.8711 17.1319C22.8711 14.7577 20.9464 12.833 18.5722 12.833C16.1981 12.833 14.2734 14.7577 14.2734 17.1319C14.2734 19.506 16.1981 21.4307 18.5722 21.4307C20.9464 21.4307 22.8711 19.506 22.8711 17.1319Z" fill="black" fill-opacity="0.2" shape-rendering="crispEdges"/>
<g clip-path="url(#clip1_202_4113)">
<path d="M25.0196 12.833H12.123V21.4307H25.0196V12.833Z" fill="#CE1126"/>
<path d="M25.0196 17.1318H12.123V21.4307H25.0196V17.1318Z" fill="white"/>
</g>
</g>
</g>
<path d="M24.6748 15.4633V19.6318H24.0459V15.4633H24.6748ZM26.1161 17.7755V19.6318H25.5075V16.5054H26.0917V17.0143H26.1304C26.2023 16.8487 26.3149 16.7157 26.4683 16.6153C26.6229 16.5149 26.8177 16.4647 27.0524 16.4647C27.2655 16.4647 27.452 16.5095 27.6122 16.599C27.7723 16.6872 27.8965 16.8189 27.9847 16.9939C28.0729 17.169 28.117 17.3854 28.117 17.6432V19.6318H27.5084V17.7165C27.5084 17.4899 27.4493 17.3128 27.3313 17.1852C27.2132 17.0563 27.0511 16.9919 26.8448 16.9919C26.7037 16.9919 26.5782 17.0224 26.4683 17.0835C26.3597 17.1445 26.2735 17.2341 26.2097 17.3521C26.1473 17.4688 26.1161 17.61 26.1161 17.7755ZM30.0692 19.6929C29.8168 19.6929 29.5915 19.6284 29.3934 19.4995C29.1966 19.3693 29.0419 19.184 28.9293 18.9439C28.818 18.7023 28.7624 18.4126 28.7624 18.0747C28.7624 17.7368 28.8187 17.4478 28.9313 17.2076C29.0453 16.9674 29.2014 16.7836 29.3995 16.656C29.5976 16.5285 29.8222 16.4647 30.0732 16.4647C30.2673 16.4647 30.4233 16.4973 30.5414 16.5624C30.6608 16.6262 30.7531 16.7008 30.8182 16.7863C30.8847 16.8718 30.9363 16.9471 30.9729 17.0122H31.0095V15.4633H31.6181V19.6318H31.0238V19.1454H30.9729C30.9363 19.2119 30.8833 19.2878 30.8141 19.3733C30.7463 19.4588 30.6526 19.5335 30.5332 19.5972C30.4138 19.661 30.2591 19.6929 30.0692 19.6929ZM30.2035 19.1739C30.3785 19.1739 30.5265 19.1277 30.6472 19.0355C30.7693 18.9418 30.8616 18.8122 30.924 18.6467C30.9878 18.4811 31.0197 18.2884 31.0197 18.0686C31.0197 17.8515 30.9885 17.6615 30.9261 17.4987C30.8637 17.3359 30.7721 17.209 30.6513 17.1181C30.5305 17.0272 30.3813 16.9817 30.2035 16.9817C30.0203 16.9817 29.8676 17.0292 29.7455 17.1242C29.6234 17.2192 29.5311 17.3488 29.4687 17.5129C29.4076 17.6771 29.3771 17.8624 29.3771 18.0686C29.3771 18.2776 29.4083 18.4655 29.4707 18.6324C29.5332 18.7993 29.6254 18.9316 29.7476 19.0293C29.871 19.1257 30.023 19.1739 30.2035 19.1739ZM33.7693 19.6949C33.4762 19.6949 33.2204 19.6278 33.0019 19.4934C32.7835 19.3591 32.6138 19.1711 32.4931 18.9296C32.3723 18.6881 32.3119 18.4058 32.3119 18.0829C32.3119 17.7586 32.3723 17.4749 32.4931 17.2321C32.6138 16.9892 32.7835 16.8005 33.0019 16.6662C33.2204 16.5319 33.4762 16.4647 33.7693 16.4647C34.0624 16.4647 34.3182 16.5319 34.5367 16.6662C34.7551 16.8005 34.9247 16.9892 35.0455 17.2321C35.1663 17.4749 35.2267 17.7586 35.2267 18.0829C35.2267 18.4058 35.1663 18.6881 35.0455 18.9296C34.9247 19.1711 34.7551 19.3591 34.5367 19.4934C34.3182 19.6278 34.0624 19.6949 33.7693 19.6949ZM33.7713 19.184C33.9613 19.184 34.1187 19.1338 34.2435 19.0334C34.3684 18.933 34.4607 18.7993 34.5204 18.6324C34.5814 18.4655 34.612 18.2817 34.612 18.0808C34.612 17.8814 34.5814 17.6982 34.5204 17.5313C34.4607 17.363 34.3684 17.228 34.2435 17.1262C34.1187 17.0244 33.9613 16.9736 33.7713 16.9736C33.58 16.9736 33.4212 17.0244 33.295 17.1262C33.1702 17.228 33.0772 17.363 33.0162 17.5313C32.9565 17.6982 32.9266 17.8814 32.9266 18.0808C32.9266 18.2817 32.9565 18.4655 33.0162 18.6324C33.0772 18.7993 33.1702 18.933 33.295 19.0334C33.4212 19.1338 33.58 19.184 33.7713 19.184ZM36.4802 17.7755V19.6318H35.8716V16.5054H36.4558V17.0143H36.4944C36.5664 16.8487 36.679 16.7157 36.8323 16.6153C36.987 16.5149 37.1817 16.4647 37.4165 16.4647C37.6295 16.4647 37.8161 16.5095 37.9762 16.599C38.1364 16.6872 38.2605 16.8189 38.3487 16.9939C38.4369 17.169 38.481 17.3854 38.481 17.6432V19.6318H37.8724V17.7165C37.8724 17.4899 37.8134 17.3128 37.6954 17.1852C37.5773 17.0563 37.4151 16.9919 37.2089 16.9919C37.0678 16.9919 36.9422 17.0224 36.8323 17.0835C36.7238 17.1445 36.6376 17.2341 36.5738 17.3521C36.5114 17.4688 36.4802 17.61 36.4802 17.7755ZM40.6103 19.6949C40.3023 19.6949 40.037 19.6291 39.8145 19.4975C39.5933 19.3645 39.4223 19.1779 39.3015 18.9378C39.1821 18.6962 39.1224 18.4133 39.1224 18.089C39.1224 17.7687 39.1821 17.4865 39.3015 17.2422C39.4223 16.998 39.5906 16.8073 39.8063 16.6703C40.0234 16.5332 40.2772 16.4647 40.5676 16.4647C40.744 16.4647 40.915 16.4939 41.0805 16.5522C41.2461 16.6106 41.3946 16.7022 41.5263 16.827C41.6579 16.9518 41.7617 17.114 41.8377 17.3135C41.9137 17.5116 41.9517 17.7524 41.9517 18.0361V18.2518H39.4664V17.7959H41.3553C41.3553 17.6357 41.3227 17.4939 41.2576 17.3705C41.1925 17.2456 41.1009 17.1472 40.9828 17.0753C40.8661 17.0034 40.7291 16.9674 40.5716 16.9674C40.4007 16.9674 40.2514 17.0095 40.1239 17.0936C39.9977 17.1764 39.9 17.285 39.8307 17.4193C39.7629 17.5523 39.729 17.6968 39.729 17.8529V18.2091C39.729 18.418 39.7656 18.5958 39.8389 18.7423C39.9135 18.8889 40.0173 19.0008 40.1503 19.0782C40.2833 19.1542 40.4387 19.1922 40.6164 19.1922C40.7318 19.1922 40.8369 19.1759 40.9319 19.1433C41.0269 19.1094 41.109 19.0592 41.1782 18.9927C41.2474 18.9262 41.3003 18.8441 41.337 18.7464L41.913 18.8502C41.8669 19.0198 41.7841 19.1684 41.6647 19.296C41.5466 19.4222 41.398 19.5206 41.2189 19.5911C41.0412 19.6603 40.8383 19.6949 40.6103 19.6949ZM44.9353 17.2687L44.3837 17.3664C44.3607 17.2958 44.324 17.2287 44.2738 17.1649C44.225 17.1011 44.1585 17.0489 44.0743 17.0082C43.9902 16.9674 43.885 16.9471 43.7589 16.9471C43.5865 16.9471 43.4427 16.9858 43.3273 17.0631C43.212 17.1391 43.1543 17.2375 43.1543 17.3582C43.1543 17.4627 43.193 17.5469 43.2703 17.6106C43.3477 17.6744 43.4725 17.7267 43.6449 17.7674L44.1415 17.8814C44.4292 17.9478 44.6436 18.0503 44.7847 18.1887C44.9258 18.3271 44.9964 18.5069 44.9964 18.7281C44.9964 18.9154 44.9421 19.0823 44.8336 19.2288C44.7264 19.374 44.5764 19.488 44.3837 19.5708C44.1924 19.6535 43.9705 19.6949 43.7181 19.6949C43.368 19.6949 43.0824 19.6203 42.8612 19.471C42.64 19.3204 42.5043 19.1067 42.4541 18.8299L43.0424 18.7403C43.079 18.8936 43.1543 19.0097 43.2683 19.0884C43.3823 19.1657 43.5309 19.2044 43.7141 19.2044C43.9135 19.2044 44.073 19.163 44.1924 19.0802C44.3118 18.9961 44.3715 18.8936 44.3715 18.7729C44.3715 18.6752 44.3349 18.5931 44.2616 18.5266C44.1897 18.4601 44.0791 18.4099 43.9298 18.376L43.4006 18.2599C43.1089 18.1935 42.8931 18.0876 42.7533 17.9424C42.6149 17.7972 42.5457 17.6134 42.5457 17.3908C42.5457 17.2063 42.5973 17.0448 42.7004 16.9064C42.8036 16.768 42.946 16.6601 43.1279 16.5827C43.3097 16.504 43.518 16.4647 43.7527 16.4647C44.0906 16.4647 44.3566 16.538 44.5506 16.6845C44.7447 16.8297 44.8729 17.0244 44.9353 17.2687ZM45.6312 19.6318V16.5054H46.2398V19.6318H45.6312ZM45.9385 16.023C45.8327 16.023 45.7418 15.9877 45.6658 15.9172C45.5911 15.8452 45.5538 15.7597 45.5538 15.6607C45.5538 15.5603 45.5911 15.4748 45.6658 15.4042C45.7418 15.3323 45.8327 15.2963 45.9385 15.2963C46.0444 15.2963 46.1346 15.3323 46.2092 15.4042C46.2852 15.4748 46.3232 15.5603 46.3232 15.6607C46.3232 15.7597 46.2852 15.8452 46.2092 15.9172C46.1346 15.9877 46.0444 16.023 45.9385 16.023ZM47.934 19.701C47.7358 19.701 47.5567 19.6644 47.3966 19.5911C47.2365 19.5165 47.1096 19.4086 47.016 19.2675C46.9237 19.1264 46.8776 18.9534 46.8776 18.7485C46.8776 18.572 46.9115 18.4269 46.9793 18.3129C47.0472 18.1989 47.1388 18.1086 47.2541 18.0422C47.3695 17.9757 47.4984 17.9255 47.6409 17.8915C47.7833 17.8576 47.9285 17.8318 48.0764 17.8142C48.2637 17.7925 48.4157 17.7748 48.5324 17.7613C48.6491 17.7463 48.7339 17.7226 48.7868 17.69C48.8397 17.6575 48.8662 17.6045 48.8662 17.5313V17.517C48.8662 17.3393 48.816 17.2015 48.7156 17.1038C48.6165 17.0061 48.4686 16.9573 48.2718 16.9573C48.0669 16.9573 47.9055 17.0027 47.7874 17.0936C47.6707 17.1832 47.59 17.2829 47.5452 17.3929L46.9732 17.2626C47.0411 17.0726 47.1401 16.9193 47.2704 16.8026C47.402 16.6845 47.5533 16.599 47.7243 16.5461C47.8953 16.4918 48.0751 16.4647 48.2637 16.4647C48.3885 16.4647 48.5208 16.4796 48.6606 16.5095C48.8017 16.538 48.9334 16.5909 49.0555 16.6682C49.179 16.7456 49.2801 16.8562 49.3588 17C49.4375 17.1425 49.4768 17.3277 49.4768 17.5557V19.6318H48.8825V19.2044H48.8581C48.8187 19.2831 48.7597 19.3604 48.681 19.4364C48.6023 19.5124 48.5012 19.5755 48.3777 19.6257C48.2542 19.6759 48.1063 19.701 47.934 19.701ZM48.0663 19.2125C48.2345 19.2125 48.3784 19.1793 48.4978 19.1128C48.6185 19.0463 48.7101 18.9595 48.7726 18.8523C48.8363 18.7437 48.8682 18.6277 48.8682 18.5042V18.1012C48.8465 18.1229 48.8045 18.1433 48.742 18.1622C48.681 18.1799 48.6111 18.1955 48.5324 18.2091C48.4537 18.2213 48.377 18.2328 48.3024 18.2437C48.2277 18.2532 48.1653 18.2613 48.1151 18.2681C47.9971 18.283 47.8892 18.3081 47.7915 18.3434C47.6951 18.3787 47.6178 18.4296 47.5594 18.4961C47.5024 18.5612 47.474 18.648 47.474 18.7566C47.474 18.9072 47.5296 19.0212 47.6409 19.0986C47.7521 19.1745 47.8939 19.2125 48.0663 19.2125Z" fill="#050810"/>
</g>
<defs>
<filter id="filter0_d_202_4113" x="0.661077" y="0.521395" width="63.5411" height="34.3907" filterUnits="userSpaceOnUse" color-interpolation-filters="sRGB">
<feFlood flood-opacity="0" result="BackgroundImageFix"/>
<feColorMatrix in="SourceAlpha" type="matrix" values="0 0 0 0 0 0 0 0 0 0 0 0 0 0 0 0 0 0 127 0" result="hardAlpha"/>
<feOffset dy="0.584927"/>
<feGaussianBlur stdDeviation="5.37356"/>
<feComposite in2="hardAlpha" operator="out"/>
<feColorMatrix type="matrix" values="0 0 0 0 0 0 0 0 0 0 0 0 0 0 0 0 0 0 0.06 0"/>
<feBlend mode="normal" in2="BackgroundImageFix" result="effect1_dropShadow_202_4113"/>
<feBlend mode="normal" in="SourceGraphic" in2="effect1_dropShadow_202_4113" result="shape"/>
</filter>
<filter id="filter1_d_202_4113" x="8.89987" y="8.8924" width="19.3448" height="19.3448" filterUnits="userSpaceOnUse" color-interpolation-filters="sRGB">
<feFlood flood-opacity="0" result="BackgroundImageFix"/>
<feColorMatrix in="SourceAlpha" type="matrix" values="0 0 0 0 0 0 0 0 0 0 0 0 0 0 0 0 0 0 127 0" result="hardAlpha"/>
<feOffset dy="1.43295"/>
<feGaussianBlur stdDeviation="2.68678"/>
<feComposite in2="hardAlpha" operator="out"/>
<feColorMatrix type="matrix" values="0 0 0 0 0 0 0 0 0 0 0 0 0 0 0 0 0 0 0.05 0"/>
<feBlend mode="normal" in2="BackgroundImageFix" result="effect1_dropShadow_202_4113"/>
<feBlend mode="normal" in="SourceGraphic" in2="effect1_dropShadow_202_4113" result="shape"/>
</filter>
<clipPath id="clip0_202_4113">
<path d="M22.8711 17.1319C22.8711 14.7577 20.9464 12.833 18.5722 12.833C16.1981 12.833 14.2734 14.7577 14.2734 17.1319C14.2734 19.506 16.1981 21.4307 18.5722 21.4307C20.9464 21.4307 22.8711 19.506 22.8711 17.1319Z" fill="white"/>
</clipPath>
<clipPath id="clip1_202_4113">
<rect width="12.8966" height="8.5977" fill="white" transform="translate(12.123 12.833)"/>
</clipPath>
</defs>
</svg>
