<svg width="145" height="97" viewBox="0 0 145 97" fill="none" xmlns="http://www.w3.org/2000/svg">
<g filter="url(#filter0_d_198_1720)">
<path d="M30 47C30 37.0589 38.0589 29 48 29H97C106.941 29 115 37.0589 115 47V47C115 56.9411 106.941 65 97 65H48C38.0589 65 30 56.9411 30 47V47Z" fill="white" shape-rendering="crispEdges"/>
<g filter="url(#filter1_d_198_1720)">
<g clip-path="url(#clip0_198_1720)">
<path d="M62 47C62 40.3726 56.6274 35 50 35V35C43.3726 35 38 40.3726 38 47V47C38 53.6274 43.3726 59 50 59V59C56.6274 59 62 53.6274 62 47V47Z" fill="black" fill-opacity="0.2" shape-rendering="crispEdges"/>
<g clip-path="url(#clip1_198_1720)">
<path d="M66.4006 35H32.9082V58.4447H66.4006V35Z" fill="#009B3A"/>
<path d="M35.7559 46.7224L49.6552 55.5978L63.5546 46.7224L49.6552 37.8469L35.7559 46.7224Z" fill="#FEDF00"/>
<path d="M49.6541 52.5835C52.8912 52.5835 55.5153 49.9594 55.5153 46.7224C55.5153 43.4853 52.8912 40.8612 49.6541 40.8612C46.4171 40.8612 43.793 43.4853 43.793 46.7224C43.793 49.9594 46.4171 52.5835 49.6541 52.5835Z" fill="#002776"/>
<mask id="mask0_198_1720" style="mask-type:luminance" maskUnits="userSpaceOnUse" x="43" y="40" width="13" height="13">
<path d="M49.6541 52.5835C52.8912 52.5835 55.5153 49.9594 55.5153 46.7224C55.5153 43.4853 52.8912 40.8612 49.6541 40.8612C46.4171 40.8612 43.793 43.4853 43.793 46.7224C43.793 49.9594 46.4171 52.5835 49.6541 52.5835Z" fill="white"/>
</mask>
<g mask="url(#mask0_198_1720)">
<path d="M32.0703 58.4447C32.0703 54.6695 33.57 51.049 36.2394 48.3795C38.9089 45.7101 42.5294 44.2104 46.3046 44.2104C50.0798 44.2104 53.7003 45.7101 56.3698 48.3795C59.0392 51.049 60.5389 54.6695 60.5389 58.4447H59.7016C59.7016 54.8916 58.2901 51.484 55.7777 48.9716C53.2653 46.4592 49.8577 45.0477 46.3046 45.0477C42.7515 45.0477 39.3439 46.4592 36.8315 48.9716C34.3191 51.484 32.9076 54.8916 32.9076 58.4447H32.0703Z" fill="white"/>
</g>
<path fill-rule="evenodd" clip-rule="evenodd" d="M44.6552 45.0091C44.7214 45.001 44.7812 44.964 44.8216 44.9063C44.862 44.8486 44.8796 44.7749 44.8705 44.7014C44.8615 44.628 44.8266 44.5607 44.7735 44.5145C44.7203 44.4683 44.6533 44.4469 44.5872 44.455C44.5211 44.4631 44.4613 44.5001 44.4209 44.5578C44.3805 44.6155 44.3629 44.6892 44.3719 44.7627C44.3809 44.8361 44.4158 44.9034 44.469 44.9496C44.5221 44.9958 44.5891 45.0172 44.6552 45.0091M44.6426 44.9062C44.6814 44.9014 44.7164 44.8785 44.7399 44.8425C44.7633 44.8064 44.7733 44.7603 44.7677 44.7141C44.762 44.6679 44.7411 44.6255 44.7096 44.5962C44.6782 44.5669 44.6387 44.5532 44.5998 44.5579C44.561 44.5627 44.526 44.5856 44.5026 44.6216C44.4791 44.6577 44.4691 44.7038 44.4748 44.75C44.4805 44.7962 44.5013 44.8386 44.5328 44.8679C44.5643 44.8972 44.6038 44.9109 44.6426 44.9062" fill="#009B3A"/>
<path fill-rule="evenodd" clip-rule="evenodd" d="M45.1093 44.9587L45.2127 44.9514L45.1982 44.7446L45.4209 44.729C45.4674 44.7258 45.5106 44.7042 45.5411 44.6691C45.5716 44.634 45.587 44.5882 45.5837 44.5418C45.5805 44.4954 45.5589 44.4521 45.5238 44.4216C45.4887 44.3911 45.4429 44.3758 45.3965 44.379L45.0783 44.4013L45.1093 44.9587ZM45.191 44.6412L45.4058 44.6262C45.4247 44.6249 45.4424 44.616 45.4549 44.6017C45.4674 44.5873 45.4737 44.5686 45.4723 44.5496C45.471 44.5306 45.4622 44.5129 45.4478 44.5004C45.4335 44.4879 45.4147 44.4817 45.3957 44.483L45.181 44.498L45.191 44.6412Z" fill="#009B3A"/>
<path d="M45.5832 44.9256C45.5776 44.846 45.5654 44.671 45.4461 44.6794L45.2949 44.6899C45.4699 44.6777 45.4822 44.8527 45.4877 44.9323" fill="#009B3A"/>
<path fill-rule="evenodd" clip-rule="evenodd" d="M45.8183 44.9146L46.0815 44.91C46.1129 44.9095 46.1439 44.9028 46.1727 44.8902C46.2015 44.8777 46.2275 44.8596 46.2494 44.837C46.2712 44.8144 46.2883 44.7877 46.2999 44.7585C46.3114 44.7293 46.317 44.6981 46.3165 44.6667L46.3151 44.5869C46.3145 44.5555 46.3078 44.5245 46.2953 44.4957C46.2827 44.4669 46.2647 44.4408 46.2421 44.419C46.2195 44.3972 46.1928 44.38 46.1636 44.3685C46.1343 44.357 46.1031 44.3514 46.0717 44.3519L45.8086 44.3565L45.8183 44.9146ZM45.9202 44.8092L46.0717 44.8065C46.1118 44.8058 46.1501 44.7892 46.178 44.7603C46.2059 44.7314 46.2212 44.6926 46.2205 44.6524L46.2197 44.6045C46.219 44.5644 46.2023 44.5261 46.1734 44.4982C46.1445 44.4703 46.1057 44.455 46.0655 44.4557L45.9141 44.4583L45.9202 44.8092Z" fill="#009B3A"/>
<path d="M46.5274 44.9077L47.0295 44.9252L47.0331 44.8216L46.6266 44.8074L46.6317 44.6639L46.9504 44.6751L46.9538 44.5794L46.635 44.5683L46.6389 44.4567L47.0214 44.4701L47.025 44.3665L46.5469 44.3498L46.5274 44.9077Z" fill="#009B3A"/>
<path d="M47.2346 44.9378L47.3299 44.9461L47.3632 44.5648L47.4411 44.9559L47.5285 44.9635L47.6731 44.5919L47.6397 44.9732L47.735 44.9816L47.7837 44.4255L47.6447 44.4133L47.5001 44.7849L47.4222 44.3939L47.2832 44.3817L47.2346 44.9378Z" fill="#009B3A"/>
<path d="M48.3915 45.0683L48.8041 45.1391L48.8203 45.0448L48.502 44.9901L48.5236 44.8644L48.783 44.909L48.7992 44.8147L48.5398 44.7701L48.5547 44.6836L48.8631 44.7366L48.8793 44.6423L48.4766 44.5731L48.3915 45.0683Z" fill="#009B3A"/>
<path fill-rule="evenodd" clip-rule="evenodd" d="M49.452 45.2765L49.5524 45.3024L49.6043 45.1017L49.8205 45.1576C49.8655 45.1692 49.9134 45.1625 49.9534 45.1389C49.9935 45.1153 50.0226 45.0767 50.0343 45.0317C50.0459 44.9866 50.0392 44.9388 50.0156 44.8987C49.992 44.8586 49.9534 44.8295 49.9083 44.8179L49.5995 44.738L49.452 45.2765ZM49.6303 45.0013L49.8387 45.0552C49.8571 45.06 49.8767 45.0572 49.8931 45.0476C49.9095 45.0379 49.9214 45.0221 49.9262 45.0037C49.9309 44.9853 49.9282 44.9657 49.9185 44.9493C49.9089 44.9329 49.8931 44.921 49.8747 44.9163L49.6662 44.8624L49.6303 45.0013Z" fill="#009B3A"/>
<path fill-rule="evenodd" clip-rule="evenodd" d="M50.1368 45.4592L50.2357 45.4903L50.298 45.2926L50.511 45.3597C50.5554 45.3737 50.6035 45.3695 50.6448 45.348C50.686 45.3265 50.7171 45.2895 50.7311 45.2452C50.7451 45.2008 50.7408 45.1527 50.7194 45.1114C50.6979 45.0701 50.6609 45.0391 50.6165 45.0251L50.3123 44.9292L50.1368 45.4592ZM50.3292 45.1937L50.5346 45.2585C50.5527 45.2642 50.5724 45.2625 50.5893 45.2537C50.6062 45.2449 50.6189 45.2298 50.6246 45.2116C50.6303 45.1934 50.6286 45.1738 50.6198 45.1569C50.611 45.14 50.5959 45.1273 50.5777 45.1216L50.3724 45.0568L50.3292 45.1937Z" fill="#009B3A"/>
<path d="M50.5881 45.6018C50.6121 45.5258 50.6648 45.3585 50.5508 45.3225L50.4062 45.2769C50.5736 45.3297 50.5208 45.497 50.4968 45.5731" fill="#009B3A"/>
<path fill-rule="evenodd" clip-rule="evenodd" d="M51.0457 45.7654C51.1081 45.7887 51.1782 45.7836 51.2407 45.751C51.3031 45.7185 51.3528 45.6613 51.3787 45.592C51.4046 45.5226 51.4047 45.4469 51.3789 45.3813C51.3531 45.3158 51.3035 45.2659 51.2411 45.2426C51.1787 45.2192 51.1086 45.2244 51.0461 45.2569C50.9837 45.2895 50.934 45.3467 50.9081 45.416C50.8822 45.4854 50.8821 45.5611 50.9079 45.6266C50.9337 45.6922 50.9833 45.7421 51.0457 45.7654M51.082 45.6683C51.1186 45.682 51.1602 45.6778 51.1977 45.6567C51.2351 45.6356 51.2653 45.5992 51.2816 45.5556C51.2979 45.5121 51.2989 45.4648 51.2846 45.4243C51.2702 45.3838 51.2415 45.3534 51.2048 45.3397C51.1682 45.326 51.1266 45.3301 51.0891 45.3513C51.0517 45.3724 51.0215 45.4087 51.0052 45.4523C50.9889 45.4959 50.9879 45.5431 51.0022 45.5836C51.0166 45.6242 51.0453 45.6546 51.082 45.6683" fill="#009B3A"/>
<mask id="mask1_198_1720" style="mask-type:luminance" maskUnits="userSpaceOnUse" x="51" y="45" width="2" height="2">
<path d="M51.4727 45.9307L51.6953 45.4188L52.156 45.6191L51.9334 46.1311L51.4727 45.9307ZM51.8525 45.6872L51.8144 45.7749L52.0447 45.8751L52.0829 45.7873L51.8525 45.6872Z" fill="white"/>
</mask>
<g mask="url(#mask1_198_1720)">
<path fill-rule="evenodd" clip-rule="evenodd" d="M51.7031 46.0309C51.7642 46.0575 51.8345 46.056 51.8986 46.0268C51.9626 45.9975 52.0152 45.943 52.0447 45.8751C52.0743 45.8072 52.0783 45.7316 52.056 45.6648C52.0336 45.598 51.9868 45.5456 51.9257 45.519C51.8646 45.4924 51.7943 45.4939 51.7302 45.5231C51.6661 45.5523 51.6135 45.6069 51.584 45.6748C51.5545 45.7427 51.5505 45.8183 51.5728 45.8851C51.5951 45.9519 51.642 46.0043 51.7031 46.0309M51.7444 45.9358C51.7803 45.9514 51.8221 45.9494 51.8606 45.9303C51.8991 45.9112 51.9311 45.8764 51.9497 45.8338C51.9682 45.7911 51.9718 45.744 51.9595 45.7028C51.9473 45.6616 51.9202 45.6297 51.8843 45.6141C51.8485 45.5985 51.8067 45.6004 51.7682 45.6196C51.7297 45.6387 51.6976 45.6734 51.6791 45.7161C51.6605 45.7588 51.657 45.8059 51.6692 45.8471C51.6815 45.8883 51.7085 45.9202 51.7444 45.9358" fill="#009B3A"/>
</g>
<path d="M52.0434 45.8751L51.8496 45.7908L51.8178 45.864L52.0116 45.9482L52.0434 45.8751Z" fill="#009B3A"/>
<path d="M52.0438 45.8751L51.9707 45.8433L51.8594 46.0993L51.9325 46.1311L52.0438 45.8751Z" fill="#009B3A"/>
<path fill-rule="evenodd" clip-rule="evenodd" d="M52.1201 46.2183L52.2128 46.2646L52.3054 46.079L52.5052 46.1787C52.5468 46.1994 52.595 46.2028 52.6391 46.188C52.6833 46.1733 52.7197 46.1416 52.7405 46.0999C52.7612 46.0583 52.7646 46.0101 52.7498 45.966C52.7351 45.9219 52.7034 45.8854 52.6617 45.8646L52.3763 45.7223L52.1201 46.2183ZM52.3516 45.9862L52.5443 46.0823C52.5613 46.0908 52.581 46.0922 52.5991 46.0861C52.6171 46.0801 52.6321 46.0671 52.6406 46.0501C52.649 46.0331 52.6504 46.0134 52.6444 45.9953C52.6383 45.9773 52.6254 45.9624 52.6083 45.9539L52.4157 45.8578L52.3516 45.9862Z" fill="#009B3A"/>
<path d="M52.5448 46.43C52.5804 46.3587 52.6587 46.2017 52.5516 46.1483L52.416 46.0807C52.573 46.159 52.4947 46.316 52.4592 46.3873" fill="#009B3A"/>
<path d="M52.7525 46.5394L53.1897 46.7868L53.2408 46.6966L52.8868 46.4963L52.9575 46.3714L53.2351 46.5285L53.2822 46.4452L53.0046 46.2881L53.0596 46.1909L53.3927 46.3794L53.4438 46.2892L53.0273 46.0536L52.7525 46.5394Z" fill="#009B3A"/>
<path d="M53.5662 46.8127C53.5363 46.8597 53.5667 46.9122 53.6339 46.9551C53.7012 46.9979 53.747 46.9964 53.7663 46.9661C53.8274 46.8703 53.4744 46.7305 53.5832 46.5634C53.677 46.4199 53.8375 46.5316 53.898 46.5702C53.9585 46.6087 54.0557 46.7085 53.9801 46.8234L53.8776 46.7581C53.9097 46.7076 53.8744 46.6592 53.8206 46.6249C53.7685 46.5917 53.7262 46.5765 53.6951 46.6253C53.6431 46.7032 53.989 46.8503 53.883 47.0168C53.8048 47.1395 53.6687 47.086 53.5779 47.0281C53.5006 46.9788 53.385 46.8627 53.4603 46.7452L53.5662 46.8127Z" fill="#009B3A"/>
<path d="M54.1651 47.2086C54.1327 47.2541 54.1603 47.3081 54.2252 47.3544C54.2901 47.4007 54.336 47.4015 54.3569 47.3724C54.4229 47.2799 54.0777 47.1218 54.1951 46.9607C54.2962 46.8222 54.4507 46.9422 54.5091 46.9839C54.5675 47.0255 54.6594 47.1302 54.5779 47.2411L54.4789 47.1704C54.5136 47.1217 54.4809 47.0715 54.4289 47.0344C54.3786 46.9985 54.3371 46.9812 54.3036 47.0283C54.2475 47.1034 54.5853 47.2684 54.4707 47.4291C54.3862 47.5476 54.2531 47.4869 54.1655 47.4244C54.0908 47.3712 53.9815 47.2491 54.0628 47.1357L54.1651 47.2086Z" fill="#009B3A"/>
<path fill-rule="evenodd" clip-rule="evenodd" d="M54.7319 47.8509C54.784 47.8924 54.8524 47.9091 54.9218 47.8975C54.9913 47.8859 55.0562 47.8468 55.1022 47.7888C55.1483 47.7309 55.1718 47.6589 55.1675 47.5886C55.1632 47.5183 55.1315 47.4555 55.0794 47.414C55.0273 47.3726 54.959 47.3558 54.8895 47.3675C54.8201 47.3791 54.7551 47.4182 54.7091 47.4761C54.663 47.534 54.6395 47.6061 54.6438 47.6764C54.6481 47.7466 54.6798 47.8094 54.7319 47.8509M54.7964 47.7698C54.8271 47.7941 54.8679 47.803 54.9101 47.7945C54.9522 47.786 54.9921 47.7607 55.0211 47.7243C55.0501 47.6879 55.0657 47.6433 55.0645 47.6003C55.0633 47.5574 55.0455 47.5195 55.0149 47.4952C54.9842 47.4708 54.9434 47.4619 54.9012 47.4705C54.8591 47.479 54.8192 47.5042 54.7902 47.5406C54.7612 47.5771 54.7456 47.6216 54.7468 47.6646C54.748 47.7076 54.7658 47.7454 54.7964 47.7698" fill="#009B3A"/>
<path d="M44.8711 45.4185L44.7935 45.6574L44.9129 45.6963" fill="white"/>
<path d="M44.8711 45.4185L44.9487 45.6574L44.8293 45.6963" fill="white"/>
<path d="M45.1094 45.5921H44.8582V45.7177" fill="white"/>
<path d="M45.1094 45.5921L44.9062 45.7398L44.8323 45.6381" fill="white"/>
<path d="M44.6309 45.5921L44.8341 45.7398L44.9079 45.6381" fill="white"/>
<path d="M44.6309 45.5921H44.8821V45.7177" fill="white"/>
<path d="M45.0176 45.873L44.94 45.6341L44.8205 45.6729" fill="white"/>
<path d="M45.0176 45.873L44.8144 45.7253L44.8882 45.6237" fill="white"/>
<path d="M44.7227 45.8729L44.9259 45.7253L44.8521 45.6237" fill="white"/>
<path d="M44.7227 45.8729L44.8003 45.634L44.9197 45.6729" fill="white"/>
<path d="M45.3867 47.8826L45.3091 48.1215L45.4285 48.1603" fill="white"/>
<path d="M45.3867 47.8826L45.4643 48.1215L45.3449 48.1603" fill="white"/>
<path d="M45.627 48.0562H45.3758V48.1818" fill="white"/>
<path d="M45.627 48.0562L45.4237 48.2038L45.3499 48.1022" fill="white"/>
<path d="M45.1484 48.0562L45.3517 48.2038L45.4255 48.1022" fill="white"/>
<path d="M45.1484 48.0562H45.3996V48.1818" fill="white"/>
<path d="M45.5352 48.337L45.4575 48.0981L45.3381 48.1369" fill="white"/>
<path d="M45.5352 48.337L45.3319 48.1894L45.4058 48.0878" fill="white"/>
<path d="M45.2402 48.337L45.4435 48.1894L45.3696 48.0878" fill="white"/>
<path d="M45.2402 48.337L45.3179 48.0981L45.4373 48.1369" fill="white"/>
<path d="M44.6699 48.4508L44.6052 48.6499L44.7048 48.6822" fill="white"/>
<path d="M44.6699 48.4508L44.7346 48.6499L44.6351 48.6822" fill="white"/>
<path d="M44.8711 48.5954H44.6618V48.7001" fill="white"/>
<path d="M44.8711 48.5954L44.7017 48.7185L44.6402 48.6338" fill="white"/>
<path d="M44.4707 48.5954L44.6401 48.7185L44.7016 48.6338" fill="white"/>
<path d="M44.4707 48.5954H44.68V48.7001" fill="white"/>
<path d="M44.7949 48.8295L44.7302 48.6304L44.6307 48.6627" fill="white"/>
<path d="M44.7949 48.8295L44.6256 48.7064L44.6871 48.6218" fill="white"/>
<path d="M44.5488 48.8295L44.7182 48.7064L44.6567 48.6218" fill="white"/>
<path d="M44.5488 48.8295L44.6135 48.6304L44.7131 48.6627" fill="white"/>
<path d="M45.9629 47.6554L45.9259 47.7691L45.9828 47.7876" fill="white"/>
<path d="M45.9629 47.6554L45.9999 47.7691L45.943 47.7876" fill="white"/>
<path d="M46.0762 47.738H45.9566V47.7978" fill="white"/>
<path d="M46.0762 47.738L45.9794 47.8083L45.9442 47.7599" fill="white"/>
<path d="M45.8477 47.738L45.9444 47.8083L45.9796 47.7599" fill="white"/>
<path d="M45.8477 47.738H45.9673V47.7978" fill="white"/>
<path d="M46.0312 47.8717L45.9943 47.758L45.9374 47.7765" fill="white"/>
<path d="M46.0312 47.8717L45.9345 47.8014L45.9696 47.753" fill="white"/>
<path d="M45.8926 47.8717L45.9893 47.8014L45.9542 47.753" fill="white"/>
<path d="M45.8926 47.8717L45.9295 47.758L45.9864 47.7765" fill="white"/>
<path d="M46.6074 48.5066L46.5427 48.7057L46.6423 48.738" fill="white"/>
<path d="M46.6074 48.5066L46.6721 48.7057L46.5726 48.738" fill="white"/>
<path d="M46.8066 48.6513H46.5973V48.7559" fill="white"/>
<path d="M46.8066 48.6513L46.6373 48.7743L46.5758 48.6896" fill="white"/>
<path d="M46.4082 48.6513L46.5776 48.7743L46.6391 48.6896" fill="white"/>
<path d="M46.4082 48.6513H46.6175V48.7559" fill="white"/>
<path d="M46.7305 48.8853L46.6658 48.6862L46.5662 48.7186" fill="white"/>
<path d="M46.7305 48.8853L46.5611 48.7623L46.6226 48.6776" fill="white"/>
<path d="M46.4844 48.8853L46.6537 48.7623L46.5922 48.6776" fill="white"/>
<path d="M46.4844 48.8853L46.5491 48.6862L46.6486 48.7186" fill="white"/>
<path d="M46.4316 49.1306L46.3799 49.2899L46.4595 49.3158" fill="white"/>
<path d="M46.4316 49.1306L46.4834 49.2899L46.4038 49.3158" fill="white"/>
<path d="M46.5918 49.2463H46.4243V49.3301" fill="white"/>
<path d="M46.5918 49.2463L46.4563 49.3448L46.4071 49.277" fill="white"/>
<path d="M46.2734 49.2463L46.4089 49.3448L46.4581 49.277" fill="white"/>
<path d="M46.2734 49.2463H46.4409V49.3301" fill="white"/>
<path d="M46.5312 49.4336L46.4795 49.2743L46.3999 49.3002" fill="white"/>
<path d="M46.5312 49.4336L46.3958 49.3351L46.445 49.2674" fill="white"/>
<path d="M46.334 49.4336L46.4695 49.3351L46.4202 49.2674" fill="white"/>
<path d="M46.334 49.4336L46.3857 49.2743L46.4654 49.3002" fill="white"/>
<path d="M51.4707 44.653L51.3931 44.8919L51.5125 44.9307" fill="white"/>
<path d="M51.4707 44.653L51.5483 44.8919L51.4289 44.9307" fill="white"/>
<path d="M51.7109 44.8266H51.4597V44.9522" fill="white"/>
<path d="M51.7109 44.8266L51.5077 44.9742L51.4339 44.8726" fill="white"/>
<path d="M51.2344 44.8266L51.4376 44.9742L51.5114 44.8726" fill="white"/>
<path d="M51.2344 44.8266H51.4856V44.9522" fill="white"/>
<path d="M51.6211 45.1074L51.5435 44.8685L51.424 44.9073" fill="white"/>
<path d="M51.6211 45.1074L51.4179 44.9598L51.4917 44.8582" fill="white"/>
<path d="M51.3242 45.1074L51.5274 44.9598L51.4536 44.8581" fill="white"/>
<path d="M51.3242 45.1074L51.4018 44.8685L51.5213 44.9073" fill="white"/>
<path d="M53.7598 48.5285L53.6821 48.7674L53.8016 48.8063" fill="white"/>
<path d="M53.7598 48.5285L53.8374 48.7674L53.7179 48.8063" fill="white"/>
<path d="M54 48.7021H53.7488V48.8277" fill="white"/>
<path d="M54 48.7021L53.7968 48.8498L53.723 48.7482" fill="white"/>
<path d="M53.5215 48.7021L53.7247 48.8498L53.7985 48.7482" fill="white"/>
<path d="M53.5215 48.7021H53.7727V48.8277" fill="white"/>
<path d="M53.9082 48.983L53.8306 48.7441L53.7111 48.7829" fill="white"/>
<path d="M53.9082 48.983L53.705 48.8353L53.7788 48.7337" fill="white"/>
<path d="M53.6133 48.983L53.8165 48.8353L53.7427 48.7337" fill="white"/>
<path d="M53.6133 48.983L53.6909 48.7441L53.8104 48.7829" fill="white"/>
<path d="M54.5762 48.6681L54.5244 48.8274L54.6041 48.8532" fill="white"/>
<path d="M54.5762 48.6681L54.6279 48.8274L54.5483 48.8532" fill="white"/>
<path d="M54.7344 48.7838H54.5669V48.8676" fill="white"/>
<path d="M54.7344 48.7838L54.5989 48.8823L54.5497 48.8145" fill="white"/>
<path d="M54.416 48.7838L54.5515 48.8823L54.6007 48.8145" fill="white"/>
<path d="M54.416 48.7838H54.5835V48.8676" fill="white"/>
<path d="M54.6738 48.971L54.6221 48.8118L54.5424 48.8377" fill="white"/>
<path d="M54.6738 48.971L54.5383 48.8726L54.5876 48.8049" fill="white"/>
<path d="M54.4766 48.971L54.612 48.8726L54.5628 48.8049" fill="white"/>
<path d="M54.4766 48.971L54.5283 48.8118L54.6079 48.8377" fill="white"/>
<path d="M54 49.0888L53.9353 49.2878L54.0349 49.3202" fill="white"/>
<path d="M54 49.0888L54.0647 49.2878L53.9651 49.3202" fill="white"/>
<path d="M54.2012 49.2334H53.9918V49.3381" fill="white"/>
<path d="M54.2012 49.2334L54.0318 49.3564L53.9703 49.2718" fill="white"/>
<path d="M53.8008 49.2334L53.9701 49.3564L54.0317 49.2718" fill="white"/>
<path d="M53.8008 49.2334H54.0101V49.3381" fill="white"/>
<path d="M54.125 49.4674L54.0603 49.2683L53.9608 49.3007" fill="white"/>
<path d="M54.125 49.4674L53.9557 49.3444L54.0172 49.2597" fill="white"/>
<path d="M53.8789 49.4674L54.0483 49.3444L53.9867 49.2597" fill="white"/>
<path d="M53.8789 49.4674L53.9436 49.2683L54.0431 49.3007" fill="white"/>
<path d="M52.5898 50.3168L52.5252 50.5159L52.6247 50.5482" fill="white"/>
<path d="M52.5898 50.3168L52.6545 50.5159L52.555 50.5482" fill="white"/>
<path d="M52.7871 50.4615H52.5778V50.5661" fill="white"/>
<path d="M52.7871 50.4615L52.6178 50.5845L52.5562 50.4998" fill="white"/>
<path d="M52.3887 50.4614L52.558 50.5845L52.6195 50.4998" fill="white"/>
<path d="M52.3887 50.4614H52.598V50.5661" fill="white"/>
<path d="M52.7109 50.6955L52.6463 50.4964L52.5467 50.5287" fill="white"/>
<path d="M52.7109 50.6955L52.5416 50.5724L52.6031 50.4878" fill="white"/>
<path d="M52.4648 50.6955L52.6342 50.5725L52.5727 50.4878" fill="white"/>
<path d="M52.4648 50.6955L52.5295 50.4964L52.6291 50.5288" fill="white"/>
<path d="M52.5801 50.9488L52.5283 51.108L52.608 51.1339" fill="white"/>
<path d="M52.5801 50.9488L52.6318 51.108L52.5522 51.1339" fill="white"/>
<path d="M52.7402 51.0645H52.5728V51.1482" fill="white"/>
<path d="M52.7402 51.0645L52.6048 51.1629L52.5555 51.0952" fill="white"/>
<path d="M52.4219 51.0645L52.5574 51.1629L52.6066 51.0952" fill="white"/>
<path d="M52.4219 51.0645H52.5893V51.1482" fill="white"/>
<path d="M52.6797 51.2517L52.6279 51.0925L52.5483 51.1183" fill="white"/>
<path d="M52.6797 51.2517L52.5442 51.1533L52.5934 51.0855" fill="white"/>
<path d="M52.4824 51.2517L52.6179 51.1533L52.5687 51.0855" fill="white"/>
<path d="M52.4824 51.2517L52.5342 51.0925L52.6138 51.1183" fill="white"/>
<path d="M53.1699 49.8962L53.1182 50.0554L53.1978 50.0813" fill="white"/>
<path d="M53.1699 49.8962L53.2217 50.0554L53.142 50.0813" fill="white"/>
<path d="M53.3301 50.0119H53.1626V50.0956" fill="white"/>
<path d="M53.3301 50.0119L53.1946 50.1103L53.1454 50.0426" fill="white"/>
<path d="M53.0117 50.0119L53.1472 50.1103L53.1964 50.0426" fill="white"/>
<path d="M53.0117 50.0119H53.1792V50.0956" fill="white"/>
<path d="M53.2695 50.1991L53.2178 50.0398L53.1381 50.0657" fill="white"/>
<path d="M53.2695 50.1991L53.1341 50.1007L53.1833 50.0329" fill="white"/>
<path d="M53.0723 50.1991L53.2077 50.1007L53.1585 50.0329" fill="white"/>
<path d="M53.0723 50.1991L53.124 50.0398L53.2036 50.0657" fill="white"/>
<path d="M53.6406 49.5592L53.5759 49.7583L53.6755 49.7907" fill="white"/>
<path d="M53.6406 49.5592L53.7053 49.7583L53.6058 49.7907" fill="white"/>
<path d="M53.8398 49.7039H53.6305V49.8085" fill="white"/>
<path d="M53.8398 49.7039L53.6705 49.8269L53.609 49.7422" fill="white"/>
<path d="M53.4414 49.7039L53.6108 49.8269L53.6723 49.7422" fill="white"/>
<path d="M53.4414 49.7039H53.6507V49.8085" fill="white"/>
<path d="M53.7637 49.9379L53.699 49.7388L53.5994 49.7712" fill="white"/>
<path d="M53.7637 49.9379L53.5943 49.8149L53.6558 49.7302" fill="white"/>
<path d="M53.5176 49.9379L53.6869 49.8149L53.6254 49.7302" fill="white"/>
<path d="M53.5176 49.9379L53.5823 49.7388L53.6818 49.7712" fill="white"/>
<path d="M52.5664 49.7845L52.5147 49.9438L52.5943 49.9697" fill="white"/>
<path d="M52.5664 49.7845L52.6182 49.9438L52.5385 49.9697" fill="white"/>
<path d="M52.7246 49.9002H52.5571V49.984" fill="white"/>
<path d="M52.7246 49.9002L52.5891 49.9987L52.5399 49.9309" fill="white"/>
<path d="M52.4062 49.9002L52.5417 49.9987L52.5909 49.9309" fill="white"/>
<path d="M52.4062 49.9002H52.5737V49.984" fill="white"/>
<path d="M52.6641 50.0875L52.6123 49.9282L52.5327 49.9541" fill="white"/>
<path d="M52.6641 50.0875L52.5286 49.989L52.5778 49.9213" fill="white"/>
<path d="M52.4668 50.0875L52.6023 49.989L52.5531 49.9213" fill="white"/>
<path d="M52.4668 50.0875L52.5185 49.9282L52.5982 49.9541" fill="white"/>
<path d="M47.4219 46.7523L47.3572 46.9513L47.4567 46.9837" fill="white"/>
<path d="M47.4219 46.7523L47.4866 46.9513L47.387 46.9837" fill="white"/>
<path d="M47.6191 46.8969H47.4098V47.0016" fill="white"/>
<path d="M47.6191 46.8969L47.4498 47.0199L47.3883 46.9353" fill="white"/>
<path d="M47.2227 46.8969L47.392 47.0199L47.4535 46.9353" fill="white"/>
<path d="M47.2227 46.8969H47.432V47.0016" fill="white"/>
<path d="M47.5449 47.1309L47.4802 46.9318L47.3807 46.9642" fill="white"/>
<path d="M47.5449 47.1309L47.3756 47.0079L47.4371 46.9232" fill="white"/>
<path d="M47.2969 47.1309L47.4662 47.0079L47.4047 46.9232" fill="white"/>
<path d="M47.2969 47.1309L47.3616 46.9319L47.4611 46.9642" fill="white"/>
<path d="M51.248 46.2598L51.1963 46.4191L51.2759 46.445" fill="white"/>
<path d="M51.248 46.2598L51.2998 46.4191L51.2202 46.445" fill="white"/>
<path d="M51.4062 46.3756H51.2388V46.4593" fill="white"/>
<path d="M51.4062 46.3756L51.2708 46.474L51.2216 46.4062" fill="white"/>
<path d="M51.0898 46.3755L51.2253 46.474L51.2745 46.4062" fill="white"/>
<path d="M51.0898 46.3755H51.2573V46.4593" fill="white"/>
<path d="M51.3477 46.5628L51.2959 46.4035L51.2163 46.4294" fill="white"/>
<path d="M51.3477 46.5628L51.2122 46.4643L51.2614 46.3966" fill="white"/>
<path d="M51.1504 46.5628L51.2859 46.4643L51.2367 46.3966" fill="white"/>
<path d="M51.1504 46.5628L51.2021 46.4035L51.2818 46.4294" fill="white"/>
<path d="M49.6543 49.1027L49.5767 49.3416L49.6961 49.3804" fill="white"/>
<path d="M49.6543 49.1027L49.7319 49.3416L49.6125 49.3804" fill="white"/>
<path d="M49.8926 49.2763H49.6414V49.4019" fill="white"/>
<path d="M49.8926 49.2763L49.6894 49.4239L49.6155 49.3223" fill="white"/>
<path d="M49.416 49.2763L49.6192 49.4239L49.6931 49.3223" fill="white"/>
<path d="M49.416 49.2763H49.6672V49.4019" fill="white"/>
<path d="M49.8027 49.5571L49.7251 49.3182L49.6057 49.357" fill="white"/>
<path d="M49.8027 49.5571L49.5995 49.4095L49.6733 49.3079" fill="white"/>
<path d="M49.5059 49.5571L49.7091 49.4095L49.6353 49.3079" fill="white"/>
<path d="M49.5059 49.5571L49.5835 49.3182L49.7029 49.357" fill="white"/>
<path d="M50.332 47.9803L50.2673 48.1794L50.3669 48.2117" fill="white"/>
<path d="M50.332 47.9803L50.3967 48.1794L50.2972 48.2117" fill="white"/>
<path d="M50.5312 48.125H50.3219V48.2296" fill="white"/>
<path d="M50.5312 48.125L50.3619 48.248L50.3004 48.1633" fill="white"/>
<path d="M50.1348 48.125L50.3041 48.248L50.3656 48.1633" fill="white"/>
<path d="M50.1348 48.125H50.3441V48.2296" fill="white"/>
<path d="M50.457 48.359L50.3923 48.1599L50.2928 48.1923" fill="white"/>
<path d="M50.457 48.359L50.2877 48.236L50.3492 48.1513" fill="white"/>
<path d="M50.2109 48.359L50.3803 48.236L50.3188 48.1513" fill="white"/>
<path d="M50.2109 48.359L50.2756 48.1599L50.3752 48.1923" fill="white"/>
<path d="M49.6543 47.454L49.5896 47.6531L49.6892 47.6854" fill="white"/>
<path d="M49.6543 47.454L49.719 47.6531L49.6194 47.6854" fill="white"/>
<path d="M49.8535 47.5986H49.6442V47.7033" fill="white"/>
<path d="M49.8535 47.5986L49.6842 47.7217L49.6226 47.637" fill="white"/>
<path d="M49.457 47.5986L49.6264 47.7217L49.6879 47.637" fill="white"/>
<path d="M49.457 47.5986H49.6664V47.7033" fill="white"/>
<path d="M49.7793 47.8327L49.7146 47.6336L49.6151 47.6659" fill="white"/>
<path d="M49.7793 47.8327L49.6099 47.7096L49.6715 47.625" fill="white"/>
<path d="M49.5332 47.8327L49.7026 47.7096L49.641 47.625" fill="white"/>
<path d="M49.5332 47.8327L49.5979 47.6336L49.6974 47.6659" fill="white"/>
<path d="M49.0645 48.0222L49.0127 48.1814L49.0923 48.2073" fill="white"/>
<path d="M49.0645 48.0222L49.1162 48.1814L49.0366 48.2073" fill="white"/>
<path d="M49.2246 48.1379H49.0571V48.2216" fill="white"/>
<path d="M49.2246 48.1379L49.0891 48.2363L49.0399 48.1686" fill="white"/>
<path d="M48.9062 48.1379L49.0417 48.2363L49.0909 48.1686" fill="white"/>
<path d="M48.9062 48.1379H49.0737V48.2216" fill="white"/>
<path d="M49.1621 48.3251L49.1104 48.1659L49.0307 48.1917" fill="white"/>
<path d="M49.1621 48.3251L49.0266 48.2267L49.0758 48.1589" fill="white"/>
<path d="M48.9648 48.3251L49.1003 48.2267L49.0511 48.1589" fill="white"/>
<path d="M48.9648 48.3251L49.0166 48.1659L49.0962 48.1917" fill="white"/>
<path d="M49.3594 48.4767L49.3224 48.5905L49.3793 48.609" fill="white"/>
<path d="M49.3594 48.4767L49.3963 48.5905L49.3395 48.609" fill="white"/>
<path d="M49.4727 48.5594H49.353V48.6192" fill="white"/>
<path d="M49.4727 48.5594L49.3759 48.6297L49.3407 48.5813" fill="white"/>
<path d="M49.2461 48.5594L49.3429 48.6297L49.378 48.5813" fill="white"/>
<path d="M49.2461 48.5594H49.3657V48.6192" fill="white"/>
<path d="M49.4297 48.6931L49.3927 48.5793L49.3358 48.5978" fill="white"/>
<path d="M49.4297 48.6931L49.3329 48.6228L49.3681 48.5744" fill="white"/>
<path d="M49.2891 48.6931L49.3858 48.6228L49.3507 48.5744" fill="white"/>
<path d="M49.2891 48.6931L49.326 48.5793L49.3829 48.5978" fill="white"/>
<path d="M51.4082 50.4603L51.3435 50.6594L51.4431 50.6918" fill="white"/>
<path d="M51.4082 50.4603L51.4729 50.6594L51.3733 50.6918" fill="white"/>
<path d="M51.6094 50.605H51.4V50.7097" fill="white"/>
<path d="M51.6094 50.605L51.44 50.728L51.3785 50.6434" fill="white"/>
<path d="M51.209 50.605L51.3783 50.728L51.4399 50.6434" fill="white"/>
<path d="M51.209 50.605H51.4183V50.7097" fill="white"/>
<path d="M51.5332 50.839L51.4685 50.6399L51.369 50.6723" fill="white"/>
<path d="M51.5332 50.839L51.3639 50.716L51.4254 50.6313" fill="white"/>
<path d="M51.2871 50.839L51.4565 50.716L51.3949 50.6313" fill="white"/>
<path d="M51.2871 50.839L51.3518 50.6399L51.4513 50.6723" fill="white"/>
<path d="M51.9102 49.9839L51.8584 50.1431L51.938 50.169" fill="white"/>
<path d="M51.9102 49.9839L51.9619 50.1431L51.8823 50.169" fill="white"/>
<path d="M52.0703 50.0996H51.9029V50.1833" fill="white"/>
<path d="M52.0703 50.0996L51.9348 50.198L51.8856 50.1303" fill="white"/>
<path d="M51.752 50.0996L51.8874 50.198L51.9366 50.1303" fill="white"/>
<path d="M51.752 50.0996H51.9194V50.1833" fill="white"/>
<path d="M52.0098 50.2868L51.958 50.1276L51.8784 50.1534" fill="white"/>
<path d="M52.0098 50.2868L51.8743 50.1884L51.9235 50.1206" fill="white"/>
<path d="M51.8125 50.2868L51.948 50.1884L51.8988 50.1206" fill="white"/>
<path d="M51.8125 50.2868L51.8642 50.1276L51.9439 50.1534" fill="white"/>
<path d="M50.9453 49.8403L50.8936 49.9996L50.9732 50.0255" fill="white"/>
<path d="M50.9453 49.8403L50.9971 49.9996L50.9174 50.0255" fill="white"/>
<path d="M51.1055 49.956H50.938V50.0398" fill="white"/>
<path d="M51.1055 49.956L50.97 50.0545L50.9208 49.9867" fill="white"/>
<path d="M50.7871 49.9561L50.9226 50.0545L50.9718 49.9867" fill="white"/>
<path d="M50.7871 49.9561H50.9546V50.0398" fill="white"/>
<path d="M51.0449 50.1433L50.9932 49.984L50.9135 50.0099" fill="white"/>
<path d="M51.0449 50.1433L50.9094 50.0448L50.9587 49.9771" fill="white"/>
<path d="M50.8477 50.1433L50.9831 50.0448L50.9339 49.9771" fill="white"/>
<path d="M50.8477 50.1433L50.8994 49.984L50.979 50.0099" fill="white"/>
<path d="M47.3027 49.5812L47.2251 49.8201L47.3446 49.8589" fill="white"/>
<path d="M47.3027 49.5812L47.3804 49.8201L47.2609 49.8589" fill="white"/>
<path d="M47.541 49.7547H47.2898V49.8803" fill="white"/>
<path d="M47.541 49.7547L47.3378 49.9024L47.264 49.8008" fill="white"/>
<path d="M47.0625 49.7547L47.2657 49.9024L47.3395 49.8008" fill="white"/>
<path d="M47.0625 49.7547H47.3137V49.8803" fill="white"/>
<path d="M47.4492 50.0356L47.3716 49.7967L47.2521 49.8355" fill="white"/>
<path d="M47.4492 50.0356L47.246 49.8879L47.3198 49.7863" fill="white"/>
<path d="M47.1543 50.0356L47.3575 49.8879L47.2837 49.7863" fill="white"/>
<path d="M47.1543 50.0356L47.2319 49.7967L47.3514 49.8355" fill="white"/>
<path d="M49.6543 51.2239L49.6284 51.3035L49.6682 51.3165" fill="white"/>
<path d="M49.6543 51.2239L49.6802 51.3035L49.6404 51.3165" fill="white"/>
<path d="M49.7344 51.2817H49.6506V51.3236" fill="white"/>
<path d="M49.7344 51.2817L49.6666 51.331L49.642 51.2971" fill="white"/>
<path d="M49.5742 51.2818L49.642 51.331L49.6666 51.2971" fill="white"/>
<path d="M49.5742 51.2818H49.6579V51.3236" fill="white"/>
<path d="M49.7031 51.3754L49.6773 51.2957L49.6374 51.3087" fill="white"/>
<path d="M49.7031 51.3754L49.6354 51.3262L49.66 51.2923" fill="white"/>
<path d="M49.6055 51.3754L49.6732 51.3262L49.6486 51.2923" fill="white"/>
<path d="M49.6055 51.3754L49.6313 51.2957L49.6712 51.3087" fill="white"/>
</g>
</g>
</g>
<path d="M71.152 47.288C71.7493 47.3947 72.256 47.7093 72.672 48.232C73.088 48.7547 73.296 49.3467 73.296 50.008C73.296 50.5733 73.1467 51.0853 72.848 51.544C72.56 51.992 72.1387 52.3493 71.584 52.616C71.0293 52.872 70.384 53 69.648 53H65.2V41.88H69.44C70.1973 41.88 70.848 42.008 71.392 42.264C71.936 42.52 72.3467 42.8667 72.624 43.304C72.9013 43.7307 73.04 44.2107 73.04 44.744C73.04 45.384 72.8693 45.9173 72.528 46.344C72.1867 46.7707 71.728 47.0853 71.152 47.288ZM67.024 46.552H69.28C69.8773 46.552 70.3413 46.4187 70.672 46.152C71.0133 45.8747 71.184 45.48 71.184 44.968C71.184 44.4667 71.0133 44.0773 70.672 43.8C70.3413 43.512 69.8773 43.368 69.28 43.368H67.024V46.552ZM69.488 51.512C70.1067 51.512 70.592 51.3627 70.944 51.064C71.296 50.7653 71.472 50.3493 71.472 49.816C71.472 49.272 71.2853 48.84 70.912 48.52C70.5387 48.2 70.0427 48.04 69.424 48.04H67.024V51.512H69.488ZM76.9741 45.464C77.2408 45.016 77.5928 44.6693 78.0301 44.424C78.4781 44.168 79.0061 44.04 79.6141 44.04V45.928H79.1501C78.4355 45.928 77.8915 46.1093 77.5181 46.472C77.1555 46.8347 76.9741 47.464 76.9741 48.36V53H75.1501V44.184H76.9741V45.464ZM80.5548 48.552C80.5548 47.6667 80.7361 46.8827 81.0988 46.2C81.4721 45.5173 81.9734 44.9893 82.6028 44.616C83.2428 44.232 83.9468 44.04 84.7148 44.04C85.4081 44.04 86.0108 44.1787 86.5228 44.456C87.0454 44.7227 87.4614 45.0587 87.7708 45.464V44.184H89.6108V53H87.7708V51.688C87.4614 52.104 87.0401 52.4507 86.5068 52.728C85.9734 53.0053 85.3654 53.144 84.6828 53.144C83.9254 53.144 83.2321 52.952 82.6028 52.568C81.9734 52.1733 81.4721 51.6293 81.0988 50.936C80.7361 50.232 80.5548 49.4373 80.5548 48.552ZM87.7708 48.584C87.7708 47.976 87.6428 47.448 87.3868 47C87.1414 46.552 86.8161 46.2107 86.4108 45.976C86.0054 45.7413 85.5681 45.624 85.0988 45.624C84.6294 45.624 84.1921 45.7413 83.7868 45.976C83.3814 46.2 83.0508 46.536 82.7948 46.984C82.5494 47.4213 82.4268 47.944 82.4268 48.552C82.4268 49.16 82.5494 49.6933 82.7948 50.152C83.0508 50.6107 83.3814 50.9627 83.7868 51.208C84.2028 51.4427 84.6401 51.56 85.0988 51.56C85.5681 51.56 86.0054 51.4427 86.4108 51.208C86.8161 50.9733 87.1414 50.632 87.3868 50.184C87.6428 49.7253 87.7708 49.192 87.7708 48.584ZM93.4945 51.512H97.4945V53H91.3825V51.512L95.3985 45.672H91.3825V44.184H97.4945V45.672L93.4945 51.512ZM100.21 43.016C99.8791 43.016 99.6017 42.904 99.3777 42.68C99.1537 42.456 99.0417 42.1787 99.0417 41.848C99.0417 41.5173 99.1537 41.24 99.3777 41.016C99.6017 40.792 99.8791 40.68 100.21 40.68C100.53 40.68 100.802 40.792 101.026 41.016C101.25 41.24 101.362 41.5173 101.362 41.848C101.362 42.1787 101.25 42.456 101.026 42.68C100.802 42.904 100.53 43.016 100.21 43.016ZM101.106 44.184V53H99.2817V44.184H101.106ZM105.197 41.16V53H103.373V41.16H105.197Z" fill="#050810"/>
</g>
<defs>
<filter id="filter0_d_198_1720" x="0" y="0.632791" width="145" height="96" filterUnits="userSpaceOnUse" color-interpolation-filters="sRGB">
<feFlood flood-opacity="0" result="BackgroundImageFix"/>
<feColorMatrix in="SourceAlpha" type="matrix" values="0 0 0 0 0 0 0 0 0 0 0 0 0 0 0 0 0 0 127 0" result="hardAlpha"/>
<feOffset dy="1.63279"/>
<feGaussianBlur stdDeviation="15"/>
<feComposite in2="hardAlpha" operator="out"/>
<feColorMatrix type="matrix" values="0 0 0 0 0 0 0 0 0 0 0 0 0 0 0 0 0 0 0.06 0"/>
<feBlend mode="normal" in2="BackgroundImageFix" result="effect1_dropShadow_198_1720"/>
<feBlend mode="normal" in="SourceGraphic" in2="effect1_dropShadow_198_1720" result="shape"/>
</filter>
<filter id="filter1_d_198_1720" x="23" y="24" width="54" height="54" filterUnits="userSpaceOnUse" color-interpolation-filters="sRGB">
<feFlood flood-opacity="0" result="BackgroundImageFix"/>
<feColorMatrix in="SourceAlpha" type="matrix" values="0 0 0 0 0 0 0 0 0 0 0 0 0 0 0 0 0 0 127 0" result="hardAlpha"/>
<feOffset dy="4"/>
<feGaussianBlur stdDeviation="7.5"/>
<feComposite in2="hardAlpha" operator="out"/>
<feColorMatrix type="matrix" values="0 0 0 0 0 0 0 0 0 0 0 0 0 0 0 0 0 0 0.05 0"/>
<feBlend mode="normal" in2="BackgroundImageFix" result="effect1_dropShadow_198_1720"/>
<feBlend mode="normal" in="SourceGraphic" in2="effect1_dropShadow_198_1720" result="shape"/>
</filter>
<clipPath id="clip0_198_1720">
<path d="M62 47C62 40.3726 56.6274 35 50 35V35C43.3726 35 38 40.3726 38 47V47C38 53.6274 43.3726 59 50 59V59C56.6274 59 62 53.6274 62 47V47Z" fill="white"/>
</clipPath>
<clipPath id="clip1_198_1720">
<rect width="33.4924" height="23.4447" fill="white" transform="translate(32.9082 35)"/>
</clipPath>
</defs>
</svg>
