<svg width="136" height="83" viewBox="0 0 136 83" fill="none" xmlns="http://www.w3.org/2000/svg">
<g filter="url(#filter0_d_198_1710)">
<path d="M30 33C30 23.0589 38.0589 15 48 15H88C97.9411 15 106 23.0589 106 33V33C106 42.9411 97.9411 51 88 51H48C38.0589 51 30 42.9411 30 33V33Z" fill="white" shape-rendering="crispEdges"/>
<g filter="url(#filter1_d_198_1710)">
<g clip-path="url(#clip0_198_1710)">
<path d="M62 33C62 26.3726 56.6274 21 50 21V21C43.3726 21 38 26.3726 38 33V33C38 39.6274 43.3726 45 50 45V45C56.6274 45 62 39.6274 62 33V33Z" fill="black" fill-opacity="0.2" shape-rendering="crispEdges"/>
<g clip-path="url(#clip1_198_1710)">
<path fill-rule="evenodd" clip-rule="evenodd" d="M31.2988 21.0125H68.718V43.9907H31.2988V21.0125Z" fill="white"/>
<path fill-rule="evenodd" clip-rule="evenodd" d="M31.2988 42.3182H68.7055V43.9907H31.2988V42.3182ZM31.2988 38.9108H68.7055V40.5831H31.2988V38.9108ZM31.2988 35.3286H68.7055V37.0136H31.2988V35.3286ZM31.2988 31.7714H68.7055V33.4314H31.2988V31.7714ZM31.2988 28.2017H68.7055V29.8742H31.2988V28.2017ZM31.2988 24.6321H68.7055V26.3046H31.2988V24.6321ZM31.2988 21.0125H68.7055V22.7349H31.2988V21.0125Z" fill="#CC2229"/>
<path fill-rule="evenodd" clip-rule="evenodd" d="M31.2734 21H45.6644V33.4437H31.2734V21Z" fill="#33348E"/>
<path d="M31.2988 21.0125H68.718V43.9907H31.2988V21.0125Z" stroke="#03040A" stroke-width="0.018722" stroke-miterlimit="2.613"/>
<path fill-rule="evenodd" clip-rule="evenodd" d="M32.3094 22.6226L32.7588 22.9845L32.5466 22.4478L33.0458 22.1483H32.4592L32.2969 21.5741L32.1347 22.1358H31.5605L32.0473 22.4353L31.8601 22.9845L32.3094 22.6226ZM33.5451 23.8582L33.9944 24.2202L33.7947 23.6835L34.2815 23.3839H33.6949L33.5451 22.8223L33.3828 23.3714H32.7962L33.2955 23.671L33.0958 24.2202L33.5451 23.8582ZM32.3094 25.0939L32.7588 25.4558L32.5466 24.9191L33.0458 24.6196H32.4592L32.2969 24.0579L32.1347 24.6071H31.5605L32.0473 24.9067L31.8601 25.4558L32.3094 25.0939ZM33.5451 26.342L33.9944 26.6915L33.7947 26.1548L34.2815 25.8552H33.6949L33.5451 25.2936L33.3828 25.8428H32.7962L33.2955 26.1548L33.0958 26.6915L33.5451 26.342ZM32.3094 27.5777L32.7588 27.9271L32.5466 27.3904L33.0458 27.0909H32.4592L32.2969 26.5292L32.1347 27.0784H31.5605L32.0473 27.3781L31.8601 27.9273L32.3094 27.5777ZM33.5451 28.8133L33.9944 29.1628L33.7947 28.6261L34.2815 28.3265H33.6949L33.5451 27.7649L33.3828 28.3265H32.7962L33.2955 28.6261L33.0958 29.1628L33.5451 28.8133ZM32.3094 30.049L32.7588 30.3985L32.5466 29.8618L33.0458 29.5622H32.4592L32.2969 29.0005L32.1347 29.5497H31.5605L32.0473 29.8618L31.8601 30.3985L32.3094 30.049ZM33.5451 31.2846L33.9944 31.6466L33.7947 31.1099L34.2815 30.7979H33.6949L33.5451 30.2362L33.3828 30.7979H32.7962L33.2955 31.0976L33.0958 31.6468L33.5451 31.2846ZM32.3094 32.5078L32.7588 32.8573L32.5466 32.3455L33.0458 32.0335H32.4592L32.2969 31.4718L32.1347 32.0335H31.5605L32.0473 32.3332L31.8601 32.8573L32.3094 32.5078ZM34.7807 22.6226L35.2301 22.9845L35.0304 22.4478L35.5171 22.1483H34.9305L34.7683 21.5741L34.6185 22.1358H34.0319L34.5311 22.4353L34.3314 22.9845L34.7807 22.6226ZM36.0164 23.8582L36.4657 24.2202L36.266 23.6833L36.7528 23.3838H36.1662L36.0164 22.8221L35.8541 23.3713H35.2675L35.7668 23.6708L35.5671 24.22L36.0164 23.8582ZM34.7807 25.0939L35.2301 25.4558L35.0304 24.9191L35.5171 24.6196H34.9305L34.7683 24.0579L34.6185 24.6071H34.0319L34.5311 24.9067L34.3314 25.4558L34.7807 25.0939ZM36.0164 26.342L36.4657 26.6915L36.266 26.1548L36.7528 25.8552H36.1662L36.0164 25.2936L35.8541 25.8428H35.2675L35.7668 26.1548L35.5671 26.6915L36.0164 26.342ZM34.7807 27.5777L35.2301 27.9271L35.0304 27.3904L35.5171 27.0909H34.9305L34.7683 26.5292L34.6185 27.0784H34.0319L34.5311 27.3781L34.3314 27.9271L34.7807 27.5777ZM36.0164 28.8133L36.4657 29.1628L36.266 28.6261L36.7528 28.3265H36.1662L36.0164 27.7649L35.8541 28.3265H35.2675L35.7668 28.6261L35.5671 29.1628L36.0164 28.8133ZM34.7807 30.049L35.2301 30.3985L35.0304 29.8618L35.5171 29.5622H34.9305L34.7683 29.0005L34.6185 29.5497H34.0319L34.5311 29.8618L34.3314 30.3985L34.7807 30.049ZM36.0164 31.2846L36.4657 31.6466L36.266 31.1099L36.7528 30.7979H36.1662L36.0164 30.2362L35.8541 30.7979H35.2675L35.7668 31.0976L35.5671 31.6468L36.0164 31.2846ZM34.7807 32.5078L35.2301 32.8573L35.0304 32.3455L35.5171 32.0335H34.9305L34.7683 31.4718L34.6185 32.0335H34.0319L34.5311 32.3332L34.3314 32.8573L34.7807 32.5078ZM37.252 22.6226L37.7014 22.9845L37.5017 22.4478L37.9884 22.1483H37.4018L37.252 21.5741L37.0898 22.1358H36.5032L37.0024 22.4353L36.8027 22.9845L37.252 22.6226ZM38.4877 23.8582L38.937 24.2202L38.7373 23.6835L39.2241 23.3839H38.6375L38.4877 22.8223L38.3254 23.3714H37.7388L38.2381 23.671L38.0509 24.2202L38.4877 23.8582ZM37.252 25.0939L37.7014 25.4558L37.5017 24.9191L37.9884 24.6196H37.4018L37.252 24.0579L37.0898 24.6071H36.5032L37.0024 24.9067L36.8027 25.4558L37.252 25.0939ZM38.4877 26.342L38.937 26.6915L38.7373 26.1548L39.2241 25.8552H38.6375L38.4877 25.2936L38.3254 25.8428H37.7388L38.2381 26.1548L38.0509 26.6915L38.4877 26.342ZM37.252 27.5777L37.7014 27.9271L37.5017 27.3904L37.9884 27.0909H37.4018L37.252 26.5292L37.0898 27.0784H36.5032L37.0024 27.3781L36.8027 27.9273L37.252 27.5777ZM38.4877 28.8133L38.937 29.1628L38.7373 28.6261L39.2241 28.3265H38.6375L38.4877 27.7649L38.3254 28.3265H37.7388L38.2381 28.6261L38.0509 29.1628L38.4877 28.8133ZM37.252 30.049L37.7014 30.3985L37.5017 29.8618L37.9884 29.5622H37.4018L37.252 29.0005L37.0898 29.5497H36.5032L37.0024 29.8618L36.8027 30.3985L37.252 30.049ZM38.4877 31.2846L38.937 31.6466L38.7373 31.1099L39.2241 30.7979H38.6375L38.4877 30.2362L38.3254 30.7979H37.7388L38.2381 31.0976L38.0509 31.6468L38.4877 31.2846ZM37.252 32.5078L37.7014 32.8573L37.5017 32.3455L37.9884 32.0335H37.4018L37.252 31.4718L37.0898 32.0335H36.5032L37.0024 32.3332L36.8027 32.8573L37.252 32.5078ZM39.7234 22.6226L40.1727 22.9845L39.973 22.4478L40.4598 22.1483H39.8731L39.7234 21.5741L39.5611 22.1358H38.9745L39.4737 22.4353L39.2865 22.9845L39.7234 22.6226ZM40.959 23.8582L41.4208 24.2202L41.2086 23.6835L41.6954 23.3839H41.1213L40.959 22.8223L40.7968 23.3714H40.2226L40.7094 23.671L40.5222 24.2202L40.959 23.8582ZM39.7234 25.0939L40.1727 25.4558L39.973 24.9191L40.4598 24.6196H39.8731L39.7234 24.0579L39.5611 24.6071H38.9745L39.4737 24.9067L39.2865 25.4558L39.7234 25.0939ZM40.959 26.342L41.4208 26.6915L41.2086 26.1548L41.6954 25.8552H41.1213L40.959 25.2936L40.7968 25.8428H40.2226L40.7094 26.1548L40.5222 26.6915L40.959 26.342ZM39.7234 27.5777L40.1727 27.9271L39.973 27.3904L40.4598 27.0909H39.8731L39.7234 26.5292L39.5611 27.0784H38.9745L39.4737 27.3781L39.2865 27.9273L39.7234 27.5777ZM40.959 28.8133L41.4208 29.1628L41.2086 28.6261L41.6954 28.3265H41.1213L40.959 27.7649L40.7968 28.3265H40.2226L40.7094 28.6261L40.5222 29.1628L40.959 28.8133ZM39.7234 30.049L40.1727 30.3985L39.973 29.8618L40.4598 29.5622H39.8731L39.7234 29.0005L39.5611 29.5497H38.9745L39.4737 29.8618L39.2865 30.3985L39.7234 30.049ZM40.959 31.2846L41.4208 31.6466L41.2086 31.1099L41.6954 30.7979H41.1213L40.959 30.2362L40.7968 30.7979H40.2226L40.7094 31.0976L40.5222 31.6468L40.959 31.2846ZM39.7234 32.5078L40.1727 32.8573L39.973 32.3455L40.4598 32.0335H39.8731L39.7234 31.4718L39.5611 32.0335H38.9745L39.4737 32.3332L39.2865 32.8573L39.7234 32.5078ZM42.1947 22.6226L42.6565 22.9845L42.4443 22.4478L42.9311 22.1483H42.3569L42.1947 21.5741L42.0324 22.1358H41.4583L41.945 22.4353L41.7578 22.9845L42.1947 22.6226ZM43.4303 23.8582L43.8797 24.2202L43.6799 23.6835L44.1667 23.3839H43.5926L43.4303 22.8223L43.2681 23.3714H42.6939L43.1807 23.671L42.9935 24.2202L43.4303 23.8582ZM42.1947 25.0939L42.6565 25.4558L42.4443 24.9191L42.9311 24.6196H42.3569L42.1947 24.0579L42.0324 24.6071H41.4583L41.945 24.9067L41.7578 25.4558L42.1947 25.0939ZM43.4303 26.342L43.8797 26.6915L43.6799 26.1548L44.1667 25.8552H43.5926L43.4303 25.2936L43.2681 25.8428H42.6939L43.1807 26.1548L42.9935 26.6915L43.4303 26.342ZM42.1947 27.5777L42.6565 27.9271L42.4443 27.3904L42.9311 27.0909H42.3569L42.1947 26.5292L42.0324 27.0784H41.4583L41.945 27.3781L41.7578 27.9273L42.1947 27.5777ZM43.4303 28.8133L43.8797 29.1628L43.6799 28.6261L44.1667 28.3265H43.5926L43.4303 27.7649L43.2681 28.3265H42.6939L43.1807 28.6261L42.9935 29.1628L43.4303 28.8133ZM42.1947 30.049L42.6565 30.3985L42.4443 29.8618L42.9311 29.5622H42.3569L42.1947 29.0005L42.0324 29.5497H41.4583L41.945 29.8618L41.7578 30.3985L42.1947 30.049ZM43.4303 31.2846L43.8797 31.6466L43.6799 31.1099L44.1667 30.7979H43.5926L43.4303 30.2362L43.2681 30.7979H42.6939L43.1807 31.0976L42.9935 31.6468L43.4303 31.2846ZM42.1947 32.5078L42.6565 32.8573L42.4443 32.3455L42.9311 32.0335H42.3569L42.1947 31.4718L42.0324 32.0335H41.4583L41.945 32.3332L41.7578 32.8573L42.1947 32.5078ZM44.666 22.6226L45.1153 22.9845L44.9156 22.4478L45.4024 22.1483H44.8158L44.666 21.5741L44.5037 22.1358H43.9171L44.4163 22.4353L44.2166 22.9845L44.666 22.6226ZM44.666 25.0939L45.1153 25.4558L44.9156 24.9191L45.4024 24.6196H44.8158L44.666 24.0579L44.5037 24.6071H43.9171L44.4163 24.9067L44.2166 25.4558L44.666 25.0939ZM44.666 27.5777L45.1153 27.9271L44.9156 27.3904L45.4024 27.0909H44.8158L44.666 26.5292L44.5037 27.0784H43.9171L44.4163 27.3781L44.2166 27.9273L44.666 27.5777ZM44.666 30.049L45.1153 30.3985L44.9156 29.8618L45.4024 29.5622H44.8158L44.666 29.0005L44.5037 29.5497H43.9171L44.4163 29.8618L44.2166 30.3985L44.666 30.049ZM44.666 32.5078L45.1153 32.8573L44.9156 32.3455L45.4024 32.0335H44.8158L44.666 31.4718L44.5037 32.0335H43.9171L44.4163 32.3332L44.2166 32.8573L44.666 32.5078Z" fill="white"/>
</g>
</g>
</g>
<path d="M67.008 27.88V34.968C67.008 35.8107 67.2267 36.4453 67.664 36.872C68.112 37.2987 68.7307 37.512 69.52 37.512C70.32 37.512 70.9387 37.2987 71.376 36.872C71.824 36.4453 72.048 35.8107 72.048 34.968V27.88H73.872V34.936C73.872 35.8427 73.6747 36.6107 73.28 37.24C72.8853 37.8693 72.3573 38.3387 71.696 38.648C71.0347 38.9573 70.304 39.112 69.504 39.112C68.704 39.112 67.9733 38.9573 67.312 38.648C66.6613 38.3387 66.144 37.8693 65.76 37.24C65.376 36.6107 65.184 35.8427 65.184 34.936V27.88H67.008ZM79.7829 39.112C79.0362 39.112 78.3642 38.984 77.7669 38.728C77.1695 38.4613 76.7002 38.088 76.3589 37.608C76.0175 37.128 75.8469 36.568 75.8469 35.928H77.7989C77.8415 36.408 78.0282 36.8027 78.3589 37.112C78.7002 37.4213 79.1749 37.576 79.7829 37.576C80.4122 37.576 80.9029 37.4267 81.2549 37.128C81.6069 36.8187 81.7829 36.424 81.7829 35.944C81.7829 35.5707 81.6709 35.2667 81.4469 35.032C81.2335 34.7973 80.9615 34.616 80.6309 34.488C80.3109 34.36 79.8629 34.2213 79.2869 34.072C78.5615 33.88 77.9695 33.688 77.5109 33.496C77.0629 33.2933 76.6789 32.984 76.3589 32.568C76.0389 32.152 75.8789 31.5973 75.8789 30.904C75.8789 30.264 76.0389 29.704 76.3589 29.224C76.6789 28.744 77.1269 28.376 77.7029 28.12C78.2789 27.864 78.9455 27.736 79.7029 27.736C80.7802 27.736 81.6602 28.008 82.3429 28.552C83.0362 29.0853 83.4202 29.8213 83.4949 30.76H81.4789C81.4469 30.3547 81.2549 30.008 80.9029 29.72C80.5509 29.432 80.0869 29.288 79.5109 29.288C78.9882 29.288 78.5615 29.4213 78.2309 29.688C77.9002 29.9547 77.7349 30.3387 77.7349 30.84C77.7349 31.1813 77.8362 31.464 78.0389 31.688C78.2522 31.9013 78.5189 32.072 78.8389 32.2C79.1589 32.328 79.5962 32.4667 80.1509 32.616C80.8869 32.8187 81.4842 33.0213 81.9429 33.224C82.4122 33.4267 82.8069 33.7413 83.1269 34.168C83.4575 34.584 83.6229 35.144 83.6229 35.848C83.6229 36.4133 83.4682 36.9467 83.1589 37.448C82.8602 37.9493 82.4175 38.3547 81.8309 38.664C81.2549 38.9627 80.5722 39.112 79.7829 39.112ZM92.3511 36.728H87.6951L86.8951 39H84.9911L88.9751 27.864H91.0871L95.0711 39H93.1511L92.3511 36.728ZM91.8391 35.24L90.0311 30.072L88.2071 35.24H91.8391Z" fill="#050810"/>
</g>
<defs>
<filter id="filter0_d_198_1710" x="0" y="-13.3672" width="136" height="96" filterUnits="userSpaceOnUse" color-interpolation-filters="sRGB">
<feFlood flood-opacity="0" result="BackgroundImageFix"/>
<feColorMatrix in="SourceAlpha" type="matrix" values="0 0 0 0 0 0 0 0 0 0 0 0 0 0 0 0 0 0 127 0" result="hardAlpha"/>
<feOffset dy="1.63279"/>
<feGaussianBlur stdDeviation="15"/>
<feComposite in2="hardAlpha" operator="out"/>
<feColorMatrix type="matrix" values="0 0 0 0 0 0 0 0 0 0 0 0 0 0 0 0 0 0 0.06 0"/>
<feBlend mode="normal" in2="BackgroundImageFix" result="effect1_dropShadow_198_1710"/>
<feBlend mode="normal" in="SourceGraphic" in2="effect1_dropShadow_198_1710" result="shape"/>
</filter>
<filter id="filter1_d_198_1710" x="23" y="10" width="54" height="54" filterUnits="userSpaceOnUse" color-interpolation-filters="sRGB">
<feFlood flood-opacity="0" result="BackgroundImageFix"/>
<feColorMatrix in="SourceAlpha" type="matrix" values="0 0 0 0 0 0 0 0 0 0 0 0 0 0 0 0 0 0 127 0" result="hardAlpha"/>
<feOffset dy="4"/>
<feGaussianBlur stdDeviation="7.5"/>
<feComposite in2="hardAlpha" operator="out"/>
<feColorMatrix type="matrix" values="0 0 0 0 0 0 0 0 0 0 0 0 0 0 0 0 0 0 0.05 0"/>
<feBlend mode="normal" in2="BackgroundImageFix" result="effect1_dropShadow_198_1710"/>
<feBlend mode="normal" in="SourceGraphic" in2="effect1_dropShadow_198_1710" result="shape"/>
</filter>
<clipPath id="clip0_198_1710">
<path d="M62 33C62 26.3726 56.6274 21 50 21V21C43.3726 21 38 26.3726 38 33V33C38 39.6274 43.3726 45 50 45V45C56.6274 45 62 39.6274 62 33V33Z" fill="white"/>
</clipPath>
<clipPath id="clip1_198_1710">
<rect width="37.4593" height="23" fill="white" transform="translate(31.2695 21)"/>
</clipPath>
</defs>
</svg>
