<svg width="119" height="36" viewBox="0 0 119 36" fill="none" xmlns="http://www.w3.org/2000/svg">
<g clip-path="url(#clip0_3226_2273)">
<path d="M118.648 16.6029V14.5163H116.056V11.2724L115.969 11.2993L113.535 12.044L113.487 12.0585V14.5165H109.646V13.1472C109.646 12.5096 109.789 12.0217 110.069 11.6963C110.348 11.3748 110.748 11.2114 111.257 11.2114C111.622 11.2114 112.001 11.2976 112.383 11.4676L112.478 11.5103V9.31278L112.433 9.29625C112.078 9.16839 111.594 9.104 110.994 9.104C110.238 9.104 109.552 9.26848 108.953 9.59444C108.353 9.92086 107.882 10.3868 107.552 10.9793C107.223 11.5711 107.056 12.2546 107.056 13.0109V14.5163H105.252V16.6029H107.056V25.3935H109.646V16.6029H113.487V22.1892C113.487 24.4898 114.573 25.6557 116.713 25.6557C117.064 25.6557 117.435 25.6145 117.813 25.5338C118.197 25.451 118.459 25.3682 118.614 25.2798L118.648 25.2596V23.1537L118.542 23.2234C118.402 23.3171 118.227 23.3936 118.021 23.4505C117.815 23.5085 117.643 23.5375 117.51 23.5375C117.008 23.5375 116.637 23.4025 116.407 23.1358C116.175 22.8668 116.056 22.3963 116.056 21.7382V16.6029H118.648ZM99.4674 23.5379C98.5272 23.5379 97.786 23.2262 97.2637 22.6121C96.7381 21.995 96.4719 21.1151 96.4719 19.9972C96.4719 18.8438 96.7381 17.9411 97.2639 17.3131C97.7866 16.6891 98.5207 16.3725 99.4462 16.3725C100.344 16.3725 101.059 16.6749 101.571 17.2719C102.086 17.8719 102.347 18.7674 102.347 19.9342C102.347 21.1153 102.102 22.0226 101.617 22.6296C101.136 23.2319 100.413 23.5379 99.4674 23.5379V23.5379ZM99.5825 14.2543C97.7889 14.2543 96.3643 14.7799 95.3486 15.8164C94.3335 16.853 93.8188 18.2876 93.8188 20.0806C93.8188 21.7837 94.3212 23.1535 95.3122 24.1515C96.3031 25.1498 97.6517 25.6555 99.3202 25.6555C101.059 25.6555 102.455 25.1226 103.47 24.0717C104.486 23.022 105 21.6009 105 19.8498C105 18.1202 104.517 16.7401 103.565 15.7488C102.612 14.757 101.272 14.2543 99.5825 14.2543V14.2543ZM89.6427 14.2543C88.4227 14.2543 87.4135 14.5664 86.6425 15.1817C85.8669 15.8007 85.4734 16.6125 85.4734 17.5948C85.4734 18.1055 85.5584 18.5591 85.7255 18.9438C85.8936 19.3298 86.1538 19.6696 86.4995 19.9548C86.8426 20.2378 87.3722 20.5341 88.0739 20.8356C88.6638 21.0784 89.1038 21.2837 89.3832 21.4455C89.6564 21.6042 89.8503 21.7636 89.9597 21.9189C90.0661 22.0708 90.1201 22.2788 90.1201 22.5354C90.1201 23.2662 89.5728 23.6218 88.4468 23.6218C88.0291 23.6218 87.5527 23.5346 87.0308 23.3626C86.5126 23.1933 86.0236 22.9453 85.5807 22.6274L85.4732 22.5503V25.044L85.5127 25.0623C85.8792 25.2315 86.3412 25.3742 86.8858 25.4864C87.4294 25.5988 87.9233 25.656 88.3523 25.656C89.6763 25.656 90.7424 25.3424 91.5204 24.7234C92.3032 24.1002 92.7 23.2692 92.7 22.2529C92.7 21.5197 92.4864 20.8909 92.0654 20.3839C91.6473 19.8809 90.9216 19.4192 89.9094 19.011C89.103 18.6874 88.5864 18.4187 88.3732 18.2124C88.1678 18.0132 88.0634 17.7314 88.0634 17.3746C88.0634 17.0583 88.1922 16.8048 88.4565 16.5996C88.7229 16.3934 89.0938 16.2885 89.5588 16.2885C89.9904 16.2885 90.4319 16.3566 90.8711 16.4902C91.3098 16.6238 91.6953 16.8028 92.017 17.0216L92.1228 17.094V14.7284L92.0822 14.711C91.7854 14.5837 91.394 14.4748 90.9186 14.3864C90.4454 14.2986 90.0161 14.2543 89.6427 14.2543V14.2543ZM78.7211 23.5379C77.7812 23.5379 77.0398 23.2262 76.5175 22.6121C75.9919 21.995 75.726 21.1153 75.726 19.9972C75.726 18.8438 75.9922 17.9411 76.5181 17.3131C77.0403 16.6891 77.7743 16.3725 78.7003 16.3725C79.5981 16.3725 80.313 16.6749 80.8253 17.2719C81.34 17.8719 81.6011 18.7674 81.6011 19.9342C81.6011 21.1153 81.3554 22.0226 80.8711 22.6296C80.39 23.2319 79.6671 23.5379 78.7211 23.5379V23.5379ZM78.8366 14.2543C77.0425 14.2543 75.6178 14.7799 74.6026 15.8164C73.5876 16.853 73.0726 18.2876 73.0726 20.0806C73.0726 21.7844 73.5753 23.1535 74.5663 24.1515C75.5572 25.1498 76.9057 25.6555 78.5742 25.6555C80.3126 25.6555 81.7092 25.1226 82.7245 24.0717C83.7394 23.022 84.2539 21.6009 84.2539 19.8498C84.2539 18.1202 83.7712 16.7401 82.8187 15.7488C81.8657 14.757 80.5258 14.2543 78.8366 14.2543V14.2543ZM69.1408 16.4V14.5163H66.5823V25.3932H69.1408V19.8293C69.1408 18.8832 69.3554 18.1059 69.7786 17.5189C70.1965 16.9388 70.7534 16.6448 71.4334 16.6448C71.6638 16.6448 71.9225 16.6828 72.2027 16.758C72.48 16.8327 72.6808 16.9139 72.7993 16.9993L72.9068 17.0772V14.4977L72.8654 14.48C72.6271 14.3787 72.29 14.3276 71.8635 14.3276C71.2206 14.3276 70.6452 14.5342 70.1523 14.941C69.7198 15.2985 69.4071 15.7887 69.168 16.4H69.1408ZM62.0003 14.2543C60.8265 14.2543 59.7796 14.506 58.889 15.0022C57.9966 15.4995 57.3065 16.2095 56.837 17.1123C56.3695 18.013 56.1321 19.065 56.1321 20.2382C56.1321 21.2659 56.3623 22.209 56.8171 23.0402C57.2722 23.8728 57.9163 24.5242 58.7317 24.9759C59.5459 25.4271 60.4869 25.6558 61.5288 25.6558C62.7448 25.6558 63.7829 25.4127 64.6153 24.9333L64.6489 24.914V22.57L64.5413 22.6485C64.1643 22.9232 63.743 23.1424 63.2896 23.3003C62.8374 23.4581 62.4251 23.5379 62.0636 23.5379C61.0596 23.5379 60.2537 23.2238 59.6687 22.6044C59.0824 21.9843 58.7851 21.1135 58.7851 20.0177C58.7851 18.9151 59.0952 18.0219 59.7061 17.3629C60.3152 16.7058 61.1227 16.3725 62.1058 16.3725C62.9468 16.3725 63.7663 16.6572 64.5416 17.2196L64.6489 17.2976V14.8277L64.6142 14.8082C64.3225 14.6449 63.9245 14.51 63.4305 14.4078C62.9386 14.3057 62.4575 14.2543 62.0003 14.2543V14.2543ZM54.37 14.5165H51.8114V25.3932H54.37V14.5165V14.5165ZM53.1169 9.88287C52.6958 9.88287 52.3285 10.0262 52.0267 10.3103C51.7237 10.5952 51.5701 10.9538 51.5701 11.3771C51.5701 11.7938 51.7219 12.1459 52.022 12.4232C52.3202 12.6997 52.6886 12.8398 53.117 12.8398C53.5452 12.8398 53.915 12.6997 54.2168 12.4236C54.5205 12.1459 54.6745 11.7939 54.6745 11.3771C54.6745 10.9686 54.5246 10.6136 54.2293 10.3218C53.9342 10.0305 53.5598 9.88287 53.1169 9.88287ZM46.7331 13.7139V25.3932H49.3442V10.2158H45.7303L41.1368 21.4892L36.679 10.2158H32.918V25.3931H35.3717V13.7128H35.456L40.1633 25.3932H42.015L46.6488 13.7139H46.7331V13.7139Z" fill="#A1A6B0"/>
<path d="M12.0362 17.1803H0V5.14404H12.0362V17.1803Z" fill="#A1A6B0"/>
<path d="M25.3251 17.1803H13.2891V5.14404H25.3251V17.1803Z" fill="#A1A6B0"/>
<path d="M12.0359 30.4741H0V18.438H12.0359V30.4741Z" fill="#A1A6B0"/>
<path d="M25.3251 30.4741H13.2891V18.438H25.3251V30.4741Z" fill="#A1A6B0"/>
</g>
<defs>
<clipPath id="clip0_3226_2273">
<rect width="118.751" height="34.7565" fill="white" transform="translate(0 0.792969)"/>
</clipPath>
</defs>
</svg>
