<svg width="102" height="18" viewBox="0 0 102 18" fill="none" xmlns="http://www.w3.org/2000/svg">
<path d="M8.34967 1.2326C8.62556 0.709699 9.37444 0.7097 9.65033 1.2326L11.5821 4.89403C11.6885 5.09568 11.8824 5.23657 12.1071 5.27544L16.1863 5.98124C16.7688 6.08204 17.0003 6.79427 16.5882 7.21824L13.7029 10.1869C13.544 10.3504 13.47 10.5784 13.5024 10.8041L14.0917 14.9017C14.1758 15.4869 13.57 15.9271 13.0394 15.6662L9.32445 13.8395C9.11985 13.7389 8.88015 13.7389 8.67555 13.8395L4.96057 15.6662C4.43002 15.9271 3.82415 15.4869 3.90831 14.9017L4.49759 10.8041C4.53005 10.5784 4.45598 10.3504 4.29707 10.1869L1.4118 7.21824C0.999749 6.79427 1.23117 6.08204 1.81373 5.98124L5.89291 5.27544C6.11757 5.23657 6.31149 5.09568 6.41788 4.89403L8.34967 1.2326Z" fill="#FFB81D"/>
<path d="M29.2911 1.2326C29.567 0.709699 30.3158 0.7097 30.5917 1.2326L32.5235 4.89403C32.6299 5.09568 32.8238 5.23657 33.0485 5.27544L37.1277 5.98124C37.7102 6.08204 37.9417 6.79427 37.5296 7.21824L34.6443 10.1869C34.4854 10.3504 34.4114 10.5784 34.4438 10.8041L35.0331 14.9017C35.1173 15.4869 34.5114 15.9271 33.9808 15.6662L30.2659 13.8395C30.0613 13.7389 29.8216 13.7389 29.617 13.8395L25.902 15.6662C25.3714 15.9271 24.7656 15.4869 24.8497 14.9017L25.439 10.8041C25.4715 10.5784 25.3974 10.3504 25.2385 10.1869L22.3532 7.21824C21.9412 6.79427 22.1726 6.08204 22.7551 5.98124L26.8343 5.27544C27.059 5.23657 27.2529 5.09568 27.3593 4.89403L29.2911 1.2326Z" fill="#FFB81D"/>
<path d="M50.056 1.40906C50.3319 0.886154 51.0808 0.886153 51.3567 1.40906L53.2345 4.96825C53.3409 5.1699 53.5348 5.31079 53.7595 5.34966L57.7248 6.03576C58.3073 6.13655 58.5388 6.84879 58.1267 7.27276L55.322 10.1586C55.1631 10.3221 55.089 10.55 55.1215 10.7757L55.6943 14.7589C55.7785 15.3441 55.1726 15.7843 54.642 15.5234L51.0308 13.7477C50.8262 13.6471 50.5865 13.6471 50.3819 13.7477L46.7706 15.5234C46.2401 15.7843 45.6342 15.3441 45.7184 14.7589L46.2912 10.7757C46.3237 10.55 46.2496 10.3221 46.0907 10.1586L43.286 7.27276C42.8739 6.84879 43.1053 6.13655 43.6879 6.03576L47.6532 5.34966C47.8778 5.31079 48.0718 5.1699 48.1782 4.96825L50.056 1.40906Z" fill="#FFB81D"/>
<path d="M70.8204 1.2326C71.0963 0.709699 71.8451 0.7097 72.121 1.2326L74.0528 4.89403C74.1592 5.09568 74.3531 5.23657 74.5778 5.27544L78.657 5.98124C79.2395 6.08204 79.471 6.79427 79.0589 7.21824L76.1736 10.1869C76.0147 10.3504 75.9407 10.5784 75.9731 10.8041L76.5624 14.9017C76.6466 15.4869 76.0407 15.9271 75.5101 15.6662L71.7952 13.8395C71.5905 13.7389 71.3509 13.7389 71.1463 13.8395L67.4313 15.6662C66.9007 15.9271 66.2949 15.4869 66.379 14.9017L66.9683 10.8041C67.0007 10.5784 66.9267 10.3504 66.7678 10.1869L63.8825 7.21824C63.4705 6.79427 63.7019 6.08204 64.2844 5.98124L68.3636 5.27544C68.5883 5.23657 68.7822 5.09568 68.8886 4.89403L70.8204 1.2326Z" fill="#FFB81D"/>
<path d="M91.7618 1.2326C92.0377 0.709699 92.7866 0.7097 93.0624 1.2326L94.9942 4.89403C95.1006 5.09568 95.2945 5.23657 95.5192 5.27544L99.5984 5.98124C100.181 6.08204 100.412 6.79427 100 7.21824L97.115 10.1869C96.9561 10.3504 96.8821 10.5784 96.9145 10.8041L97.5038 14.9017C97.588 15.4869 96.9821 15.9271 96.4515 15.6662L92.7366 13.8395C92.532 13.7389 92.2923 13.7389 92.0877 13.8395L88.3727 15.6662C87.8421 15.9271 87.2363 15.4869 87.3204 14.9017L87.9097 10.8041C87.9422 10.5784 87.8681 10.3504 87.7092 10.1869L84.8239 7.21824C84.4119 6.79427 84.6433 6.08204 85.2258 5.98124L89.305 5.27544C89.5297 5.23657 89.7236 5.09568 89.83 4.89403L91.7618 1.2326Z" fill="#FFB81D"/>
</svg>
