<svg width="53" height="36" viewBox="0 0 53 36" fill="none" xmlns="http://www.w3.org/2000/svg">
<g clip-path="url(#clip0_3226_2264)">
<path d="M3.00009 21.6863C3.22045 22.2711 3.52554 22.7711 3.9154 23.1863C4.30526 23.6016 4.76714 23.9194 5.30102 24.1398C5.83496 24.3601 6.41548 24.4703 7.04264 24.4703C7.65286 24.4703 8.22488 24.3558 8.75882 24.127C9.29276 23.8981 9.75885 23.5761 10.1572 23.1609C10.5555 22.7456 10.8648 22.2499 11.0852 21.6736C11.3055 21.0973 11.4157 20.4532 11.4157 19.7413V8.75781H14.0853V26.5551H11.4411V24.9024C10.8479 25.5295 10.1487 26.0126 9.34356 26.3517C8.53841 26.6906 7.66979 26.8601 6.73755 26.8601C5.78832 26.8601 4.90272 26.6949 4.08063 26.3643C3.2586 26.0338 2.54666 25.5635 1.94499 24.9533C1.34331 24.3431 0.86867 23.6101 0.521225 22.7541C0.173723 21.8981 0 20.9447 0 19.8938V8.75781H2.66958V19.7413C2.66958 20.4532 2.77973 21.1015 3.00009 21.6863Z" fill="#A1A6B0"/>
<path d="M18.6869 8.75781V15.2411C19.2801 14.6478 19.9666 14.1775 20.7463 13.83C21.526 13.4825 22.3735 13.3088 23.2888 13.3088C24.238 13.3088 25.1278 13.4868 25.9583 13.8427C26.7889 14.1986 27.5092 14.6817 28.1194 15.2919C28.7296 15.9022 29.2127 16.6225 29.5687 17.453C29.9246 18.2836 30.1025 19.165 30.1025 20.0972C30.1025 21.0294 29.9246 21.9066 29.5687 22.7286C29.2127 23.5507 28.7296 24.2668 28.1194 24.877C27.5092 25.4872 26.7889 25.9703 25.9583 26.3262C25.1278 26.6821 24.2379 26.8601 23.2888 26.8601C22.3734 26.8601 21.5218 26.6864 20.7336 26.3389C19.9454 25.9914 19.2547 25.521 18.6615 24.9278V26.555H16.119V8.75781H18.6869ZM18.9793 21.8515C19.2081 22.3939 19.5259 22.8685 19.9327 23.2753C20.3395 23.6821 20.8141 24.0042 21.3565 24.2415C21.8989 24.4788 22.4837 24.5974 23.1108 24.5974C23.721 24.5974 24.2973 24.4788 24.8397 24.2415C25.382 24.0042 25.8523 23.6822 26.2508 23.2753C26.6491 22.8686 26.9669 22.3939 27.2042 21.8515C27.4415 21.3091 27.5601 20.7244 27.5601 20.0972C27.5601 19.4701 27.4415 18.881 27.2042 18.3302C26.9669 17.7793 26.6491 17.3005 26.2508 16.8937C25.8524 16.487 25.3821 16.1691 24.8397 15.9403C24.2972 15.7115 23.721 15.597 23.1108 15.597C22.5006 15.597 21.9243 15.7114 21.382 15.9403C20.8396 16.1692 20.365 16.487 19.9582 16.8937C19.5514 17.3005 19.2293 17.7793 18.992 18.3302C18.7548 18.881 18.6361 19.4701 18.6361 20.0972C18.636 20.7244 18.7505 21.3091 18.9793 21.8515Z" fill="#A1A6B0"/>
<path d="M31.5514 17.4785C31.8904 16.6649 32.3566 15.9488 32.9498 15.3301C33.5429 14.7114 34.2464 14.2241 35.06 13.8682C35.8736 13.5122 36.755 13.3343 37.7042 13.3343C38.6364 13.3343 39.5009 13.5038 40.2975 13.8428C41.0941 14.1818 41.7806 14.6521 42.3569 15.2539C42.9332 15.8555 43.3824 16.5675 43.7044 17.3895C44.0264 18.2116 44.1874 19.1057 44.1874 20.0719V20.9109H33.6363C33.721 21.4363 33.8905 21.9236 34.1448 22.3727C34.3991 22.8219 34.7168 23.2118 35.0982 23.5423C35.4795 23.8728 35.9118 24.1313 36.3948 24.3177C36.8779 24.5042 37.3906 24.5974 37.933 24.5974C39.4755 24.5974 40.7213 23.9618 41.6705 22.6905L43.5265 24.0634C42.8824 24.9279 42.0858 25.6059 41.1366 26.0974C40.1874 26.5889 39.1196 26.8347 37.9331 26.8347C36.9669 26.8347 36.0644 26.6652 35.2254 26.3262C34.3863 25.9873 33.6575 25.5126 33.0389 24.9024C32.4202 24.2922 31.9329 23.5761 31.577 22.754C31.221 21.932 31.043 21.0379 31.043 20.0717C31.0429 19.1565 31.2125 18.292 31.5514 17.4785ZM35.1236 16.4741C34.4032 17.0759 33.9244 17.8768 33.6871 18.8768H41.5942C41.3738 17.8768 40.9035 17.0759 40.1831 16.4741C39.4627 15.8725 38.6195 15.5716 37.6534 15.5716C36.6872 15.5716 35.844 15.8725 35.1236 16.4741Z" fill="#A1A6B0"/>
<path d="M48.9927 16.7666C48.4503 17.3598 48.1791 18.1649 48.1791 19.1819V26.5551H45.6111V13.5885H48.1536V15.1903C48.4756 14.6648 48.8952 14.2495 49.4121 13.9445C49.9291 13.6393 50.5435 13.4868 51.2554 13.4868H52.1453V15.8767H51.0774C50.23 15.8767 49.535 16.1733 48.9927 16.7666Z" fill="#A1A6B0"/>
</g>
<defs>
<clipPath id="clip0_3226_2264">
<rect width="52.1347" height="34.7565" fill="white" transform="translate(0 0.792969)"/>
</clipPath>
</defs>
</svg>
