<svg width="83" height="36" viewBox="0 0 83 36" fill="none" xmlns="http://www.w3.org/2000/svg">
<g clip-path="url(#clip0_3226_2251)">
<path d="M22.6572 23.3005C20.3521 23.3005 18.8261 21.5543 18.4004 20.8779C18.9466 16.5991 20.5449 15.2462 22.6572 15.2462C24.7454 15.2462 26.3678 16.8822 26.3678 19.2733C26.3678 21.6644 24.7454 23.3005 22.6572 23.3005ZM22.6572 12.6191C18.8984 12.6191 16.7941 15.0181 16.1918 17.4879C15.5091 16.2294 15.0031 14.5462 14.6096 12.981H9.41305V19.3127C9.41305 21.6094 8.34485 23.3083 6.25663 23.3083C4.16841 23.3083 2.9717 21.6094 2.9717 19.3127L2.99579 12.981H0V19.3127C0 21.1611 0.610403 22.8364 1.7268 24.0319C2.87532 25.2668 4.44148 25.9117 6.25663 25.9117C9.87086 25.9117 12.3928 23.1982 12.3928 19.3127V15.0574C12.7702 16.4575 13.6698 19.1475 15.3886 21.5072L13.7823 30.4659H16.8263L17.8864 24.1184C18.2318 24.4016 18.6012 24.6533 18.9948 24.8814C20.0148 25.5107 21.1794 25.8646 22.3841 25.9039C22.3841 25.9039 22.5688 25.9117 22.6652 25.9117C26.3919 25.9117 29.3555 23.0881 29.3555 19.2733C29.3555 15.4586 26.3839 12.6191 22.6572 12.6191Z" fill="#A1A6B0"/>
<path d="M65.6993 14.3344V12.9815H62.7598V25.5112H65.7395V20.6032C65.7395 17.5828 66.0206 15.412 70.1568 15.6951V12.8321C68.2293 12.6905 66.7274 13.0838 65.6993 14.3344Z" fill="#A1A6B0"/>
<path d="M45.0096 12.9819L42.8491 21.7441L40.544 12.9819H36.7531L34.44 21.7441L32.2875 12.9819H29.2676L32.5767 25.5195H36.1588L38.6485 16.6158L41.1142 25.5195H44.6963L48.1982 12.9819H45.0096Z" fill="#A1A6B0"/>
<path d="M54.7606 23.3083C52.6403 23.3083 51.05 21.6723 51.05 19.2733C51.05 16.8744 52.6484 15.2462 54.7606 15.2462C56.8489 15.2462 58.4713 16.8822 58.4713 19.2733C58.4713 21.6644 56.8489 23.3083 54.7606 23.3083ZM54.7606 12.6191C51.0098 12.6191 48.0703 15.4664 48.0703 19.2733C48.0703 23.0802 51.0098 25.9039 54.7606 25.9039C58.4873 25.9039 61.451 23.0802 61.451 19.2733C61.451 15.4664 58.4954 12.6191 54.7606 12.6191Z" fill="#A1A6B0"/>
<path d="M74.4292 19.3521H75.1199L79.2803 25.5186H82.6456L77.8587 18.6835C80.1799 17.7947 81.738 15.4744 81.738 12.9811H78.7662C78.7662 15.6868 76.5897 16.7093 74.4292 16.7093V8.03369H71.4414V25.5186H74.4211L74.4292 19.3521Z" fill="#A1A6B0"/>
</g>
<defs>
<clipPath id="clip0_3226_2251">
<rect width="82.5466" height="34.7565" fill="white" transform="translate(0 0.792969)"/>
</clipPath>
</defs>
</svg>
