<svg width="52" height="52" viewBox="0 0 52 52" fill="none" xmlns="http://www.w3.org/2000/svg">
<path d="M0 15.9337L4.57817 36.0664H6.31367C7.07745 36.0664 7.81812 35.8044 8.41199 35.3241C9.00586 34.8438 9.41697 34.1743 9.57667 33.4274L12.5038 19.6907C12.5208 19.6072 12.566 19.532 12.6319 19.478C12.6979 19.4239 12.7804 19.3942 12.8657 19.3939C13.039 19.3939 13.1907 19.5196 13.2275 19.6907L16.1568 33.4274C16.3165 34.1743 16.7276 34.8438 17.3215 35.3241C17.9154 35.8044 18.6561 36.0664 19.4198 36.0664H21.164L25.7422 15.9337H24.518C23.1747 15.9337 22.0068 16.8654 21.71 18.1762L18.98 30.1904L16.5837 18.9757C16.4739 18.4684 16.2617 17.9887 15.9601 17.5662C15.6584 17.1438 15.2737 16.7873 14.8294 16.5187C14.3852 16.2502 13.8908 16.0751 13.3765 16.0043C12.8623 15.9336 12.339 15.9685 11.8387 16.1071C10.4542 16.4884 9.42717 17.6584 9.12817 19.0646L6.75783 30.1731L4.02783 18.1762C3.88303 17.5396 3.52634 16.9711 3.0162 16.5637C2.50606 16.1563 1.87269 15.9342 1.21983 15.9337H0ZM30.316 15.9337C29.7699 15.9337 29.2461 16.1505 28.8598 16.5365C28.4734 16.9224 28.2561 17.446 28.2555 17.9921V36.0664H29.6313C30.1773 36.0658 30.7007 35.8489 31.0869 35.463C31.4732 35.0772 31.6907 34.554 31.6918 34.0081V15.9316L30.316 15.9337ZM34.1683 15.9337L41.0107 26.0304L34.2073 36.0664H37.0782C37.8755 36.0664 38.6208 35.6742 39.0672 35.0134L42.8718 29.4017C42.8958 29.3673 42.9277 29.3392 42.9649 29.3198C43.002 29.3004 43.0433 29.2903 43.0853 29.2903C43.1272 29.2903 43.1685 29.3004 43.2056 29.3198C43.2428 29.3392 43.2747 29.3673 43.2987 29.4017L47.099 35.0134C47.5453 35.6742 48.2907 36.0664 49.088 36.0664H51.961L45.1577 26.0304L52 15.9337H49.127C48.3297 15.9337 47.5843 16.3259 47.138 16.9867L43.2987 22.6569C43.2747 22.6913 43.2428 22.7194 43.2056 22.7389C43.1685 22.7583 43.1272 22.7684 43.0853 22.7684C43.0433 22.7684 43.002 22.7583 42.9649 22.7389C42.9277 22.7194 42.8958 22.6913 42.8718 22.6569L39.0303 16.9867C38.8101 16.6621 38.5136 16.3963 38.1669 16.2127C37.8201 16.0292 37.4337 15.9334 37.0413 15.9337H34.1683Z" fill="#03040A"/>
</svg>
